<?xml version="1.0" standalone="no"?>
<!DOCTYPE svg PUBLIC "-//W3C//DTD SVG 20010904//EN"
 "http://www.w3.org/TR/2001/REC-SVG-20010904/DTD/svg10.dtd">
<svg version="1.0" xmlns="http://www.w3.org/2000/svg"
 width="1200.000000pt" height="1200.000000pt" viewBox="0 0 1200.000000 1200.000000"
 preserveAspectRatio="xMidYMid meet">
<metadata>
Created by potrace 1.11, written by Peter Selinger 2001-2013
</metadata>
<g transform="translate(0.000000,1200.000000) scale(0.100000,-0.100000)"
fill="#000000" stroke="none">
<path d="M10948 11993 c7 -3 16 -2 19 1 4 3 -2 6 -13 5 -11 0 -14 -3 -6 -6z"/>
<path d="M11145 11990 c4 -6 11 -8 16 -5 14 9 11 15 -7 15 -8 0 -12 -5 -9 -10z"/>
<path d="M11210 11990 c0 -5 5 -10 10 -10 6 0 10 5 10 10 0 6 -4 10 -10 10 -5
0 -10 -4 -10 -10z"/>
<path d="M11250 11990 c0 -5 6 -10 14 -10 8 0 18 5 21 10 3 6 -3 10 -14 10
-12 0 -21 -4 -21 -10z"/>
<path d="M11360 11990 c0 -5 5 -10 10 -10 6 0 10 5 10 10 0 6 -4 10 -10 10 -5
0 -10 -4 -10 -10z"/>
<path d="M11530 11986 c0 -9 5 -16 10 -16 6 0 10 4 10 9 0 6 -4 13 -10 16 -5
3 -10 -1 -10 -9z"/>
<path d="M11580 11990 c0 -5 4 -10 9 -10 6 0 13 5 16 10 3 6 -1 10 -9 10 -9 0
-16 -4 -16 -10z"/>
<path d="M11695 11990 c-3 -5 -2 -10 4 -10 5 0 13 5 16 10 3 6 2 10 -4 10 -5
0 -13 -4 -16 -10z"/>
<path d="M11755 11990 c-3 -5 1 -10 10 -10 9 0 13 5 10 10 -3 6 -8 10 -10 10
-2 0 -7 -4 -10 -10z"/>
<path d="M11800 11986 c0 -22 17 -28 24 -10 9 22 8 24 -9 24 -8 0 -15 -6 -15
-14z"/>
<path d="M11870 11985 c0 -8 5 -15 10 -15 6 0 10 7 10 15 0 8 -4 15 -10 15 -5
0 -10 -7 -10 -15z"/>
<path d="M11916 11984 c-5 -12 -2 -15 10 -10 8 3 18 6 20 6 2 0 4 5 4 10 0 16
-27 11 -34 -6z"/>
<path d="M8706 9561 c-4 -6 -4 -11 1 -11 4 0 0 -5 -11 -11 -14 -9 -15 -13 -5
-19 10 -7 10 -14 2 -33 -14 -30 -20 -203 -7 -199 5 1 9 15 9 30 0 15 6 37 14
50 13 25 24 94 23 151 -1 37 -15 60 -26 42z"/>
<path d="M9198 9513 c-27 -13 -58 -23 -68 -23 -10 0 -20 -6 -23 -12 -5 -13 -8
-7 -22 38 -7 21 -28 6 -22 -16 2 -9 0 -25 -5 -35 -7 -12 -7 -20 2 -25 15 -10
4 -31 -13 -25 -7 3 -22 -11 -35 -30 -12 -19 -18 -35 -13 -35 6 0 14 6 18 13 4
7 20 18 35 24 24 11 27 10 39 -18 10 -26 16 -29 38 -24 28 7 43 24 34 38 -3 4
-2 18 1 30 4 17 13 22 45 24 41 3 102 45 81 58 -16 10 -12 26 6 23 10 -2 19 2
20 7 7 19 -68 12 -118 -12z m65 -18 c-3 -9 -8 -14 -10 -11 -3 3 -2 9 2 15 9
16 15 13 8 -4z"/>
<path d="M8950 9299 c0 -5 5 -7 10 -4 6 3 10 8 10 11 0 2 -4 4 -10 4 -5 0 -10
-5 -10 -11z"/>
<path d="M8895 9240 c-10 -11 -19 -28 -20 -38 0 -9 -4 -23 -9 -30 -4 -7 -1
-12 8 -12 9 0 16 7 16 16 0 11 5 14 16 10 10 -4 14 -1 11 6 -2 7 0 25 4 41 9
32 -1 35 -26 7z"/>
<path d="M8677 9244 c-4 -4 -7 -14 -7 -23 0 -11 3 -12 11 -4 6 6 10 16 7 23
-2 6 -7 8 -11 4z"/>
<path d="M8660 9121 c0 -25 6 -27 13 -6 4 8 2 17 -3 20 -6 4 -10 -3 -10 -14z"/>
<path d="M4668 9023 c6 -2 18 -2 25 0 6 3 1 5 -13 5 -14 0 -19 -2 -12 -5z"/>
<path d="M8783 9024 c-7 -3 -10 -11 -7 -18 3 -7 -9 -28 -26 -45 -16 -18 -30
-39 -30 -46 0 -7 -9 -15 -20 -18 -21 -5 -44 -50 -29 -55 5 -2 9 -8 9 -14 0
-18 -33 -83 -47 -91 -15 -9 -18 -57 -3 -57 5 0 12 11 16 25 3 14 11 29 18 33
6 4 16 17 23 29 10 17 10 23 0 26 -9 4 -9 6 0 6 6 1 17 17 23 36 7 20 24 50
40 66 17 19 32 50 37 80 6 27 10 49 9 48 -1 0 -6 -3 -13 -5z"/>
<path d="M8831 8852 c-6 -11 -7 -23 -3 -27 4 -3 1 -5 -7 -3 -8 2 -14 -6 -16
-19 -2 -27 12 -29 43 -7 25 17 27 31 7 57 -13 18 -14 18 -24 -1z"/>
<path d="M8595 8640 c-16 -18 -16 -20 -2 -20 9 0 21 9 27 20 6 11 7 20 2 20
-5 0 -17 -9 -27 -20z"/>
<path d="M8560 8590 c-8 -15 -9 -25 -2 -32 7 -7 14 -3 22 12 8 15 9 25 2 32
-7 7 -14 3 -22 -12z"/>
<path d="M8522 8510 c-12 -15 -27 -47 -34 -70 -7 -23 -21 -46 -30 -51 -18 -9
-26 -49 -10 -49 9 0 49 52 42 55 -3 2 3 12 13 23 10 11 17 23 16 28 -3 13 12
46 28 66 8 9 10 19 5 22 -5 3 -18 -8 -30 -24z"/>
<path d="M7070 8432 c0 -10 35 -62 42 -62 10 0 10 1 -2 37 -6 16 -17 30 -25
30 -8 0 -15 -2 -15 -5z"/>
<path d="M8427 8314 c-4 -4 -7 -14 -7 -23 0 -11 3 -12 11 -4 6 6 10 16 7 23
-2 6 -7 8 -11 4z"/>
<path d="M8387 8242 c-10 -10 -14 -22 -11 -25 4 -4 1 -13 -6 -22 -7 -8 -14
-26 -15 -40 -3 -21 -1 -23 16 -12 10 6 19 22 19 35 0 13 7 36 15 52 17 33 7
40 -18 12z"/>
<path d="M7337 8230 c-3 -11 -1 -20 4 -20 5 0 9 2 9 4 0 2 3 11 6 20 3 9 2 16
-4 16 -5 0 -12 -9 -15 -20z"/>
<path d="M8325 8094 c-19 -29 -38 -87 -26 -80 4 3 13 1 21 -5 12 -7 11 -9 -6
-9 -22 0 -61 -36 -51 -46 6 -6 117 64 117 73 0 2 -11 1 -24 -1 -14 -3 -30 2
-37 10 -9 11 -6 19 16 40 18 17 24 29 18 35 -7 7 -16 1 -28 -17z"/>
<path d="M8405 8065 c-26 -11 -20 -21 9 -16 5 1 6 -5 3 -14 -4 -8 -3 -15 2
-15 4 0 13 -11 19 -25 15 -34 28 -32 36 6 4 21 0 38 -12 54 -20 28 -18 28 -57
10z"/>
<path d="M5601 8014 c0 -16 4 -38 9 -49 6 -13 7 -5 3 25 -7 53 -13 66 -12 24z"/>
<path d="M7147 8013 c-10 -9 -9 -23 2 -23 5 0 11 7 15 15 5 15 -5 20 -17 8z"/>
<path d="M7144 7958 c-4 -6 -9 -26 -11 -43 -1 -16 -5 -47 -8 -67 -5 -36 -4
-37 19 -28 13 5 27 6 30 3 3 -4 6 -1 6 6 0 9 8 11 25 7 37 -9 65 9 65 42 0 26
-2 28 -35 24 -21 -3 -41 -13 -50 -25 -19 -28 -26 -19 -17 23 5 19 8 41 7 49 0
19 -21 25 -31 9z"/>
<path d="M8249 7908 c-12 -23 -12 -23 10 -4 23 21 26 26 11 26 -5 0 -15 -10
-21 -22z"/>
<path d="M8227 7850 c-13 -18 -14 -26 -4 -32 7 -4 15 1 20 14 12 33 2 44 -16
18z"/>
<path d="M5855 7799 c-4 -6 -5 -13 -2 -16 7 -7 27 6 27 18 0 12 -17 12 -25 -2z"/>
<path d="M8199 7788 c0 -7 -3 -25 -5 -40 -4 -21 -1 -28 12 -28 12 0 15 6 12
25 -3 16 -1 25 7 25 7 0 15 7 19 15 4 11 -1 15 -19 15 -14 0 -25 -6 -26 -12z"/>
<path d="M7005 7720 c-3 -5 1 -10 9 -10 8 0 18 5 21 10 3 6 -1 10 -9 10 -8 0
-18 -4 -21 -10z"/>
<path d="M7320 7700 c0 -6 -4 -9 -9 -5 -5 3 -12 1 -16 -5 -3 -5 -15 -10 -26
-10 -10 0 -18 -3 -18 -7 3 -21 -2 -60 -11 -73 -7 -12 -11 -12 -28 3 -19 17
-20 17 -25 -12 -5 -23 -12 -30 -34 -33 -40 -4 -44 -43 -7 -74 15 -13 30 -24
34 -24 12 0 30 26 23 33 -3 4 7 7 23 7 27 1 112 38 89 40 -5 0 -3 5 5 10 8 5
31 7 50 4 44 -6 69 8 52 29 -7 7 -10 16 -7 19 3 3 -1 11 -10 18 -8 7 -15 25
-15 41 0 31 -3 33 -42 43 -18 4 -28 2 -28 -4z m55 -120 c-3 -5 -10 -10 -16
-10 -5 0 -9 5 -9 10 0 6 7 10 16 10 8 0 12 -4 9 -10z"/>
<path d="M6976 7690 c-15 -5 -16 -9 -7 -14 7 -5 18 -3 24 3 14 14 6 20 -17 11z"/>
<path d="M8178 7683 c0 -10 -2 -24 -2 -30 -1 -7 -9 -22 -18 -33 -10 -11 -24
-36 -33 -55 -8 -19 -21 -50 -29 -68 l-15 -33 35 -1 c21 -1 32 3 27 10 -3 6 -1
7 6 3 14 -9 44 20 48 48 5 36 3 108 -4 119 -3 6 -1 7 5 3 8 -5 12 0 12 13 0
12 0 24 1 29 0 4 -7 8 -15 10 -10 2 -17 -4 -18 -15z"/>
<path d="M7549 7673 c-13 -16 -12 -17 4 -4 9 7 17 15 17 17 0 8 -8 3 -21 -13z"/>
<path d="M6879 7586 c-1 -6 -2 -20 -1 -31 0 -11 -5 -23 -11 -27 -6 -4 -8 -10
-4 -14 3 -4 21 7 39 25 23 23 27 31 15 31 -9 0 -14 6 -11 13 3 8 -2 14 -11 14
-8 0 -16 -5 -16 -11z"/>
<path d="M8905 7540 c3 -5 8 -10 11 -10 2 0 4 5 4 10 0 6 -5 10 -11 10 -5 0
-7 -4 -4 -10z"/>
<path d="M7050 7502 c0 -10 -5 -23 -10 -28 -10 -10 -7 -34 16 -126 6 -28 6
-28 -45 -28 l-52 0 18 -24 c10 -13 33 -29 52 -35 29 -9 38 -7 62 12 15 12 28
28 28 35 1 6 7 12 14 12 8 0 12 15 12 43 0 23 3 45 8 48 8 6 -17 62 -36 77 -7
6 -25 15 -40 21 -23 9 -27 8 -27 -7z"/>
<path d="M8088 7422 c-7 -24 40 -24 53 1 9 14 6 17 -19 17 -20 0 -31 -6 -34
-18z"/>
<path d="M6025 7420 c3 -5 8 -10 11 -10 2 0 4 5 4 10 0 6 -5 10 -11 10 -5 0
-7 -4 -4 -10z"/>
<path d="M6038 7349 c-2 -30 -4 -55 -4 -56 1 -1 17 2 36 6 29 6 35 11 32 30
-2 20 1 22 22 17 28 -7 45 9 20 18 -9 3 -31 6 -49 6 -21 0 -38 6 -43 17 -7 12
-11 3 -14 -38z"/>
<path d="M7709 7383 c-13 -15 -12 -15 9 -4 23 12 28 21 13 21 -5 0 -15 -7 -22
-17z"/>
<path d="M8115 7380 c-3 -5 -1 -10 4 -10 6 0 11 5 11 10 0 6 -2 10 -4 10 -3 0
-8 -4 -11 -10z"/>
<path d="M6830 7354 c0 -3 7 -12 15 -20 16 -17 18 -14 9 10 -6 15 -24 23 -24
10z"/>
<path d="M8390 7336 c0 -21 16 -28 29 -12 9 11 8 15 -5 20 -22 8 -24 8 -24 -8z"/>
<path d="M8050 7306 c-42 -28 -43 -31 -21 -36 22 -5 22 -6 7 -20 -15 -12 -19
-12 -27 1 -7 11 -9 8 -9 -10 0 -20 4 -22 23 -16 12 4 30 7 40 6 19 0 21 7 7
29 -7 11 -4 19 11 31 12 9 20 22 18 30 -3 12 -14 8 -49 -15z"/>
<path d="M6288 7303 c7 -3 16 -2 19 1 4 3 -2 6 -13 5 -11 0 -14 -3 -6 -6z"/>
<path d="M5987 7268 c-10 -11 -17 -22 -15 -24 3 -2 15 7 28 21 13 14 19 25 14
24 -5 0 -17 -10 -27 -21z"/>
<path d="M6307 7274 c-8 -8 16 -56 36 -73 13 -10 13 -7 3 24 -14 40 -29 59
-39 49z"/>
<path d="M5947 7224 c-4 -4 -7 -17 -7 -28 1 -19 1 -20 11 -3 11 19 8 43 -4 31z"/>
<path d="M8001 7186 c-6 -7 -8 -21 -5 -30 5 -12 0 -19 -15 -23 -17 -4 -21 -12
-19 -37 1 -18 -2 -38 -7 -46 -5 -8 -10 -21 -11 -28 -2 -8 -14 -31 -29 -52 -14
-21 -28 -55 -31 -76 -3 -21 -11 -48 -18 -59 -7 -11 -14 -24 -15 -30 -1 -5 -9
-20 -17 -33 -9 -13 -13 -30 -10 -37 3 -8 0 -15 -5 -17 -13 -4 -17 -57 -4 -55
6 1 9 5 7 10 -1 4 4 7 12 7 17 0 28 24 20 44 -3 8 3 23 13 33 10 10 17 26 15
36 -2 10 3 17 12 17 16 0 42 38 32 48 -3 3 -6 0 -6 -6 0 -7 -4 -12 -10 -12 -5
0 -10 9 -10 21 0 14 5 19 15 16 21 -9 30 12 11 26 -11 9 -13 16 -6 27 9 13 10
13 10 0 0 -11 4 -10 12 4 8 15 8 21 0 24 -8 2 -6 13 8 32 11 15 17 35 14 43
-3 10 2 18 15 22 24 7 28 25 6 25 -8 0 -15 5 -15 10 0 6 5 10 10 10 6 0 9 6 8
13 -2 6 5 11 15 11 12 -1 17 4 15 15 -2 9 3 21 11 27 8 6 11 16 7 22 -10 16
-21 15 -35 -2z"/>
<path d="M5931 7124 c0 -11 3 -14 6 -6 3 7 2 16 -1 19 -3 4 -6 -2 -5 -13z"/>
<path d="M7142 7084 c-18 -86 -9 -112 28 -79 21 19 16 76 -6 68 -8 -3 -14 -1
-14 5 0 6 5 12 12 14 8 3 8 9 1 22 -9 16 -12 11 -21 -30z m28 -53 c0 -6 -4
-13 -10 -16 -5 -3 -10 1 -10 9 0 9 5 16 10 16 6 0 10 -4 10 -9z"/>
<path d="M6330 7109 c0 -5 5 -7 10 -4 6 3 10 8 10 11 0 2 -4 4 -10 4 -5 0 -10
-5 -10 -11z"/>
<path d="M6001 7098 c-12 -4 -21 -15 -21 -24 0 -9 -6 -14 -12 -11 -9 3 -14 -9
-15 -38 -2 -35 2 -44 18 -48 10 -3 19 -12 19 -20 0 -18 39 -27 68 -16 31 12
64 49 58 65 -10 26 21 14 34 -13 7 -16 15 -23 17 -16 2 7 11 9 20 6 12 -5 14
-1 8 18 -5 18 -4 21 4 13 20 -19 67 -4 85 28 21 34 17 41 -21 40 -16 0 -52 -2
-81 -2 -28 -1 -55 -6 -58 -12 -4 -5 -18 2 -33 16 -26 25 -51 29 -90 14z"/>
<path d="M7324 7094 c3 -9 6 -18 6 -20 0 -2 7 -4 15 -4 20 0 19 26 -1 34 -24
9 -27 8 -20 -10z"/>
<path d="M7660 7079 c0 -5 5 -7 10 -4 6 3 10 8 10 11 0 2 -4 4 -10 4 -5 0 -10
-5 -10 -11z"/>
<path d="M7741 7061 c-7 -5 -10 -14 -7 -20 4 -6 1 -11 -8 -11 -10 0 -13 -6
-10 -15 8 -19 24 -20 24 0 0 7 8 18 18 24 11 7 14 13 7 20 -6 6 -16 7 -24 2z"/>
<path d="M6914 7030 c0 -11 3 -20 6 -20 12 0 45 29 33 30 -6 0 -18 2 -25 5 -9
4 -14 -2 -14 -15z"/>
<path d="M7014 7004 c3 -9 6 -18 6 -20 0 -3 9 0 20 6 28 15 25 30 -6 30 -20 0
-25 -4 -20 -16z"/>
<path d="M7385 7009 c-9 -14 -7 -15 38 -22 34 -5 36 -4 27 14 -11 20 -54 26
-65 8z"/>
<path d="M7620 7010 c0 -5 7 -7 15 -4 8 4 15 8 15 10 0 2 -7 4 -15 4 -8 0 -15
-4 -15 -10z"/>
<path d="M7311 6994 c0 -11 3 -14 6 -6 3 7 2 16 -1 19 -3 4 -6 -2 -5 -13z"/>
<path d="M7060 6970 c0 -19 3 -21 12 -12 9 9 9 15 0 24 -9 9 -12 7 -12 -12z"/>
<path d="M7630 6983 c0 -6 -12 -13 -27 -16 -16 -3 -34 -16 -42 -29 -12 -20
-12 -21 0 -12 8 6 22 10 32 9 18 -3 55 41 43 52 -3 3 -6 2 -6 -4z"/>
<path d="M6966 6944 c-8 -22 -8 -24 8 -24 15 0 28 24 19 34 -11 10 -21 7 -27
-10z"/>
<path d="M7115 6940 c-18 -19 -17 -20 2 -20 22 0 47 23 36 33 -10 11 -19 8
-38 -13z"/>
<path d="M6818 6916 c-27 -20 -22 -26 22 -26 30 0 40 4 40 16 0 8 -4 13 -9 9
-5 -3 -12 -1 -16 5 -8 13 -16 12 -37 -4z"/>
<path d="M7416 6915 c-10 -8 -15 -19 -11 -25 5 -8 12 -4 22 10 19 26 14 33
-11 15z"/>
<path d="M5491 6904 c0 -11 3 -14 6 -6 3 7 2 16 -1 19 -3 4 -6 -2 -5 -13z"/>
<path d="M7030 6900 c-7 -13 -7 -20 -1 -20 6 0 15 9 21 20 7 13 7 20 1 20 -6
0 -15 -9 -21 -20z"/>
<path d="M6879 6849 c-9 -17 -8 -20 3 -15 7 3 21 9 31 12 23 8 22 24 -3 24
-10 0 -24 -10 -31 -21z"/>
<path d="M6968 6845 c-3 -14 -3 -25 -1 -25 11 0 29 27 25 38 -6 20 -19 14 -24
-13z"/>
<path d="M7429 6853 c-12 -15 -12 -16 4 -10 10 4 23 7 28 7 5 0 9 5 9 10 0 16
-26 12 -41 -7z"/>
<path d="M5660 6851 c0 -6 5 -11 11 -11 5 0 8 -4 4 -9 -3 -5 3 -11 12 -13 24
-5 63 2 63 12 0 4 -10 10 -22 13 -13 3 -33 9 -45 12 -15 5 -23 3 -23 -4z"/>
<path d="M6146 6835 c-4 -10 1 -15 16 -15 17 0 18 2 8 15 -7 8 -14 15 -15 15
-2 0 -5 -7 -9 -15z"/>
<path d="M6770 6830 c0 -13 18 -22 24 -11 3 5 -1 11 -9 15 -8 3 -15 1 -15 -4z"/>
<path d="M6921 6816 c-12 -14 -5 -46 10 -46 5 0 9 14 9 30 0 34 -3 36 -19 16z"/>
<path d="M5780 6805 c7 -9 15 -13 17 -11 7 7 -7 26 -19 26 -6 0 -6 -6 2 -15z"/>
<path d="M6160 6792 c0 -4 6 -14 13 -21 10 -11 9 -13 -5 -8 -11 4 -18 -1 -22
-16 -6 -25 -8 -22 26 -31 26 -6 27 -5 22 26 -3 18 -7 39 -10 46 -4 13 -24 17
-24 4z"/>
<path d="M6648 6762 c-61 -48 -64 -52 -39 -45 20 5 109 84 94 82 -5 0 -29 -17
-55 -37z"/>
<path d="M5090 6770 c0 -5 7 -7 15 -4 8 4 15 8 15 10 0 2 -7 4 -15 4 -8 0 -15
-4 -15 -10z"/>
<path d="M5865 6750 c3 -5 8 -10 11 -10 2 0 4 5 4 10 0 6 -5 10 -11 10 -5 0
-7 -4 -4 -10z"/>
<path d="M5896 6722 c6 -35 26 -54 47 -47 21 9 13 27 -23 53 l-29 22 5 -28z"/>
<path d="M6158 6669 c17 -14 108 -42 149 -44 56 -4 91 -27 109 -71 14 -33 40
-41 27 -9 -4 11 -1 13 11 9 12 -5 16 0 16 23 0 36 -17 58 -50 67 -59 17 -277
38 -262 25z"/>
<path d="M7796 6628 c-5 -15 -22 -91 -31 -130 -4 -21 -2 -28 10 -28 9 0 14 4
10 9 -3 5 6 18 19 28 19 15 22 23 14 37 -6 10 -8 36 -5 57 5 36 -9 56 -17 27z"/>
<path d="M6517 6605 c-17 -16 -11 -58 7 -52 6 2 11 9 11 15 0 5 3 14 8 18 10
10 9 34 -2 34 -5 0 -16 -7 -24 -15z"/>
<path d="M7318 6579 c-10 -5 -18 -14 -18 -20 0 -11 -10 -24 -62 -80 -42 -44
-48 -47 -41 -20 4 16 -3 22 -39 31 -23 7 -56 16 -71 21 -34 10 -48 -12 -23
-40 9 -10 16 -22 16 -28 0 -6 6 -16 14 -22 8 -7 12 -20 9 -30 -6 -22 31 -35
57 -21 10 5 19 8 21 7 3 -1 1 2 -3 8 -5 5 -8 15 -8 23 0 12 14 14 70 10 39 -3
70 -1 70 3 0 5 4 8 9 7 12 -4 58 47 66 73 5 16 4 19 -5 14 -10 -6 -12 -1 -7
23 6 31 -6 44 -17 20 -3 -7 -3 -3 0 10 6 24 -9 29 -38 11z"/>
<path d="M6480 6490 c0 -5 5 -10 10 -10 6 0 10 5 10 10 0 6 -4 10 -10 10 -5 0
-10 -4 -10 -10z"/>
<path d="M7750 6428 c0 -9 -6 -18 -13 -21 -7 -3 -19 -25 -26 -48 -7 -24 -18
-50 -23 -56 -7 -9 -5 -20 6 -38 15 -23 14 -29 -5 -27 -8 1 -5 -46 3 -68 4 -8
9 -23 12 -32 9 -31 36 -21 36 12 0 21 -5 30 -17 30 -23 0 -12 9 18 13 21 4 24
9 22 46 -1 23 3 41 9 41 7 0 6 5 -2 15 -6 8 -9 19 -5 25 3 5 2 10 -4 10 -11 0
-7 19 12 58 8 18 7 26 -6 39 -15 16 -17 16 -17 1z"/>
<path d="M7815 6410 c3 -5 8 -10 11 -10 2 0 4 5 4 10 0 6 -5 10 -11 10 -5 0
-7 -4 -4 -10z"/>
<path d="M6989 6393 c-2 -32 3 -48 17 -56 8 -4 14 -15 14 -22 0 -19 53 -20 68
-2 13 16 5 57 -12 57 -6 0 -22 9 -36 20 -31 24 -50 25 -51 3z"/>
<path d="M7383 6403 c-7 -2 -13 -11 -13 -19 0 -7 -11 -21 -24 -30 -16 -10 -23
-21 -19 -31 5 -12 2 -15 -10 -10 -11 4 -17 1 -17 -7 0 -16 -38 -42 -73 -51
-28 -7 -46 10 -28 28 19 19 12 27 -20 27 -25 0 -29 3 -20 14 6 7 22 11 36 8
14 -2 25 0 25 6 0 5 -11 12 -25 14 -39 8 -87 -57 -56 -76 5 -3 7 -15 4 -25 -3
-13 2 -21 17 -26 12 -4 24 -5 27 -2 3 3 24 0 46 -7 56 -16 80 -11 71 16 -3 12
-2 18 3 15 15 -10 52 48 46 71 -4 16 0 21 19 24 19 2 23 9 23 36 1 17 1 32 0
31 0 0 -6 -3 -12 -6z"/>
<path d="M6747 6314 c3 -8 0 -14 -6 -14 -6 0 -11 -7 -11 -15 0 -11 7 -14 24
-9 13 3 35 0 48 -7 12 -7 25 -13 28 -14 3 0 25 -9 48 -19 36 -16 44 -17 55 -5
7 7 8 11 3 7 -12 -10 -46 10 -46 27 0 15 -12 19 -39 15 -7 -1 -23 8 -35 19
-26 25 -77 36 -69 15z"/>
<path d="M6687 6269 c7 -7 15 -10 18 -7 3 3 -2 9 -12 12 -14 6 -15 5 -6 -5z"/>
<path d="M7182 6211 c-8 -5 -12 -17 -10 -26 5 -29 21 -23 22 8 1 15 2 27 1 27
0 0 -6 -4 -13 -9z"/>
<path d="M6966 6196 c8 -21 28 -25 48 -11 20 15 13 21 -26 23 -20 1 -26 -2
-22 -12z"/>
<path d="M7047 6159 c-17 -10 -23 -29 -9 -29 5 0 16 6 27 13 22 17 7 29 -18
16z"/>
<path d="M7660 6164 c0 -5 7 -19 15 -30 8 -10 15 -14 15 -8 0 5 -7 19 -15 30
-8 10 -15 14 -15 8z"/>
<path d="M7165 6140 c-4 -6 -1 -18 6 -26 6 -8 9 -17 6 -21 -4 -3 -2 -14 4 -24
13 -24 4 -24 -23 1 -12 10 -25 17 -30 14 -4 -3 -8 4 -8 15 0 23 -24 28 -50 11
-12 -8 -8 -16 24 -45 22 -19 33 -35 25 -35 -10 0 -8 -6 7 -18 12 -9 24 -25 27
-34 4 -10 13 -18 22 -18 10 0 15 -11 16 -32 2 -37 7 -111 11 -145 1 -13 9 -23
18 -23 13 -1 13 -2 0 -13 -16 -13 -19 -65 -4 -88 13 -20 20 -156 9 -167 -2 -3
2 -14 10 -26 8 -11 15 -33 15 -48 0 -15 5 -30 10 -33 8 -5 8 -11 1 -19 -7 -9
-6 -19 5 -35 13 -19 14 -28 5 -49 -7 -14 -14 -75 -16 -135 -3 -61 -7 -112 -10
-115 -3 -3 2 -13 11 -23 14 -15 14 -18 -3 -30 -12 -9 -19 -27 -19 -52 -1 -22
-6 -42 -12 -46 -6 -3 -14 -20 -18 -36 -3 -17 -20 -43 -35 -59 -16 -15 -29 -34
-29 -41 0 -7 -6 -15 -12 -18 -10 -3 -10 -7 -2 -18 8 -9 9 -22 3 -37 -7 -19
-12 -21 -28 -13 -21 12 -32 5 -24 -15 3 -8 1 -14 -3 -14 -5 0 -9 -19 -9 -43 0
-31 4 -42 15 -42 15 0 16 7 5 38 -5 13 -2 17 14 17 16 0 21 -6 21 -24 0 -14 5
-28 11 -31 15 -10 -21 -34 -50 -35 -14 0 -21 -5 -18 -12 3 -7 8 -21 12 -30 5
-11 3 -18 -5 -18 -7 0 -10 -8 -7 -19 2 -10 0 -27 -6 -37 -11 -19 -17 -45 -18
-76 0 -10 -4 -20 -10 -23 -17 -11 -10 -38 8 -31 13 5 12 1 -5 -17 -15 -16 -24
-40 -27 -68 -1 -24 -5 -51 -8 -59 -13 -33 -15 -80 -4 -80 6 0 1 -10 -11 -23
-17 -18 -19 -26 -9 -36 9 -10 8 -14 -5 -22 -10 -6 -18 -14 -18 -19 0 -11 35
-8 46 3 4 4 14 7 23 7 14 0 14 -2 1 -10 -12 -7 -12 -12 -3 -21 15 -15 19 -5
27 68 3 30 1 55 -5 59 -6 4 -6 11 2 20 6 8 8 14 4 14 -4 0 0 11 9 25 20 30 20
45 1 45 -8 0 -15 5 -15 11 0 6 6 9 14 6 8 -3 17 1 20 9 8 22 7 26 -4 19 -15
-9 -12 -1 15 51 28 52 32 80 13 87 -8 4 -7 6 3 6 17 1 34 41 21 51 -7 5 -8 36
-2 53 1 4 3 10 4 15 8 33 20 52 32 52 8 0 20 15 28 33 25 61 49 132 49 151 1
11 14 32 30 48 24 22 30 38 34 80 11 149 13 177 19 218 7 48 7 57 1 108 -3 28
-1 32 15 26 19 -6 19 -5 4 19 -9 13 -15 39 -14 58 2 25 -1 33 -11 31 -9 -2
-11 3 -7 13 3 9 0 18 -9 21 -17 7 -8 34 11 34 18 0 18 24 0 39 -18 15 -28 53
-13 48 7 -2 12 -12 12 -22 0 -10 6 -20 13 -23 7 -2 10 2 6 12 -3 9 -1 16 5 16
6 0 11 -5 11 -11 0 -5 4 -8 9 -5 4 3 6 17 3 32 -3 18 0 30 12 36 14 8 15 12 4
26 -11 13 -11 15 5 9 20 -8 21 -6 5 27 -12 27 -11 30 43 137 10 19 16 44 13
56 -4 13 0 22 10 26 9 4 16 13 16 21 0 8 6 19 13 23 15 10 34 39 48 76 6 15
18 27 27 27 13 0 13 3 -2 19 -17 19 -18 19 -42 -2 -13 -11 -24 -28 -24 -36 0
-9 -13 -28 -29 -43 -15 -15 -34 -40 -41 -57 -7 -18 -17 -28 -25 -25 -7 3 -19
-5 -26 -18 -6 -13 -17 -26 -23 -30 -6 -4 -15 -21 -21 -37 -12 -35 -30 -37 -30
-3 1 15 -4 21 -12 17 -7 -3 -20 -8 -28 -11 -15 -6 -21 7 -8 20 4 4 8 38 9 76
1 48 7 74 18 85 9 9 16 22 16 28 0 7 -5 4 -11 -5 -5 -10 -17 -18 -26 -18 -14
0 -14 2 2 20 18 19 17 20 -3 20 -28 0 -39 20 -19 35 9 7 14 15 10 18 -3 4 -1
7 5 7 7 0 12 -5 12 -11 0 -5 5 -7 11 -3 8 5 6 10 -5 16 -9 5 -16 14 -16 19 0
6 5 7 11 3 8 -5 8 -1 0 13 -6 11 -8 23 -4 26 3 3 -2 13 -11 22 -18 18 -21 41
-6 50 6 3 5 15 -2 30 -12 26 -51 35 -63 15z m-15 -1500 c0 -5 -5 -10 -11 -10
-5 0 -7 5 -4 10 3 6 8 10 11 10 2 0 4 -4 4 -10z m30 -90 c0 -5 -2 -10 -4 -10
-3 0 -8 5 -11 10 -3 6 -1 10 4 10 6 0 11 -4 11 -10z m-73 -72 c-3 -8 -6 -5 -6
6 -1 11 2 17 5 13 3 -3 4 -12 1 -19z"/>
<path d="M7630 6111 c0 -4 -13 -27 -29 -52 -32 -49 -45 -97 -32 -118 9 -14 35
-6 26 9 -3 5 3 11 14 15 26 8 63 88 55 119 -5 23 -34 45 -34 27z m10 -95 c0
-2 -7 -6 -15 -10 -8 -3 -15 -1 -15 4 0 6 7 10 15 10 8 0 15 -2 15 -4z"/>
<path d="M7360 5156 c0 -2 8 -10 18 -17 15 -13 16 -12 3 4 -13 16 -21 21 -21
13z"/>
<path d="M6081 5108 c2 -2 18 -14 34 -28 l30 -25 -24 28 c-14 15 -29 27 -34
27 -6 0 -8 -1 -6 -2z"/>
<path d="M6331 4896 c2 -2 15 -9 29 -15 24 -11 24 -11 6 3 -16 13 -49 24 -35
12z"/>
<path d="M4643 4843 c-7 -2 -13 -9 -13 -14 0 -5 -7 -21 -17 -35 -12 -19 -18
-22 -25 -12 -6 11 -10 10 -17 -2 -11 -16 -4 -33 9 -25 5 3 11 1 15 -5 3 -5 0
-10 -8 -10 -17 0 -79 -55 -71 -63 4 -4 -4 -11 -17 -16 -13 -5 -34 -21 -46 -35
-13 -14 -28 -26 -33 -26 -6 0 -20 -9 -32 -20 -12 -11 -30 -20 -40 -20 -10 0
-18 -4 -18 -10 0 -12 7 -12 35 -1 11 5 30 5 42 0 17 -6 21 -5 17 6 -4 10 0 13
16 10 12 -2 44 6 71 18 38 18 46 26 37 35 -9 9 -9 12 3 13 7 1 18 1 23 0 14
-3 26 23 14 30 -6 4 -8 15 -3 25 6 15 8 16 13 4 6 -16 45 -50 51 -44 2 2 -7
13 -20 24 -19 16 -21 21 -10 29 8 5 12 18 9 28 -5 18 0 19 43 17 27 -1 49 2
49 7 0 6 5 7 10 4 6 -4 8 -15 5 -26 -7 -21 7 -30 50 -33 14 0 25 -7 25 -13 0
-16 12 -17 27 -2 15 15 33 3 33 -22 0 -12 5 -19 13 -16 6 2 22 0 35 -4 12 -5
22 -6 22 -3 0 11 -48 53 -54 47 -3 -4 -6 -1 -6 6 0 12 14 10 58 -7 12 -4 12
-1 1 15 -7 13 -19 18 -31 15 -10 -2 -18 1 -18 7 0 7 6 9 13 6 6 -4 1 3 -12 14
-12 12 -27 18 -32 15 -5 -3 -9 2 -9 10 0 10 -9 16 -24 16 -13 0 -26 6 -29 14
-3 8 -25 20 -49 27 -24 7 -47 16 -52 21 -11 9 -34 9 -53 1z m27 -13 c0 -5 -5
-10 -11 -10 -5 0 -7 5 -4 10 3 6 8 10 11 10 2 0 4 -4 4 -10z m60 -40 c-14 -11
-29 -19 -35 -19 -5 0 -4 3 3 6 6 2 12 11 12 19 0 8 10 14 23 14 l22 0 -25 -20z
m120 -74 c0 -2 -7 -9 -15 -16 -13 -11 -14 -10 -9 4 5 14 24 23 24 12z"/>
<path d="M3603 4675 c-32 -22 -52 -69 -40 -90 7 -12 5 -20 -4 -26 -11 -6 -11
-11 -2 -20 13 -13 33 -4 33 17 0 8 16 28 35 45 37 33 46 72 19 83 -20 8 -16 8
-41 -9z"/>
<path d="M4958 4668 c-6 -16 16 -60 25 -52 4 4 13 1 22 -6 10 -8 15 -9 15 -1
0 6 -4 11 -9 11 -5 0 -14 14 -20 30 -10 31 -26 39 -33 18z"/>
<path d="M3500 4655 c-7 -9 -10 -18 -6 -22 3 -3 6 -1 6 5 0 7 6 12 14 12 8 0
18 5 21 10 10 16 -21 11 -35 -5z"/>
<path d="M9104 4645 c-10 -8 -14 -15 -8 -15 5 0 19 7 30 15 10 8 14 15 8 15
-5 0 -19 -7 -30 -15z"/>
<path d="M3463 4613 c4 -3 0 -17 -9 -31 -8 -13 -13 -26 -10 -29 3 -3 1 -15 -5
-27 -10 -20 -10 -20 5 -2 9 11 16 24 16 29 0 4 7 15 15 23 15 15 10 44 -8 44
-6 0 -7 -3 -4 -7z"/>
<path d="M5056 4571 c-16 -29 -7 -51 21 -51 7 0 13 -4 13 -10 0 -5 6 -10 14
-10 8 0 16 -5 18 -11 2 -7 12 -7 31 0 16 6 25 16 22 22 -4 6 -14 8 -22 5 -10
-4 -13 0 -11 17 2 12 9 21 17 19 12 -3 12 0 1 13 -12 14 -14 14 -31 0 -16 -15
-18 -15 -23 3 -11 33 -34 34 -50 3z"/>
<path d="M4279 4517 c-9 -7 -16 -24 -15 -37 1 -14 -4 -29 -11 -35 -7 -5 -15
-25 -17 -43 -2 -18 -12 -39 -22 -47 -25 -18 -8 -49 28 -53 23 -3 26 1 33 40 4
24 9 50 11 58 12 52 13 89 4 95 -8 5 -7 11 1 21 14 17 9 18 -12 1z"/>
<path d="M4338 4523 c-10 -2 -18 -9 -18 -14 0 -15 43 -7 48 9 4 12 0 13 -30 5z"/>
<path d="M3525 4490 c-20 -23 -15 -36 11 -26 9 4 14 9 11 13 -4 3 -2 12 4 20
18 21 -6 15 -26 -7z"/>
<path d="M4217 4494 c-13 -13 -7 -23 13 -21 11 1 19 6 17 11 -4 13 -21 18 -30
10z"/>
<path d="M5227 4479 c-9 -5 -21 -8 -26 -5 -5 3 -12 -1 -15 -10 -4 -9 -2 -13 5
-8 6 4 15 1 19 -6 6 -9 14 -8 34 5 42 28 27 49 -17 24z"/>
<path d="M7143 4475 c0 -8 4 -15 9 -15 4 0 8 4 8 9 0 6 -4 12 -8 15 -5 3 -9
-1 -9 -9z"/>
<path d="M9135 4480 c-3 -5 -1 -10 4 -10 6 0 11 5 11 10 0 6 -2 10 -4 10 -3 0
-8 -4 -11 -10z"/>
<path d="M3361 4420 c-21 -33 -42 -75 -45 -94 -7 -34 -30 -54 -41 -35 -4 5
-11 7 -16 4 -5 -4 -9 -1 -9 6 0 8 -15 10 -52 6 -29 -4 -47 -3 -40 1 9 6 4 12
-15 21 -16 8 -40 19 -54 27 -25 13 -69 9 -69 -6 0 -8 25 -25 114 -77 21 -13
49 -23 62 -23 13 0 24 -4 24 -9 0 -5 -15 -5 -32 -1 -26 5 -40 2 -65 -16 -27
-20 -32 -21 -37 -8 -3 9 -4 19 -1 24 7 11 -36 20 -64 13 -22 -6 -23 -4 -17 36
l5 41 -33 0 c-19 0 -36 6 -39 13 -3 8 -10 6 -26 -8 -18 -16 -21 -26 -16 -55
l6 -35 -22 22 c-18 18 -20 25 -10 37 18 22 -6 76 -34 76 -27 0 -55 -48 -45
-75 4 -12 2 -31 -7 -49 -8 -15 -12 -38 -9 -50 8 -32 40 -66 63 -66 11 0 32 -9
46 -20 23 -18 31 -20 67 -10 22 6 40 15 40 20 0 22 29 8 55 -26 15 -19 38 -39
51 -44 14 -6 27 -18 30 -27 15 -48 44 -70 44 -34 0 28 35 28 50 1 6 -11 17
-20 25 -20 20 0 19 -16 -1 -24 -9 -4 -14 -13 -10 -21 3 -8 -3 -23 -13 -32 -11
-10 -22 -34 -26 -54 -7 -37 -52 -99 -72 -99 -6 0 -13 -4 -15 -8 -1 -4 -18 -19
-37 -32 -19 -13 -29 -26 -23 -28 7 -2 12 -10 12 -17 0 -8 6 -18 14 -22 8 -4
15 -17 17 -27 5 -27 58 -40 79 -21 20 18 30 19 67 3 15 -6 38 -10 51 -9 14 2
22 -3 22 -13 0 -9 10 -18 23 -20 108 -21 143 -30 148 -38 11 -17 103 -11 149
11 48 22 80 26 108 13 92 -45 123 -63 147 -88 45 -49 160 -78 207 -53 15 8 18
6 18 -10 0 -14 15 -28 51 -46 28 -14 54 -23 58 -20 5 2 13 -7 20 -21 8 -18 16
-24 30 -19 15 5 18 1 13 -20 -2 -15 0 -25 7 -25 6 0 11 -5 11 -12 0 -6 9 -22
21 -34 18 -20 19 -23 4 -38 -15 -14 -14 -18 9 -41 14 -14 26 -32 26 -40 0 -7
7 -20 15 -28 15 -16 13 -50 -4 -71 -7 -9 -7 -16 0 -23 7 -7 -2 -18 -26 -34
-43 -30 -45 -56 -5 -94 17 -16 30 -33 30 -39 0 -13 51 -66 63 -66 5 0 17 -10
26 -22 17 -21 19 -21 77 -6 33 8 95 14 142 13 71 -2 85 -5 97 -22 18 -26 103
-49 119 -32 8 8 8 13 -1 16 -9 3 -9 10 3 28 13 20 20 22 40 14 33 -12 34 -12
35 9 0 10 3 12 6 5 2 -7 11 -13 19 -13 8 0 14 -4 14 -10 0 -5 -5 -10 -12 -10
-9 0 -9 -3 -1 -11 7 -7 22 -7 52 2 38 11 44 10 71 -9 16 -12 35 -22 42 -22 7
-1 26 -11 41 -24 25 -20 27 -25 17 -51 -7 -19 -8 -31 0 -39 5 -5 10 -20 10
-33 0 -14 6 -23 15 -23 8 0 15 -7 15 -15 0 -8 -7 -15 -15 -15 -8 0 -15 -7 -15
-15 0 -9 -6 -12 -15 -9 -12 5 -15 -2 -15 -28 0 -32 4 -37 54 -61 30 -15 58
-32 61 -38 5 -7 16 -2 31 12 14 13 34 24 47 26 12 2 24 8 25 13 4 12 52 13 52
1 0 -5 14 -11 30 -15 30 -5 30 -6 15 -30 -14 -21 -14 -24 -1 -29 10 -4 13 -13
9 -23 -5 -14 -2 -16 16 -11 21 5 23 3 17 -24 -3 -16 -1 -29 4 -29 6 0 15 -12
20 -26 9 -23 14 -26 43 -20 17 4 65 9 105 11 49 2 79 8 91 19 14 13 23 14 57
4 21 -6 44 -12 49 -13 48 -6 134 -44 154 -69 7 -8 19 -12 26 -10 7 3 19 -4 25
-16 8 -15 17 -19 31 -15 14 5 28 0 44 -15 13 -13 35 -22 49 -22 32 -1 41 -35
21 -76 -11 -21 -13 -37 -6 -53 12 -31 78 -89 95 -83 7 3 25 -5 40 -17 l27 -21
-23 -25 c-13 -14 -22 -32 -20 -41 1 -10 -9 -26 -23 -36 -25 -19 -34 -46 -15
-46 6 0 10 -7 10 -15 0 -8 4 -15 10 -15 5 0 9 -10 8 -22 -2 -30 24 -118 35
-118 5 0 6 -15 2 -33 -4 -23 -3 -28 4 -18 11 17 17 -2 25 -74 6 -52 23 -98 35
-90 5 3 12 1 16 -5 3 -5 2 -10 -3 -10 -17 0 -9 -78 9 -91 13 -9 15 -18 8 -36
-5 -15 -4 -33 3 -50 7 -16 12 -41 13 -58 0 -25 3 -30 23 -27 20 3 22 0 16 -24
-5 -21 -4 -25 6 -19 10 6 11 2 6 -18 -4 -19 1 -33 20 -56 22 -26 23 -32 10
-37 -14 -5 -14 -10 -1 -41 10 -24 12 -40 5 -48 -7 -8 -4 -17 9 -30 18 -15 25
-16 71 -4 55 14 67 23 70 54 4 40 1 47 -21 40 -18 -6 -20 -4 -14 14 7 23 -21
70 -42 71 -13 0 -17 11 -14 40 1 9 -11 21 -26 27 l-28 11 26 1 c33 1 48 31 24
46 -9 6 -26 18 -37 27 -12 10 -25 18 -30 18 -5 0 -6 15 -3 34 8 42 -1 76 -21
76 -8 0 -12 5 -8 11 3 6 -2 26 -12 45 -16 29 -17 37 -6 55 8 12 9 18 2 14 -7
-5 -9 2 -4 21 5 18 3 25 -4 20 -15 -9 -40 51 -39 92 0 17 4 32 8 32 4 0 4 15
-1 32 -13 51 -20 179 -10 173 5 -3 7 16 4 45 -4 39 -1 50 10 50 8 0 18 -5 21
-11 4 -5 17 -9 30 -7 13 2 33 -6 44 -16 l21 -19 -20 -22 c-15 -16 -19 -29 -14
-49 6 -26 37 -36 49 -16 10 16 25 1 25 -26 0 -13 4 -24 8 -24 5 0 17 -8 28
-18 14 -13 19 -32 19 -68 0 -45 3 -50 29 -62 17 -7 33 -9 38 -4 10 10 80 -3
121 -24 15 -7 35 -10 45 -7 12 5 10 -1 -8 -21 -21 -23 -22 -29 -10 -36 22 -14
40 -12 40 5 0 19 34 19 50 0 7 -8 21 -15 31 -15 12 0 19 -7 19 -20 0 -11 -4
-20 -10 -20 -5 0 -10 -6 -10 -14 0 -15 55 -40 79 -37 9 2 12 -3 8 -13 -4 -9
-2 -16 3 -16 6 0 10 9 10 20 0 13 7 20 20 20 11 0 20 -4 20 -10 0 -5 -5 -10
-11 -10 -5 0 -7 -5 -4 -11 4 -6 14 -8 22 -5 11 4 13 1 8 -14 -4 -13 -2 -20 5
-18 28 6 20 -25 -14 -57 -20 -18 -36 -42 -36 -52 0 -14 2 -15 9 -4 12 18 42 6
35 -14 -4 -8 -18 -15 -34 -15 -34 0 -50 -19 -22 -27 13 -3 18 -11 15 -23 -7
-28 22 -40 121 -47 33 -3 70 -11 82 -19 19 -13 22 -13 27 0 8 20 79 15 101 -7
19 -19 28 -21 42 -9 5 5 28 14 51 22 46 14 49 37 5 42 -19 2 -28 10 -30 26 -2
13 -8 20 -14 16 -6 -4 -8 -2 -5 4 10 15 47 3 40 -14 -3 -8 -1 -14 5 -14 18 0
31 25 35 70 3 25 3 39 0 33 -7 -20 -23 -15 -16 5 8 21 43 56 43 42 0 -5 18
-10 41 -10 30 0 46 -6 59 -22 l18 -23 7 28 c9 34 28 35 49 2 19 -28 44 -33 53
-9 3 8 12 13 19 10 8 -3 14 -1 14 5 0 6 9 5 22 -2 38 -21 128 -16 168 9 21 13
43 19 57 16 17 -5 23 -2 23 10 0 10 6 13 15 10 17 -7 21 11 5 21 -6 4 -7 11
-4 17 5 8 -1 9 -16 5 -13 -3 -30 -1 -37 5 -9 8 -13 7 -13 -2 0 -7 -7 -10 -15
-6 -9 3 -15 0 -15 -9 0 -8 -4 -15 -10 -15 -5 0 -10 9 -10 19 0 20 -18 31 -51
31 -13 0 -19 7 -19 21 0 16 -4 19 -17 15 -9 -4 -39 4 -67 17 -73 35 -144 51
-162 36 -10 -8 -14 -8 -14 0 0 6 -7 11 -16 11 -12 0 -15 6 -10 26 7 25 6 26
-32 22 -36 -3 -40 -1 -37 19 2 20 -2 23 -32 23 -21 0 -33 -5 -32 -12 3 -18
-11 -48 -22 -48 -5 0 -9 16 -9 35 0 24 5 35 15 35 8 0 15 5 15 10 0 6 -4 10
-10 10 -5 0 -10 8 -11 18 0 14 -2 14 -9 -3 -7 -16 -9 -17 -9 -3 -1 9 -6 18
-12 20 -13 4 9 58 24 58 5 0 4 6 -2 14 -8 9 -8 16 -2 20 10 6 -2 26 -40 65
-29 30 -40 73 -31 126 14 78 2 155 -23 155 -14 0 -27 25 -18 34 4 3 15 -1 25
-11 17 -15 18 -13 18 58 0 41 7 93 15 115 10 29 12 64 9 113 -5 64 -4 71 13
71 10 0 26 14 36 31 21 38 22 49 1 49 -10 0 -14 7 -12 23 3 18 -2 23 -30 25
-19 2 -46 -1 -60 -6 -34 -12 -72 2 -79 28 -3 11 -14 20 -24 20 -11 0 -19 4
-19 9 0 10 -80 32 -92 25 -4 -3 -8 -11 -8 -19 0 -7 -6 -15 -14 -18 -8 -3 -12
-15 -9 -30 3 -14 0 -27 -5 -31 -18 -11 10 -57 31 -52 10 2 21 -2 24 -10 5 -13
57 -15 102 -3 18 5 44 -45 44 -83 0 -16 5 -28 11 -28 6 0 0 -7 -12 -16 -12 -8
-20 -20 -16 -25 10 -17 14 -239 4 -239 -6 0 -10 -30 -10 -66 0 -86 -17 -150
-46 -173 -13 -10 -24 -26 -24 -35 0 -9 -4 -16 -9 -16 -13 0 -7 -30 7 -39 6 -3
7 -12 3 -19 -10 -16 -31 8 -46 52 -6 17 -16 30 -23 29 -7 -2 -12 5 -12 15 0
22 -34 52 -60 52 -11 0 -20 4 -20 8 0 18 -112 142 -129 142 -14 0 -15 -27 0
-32 8 -3 7 -9 -3 -19 -17 -16 -13 -39 7 -39 8 0 15 13 17 32 3 32 3 31 43 -33
22 -35 41 -77 42 -92 3 -35 43 -91 43 -61 1 16 5 14 27 -11 15 -16 30 -29 35
-28 13 5 9 -32 -6 -53 -13 -16 -13 -21 0 -35 12 -14 11 -17 -11 -29 -22 -12
-27 -11 -40 6 -14 18 -14 18 -15 0 0 -12 -5 -16 -14 -13 -8 3 -16 1 -18 -5 -7
-20 -28 2 -28 29 0 16 -7 27 -19 30 -11 3 -21 12 -23 21 -3 14 -7 13 -26 -6
-12 -12 -28 -22 -34 -22 -7 1 -4 8 8 18 16 14 19 23 12 41 -6 17 -3 32 11 53
11 19 21 26 25 19 4 -6 12 -11 18 -11 7 0 6 6 -2 15 -7 8 -17 15 -23 15 -6 0
-18 7 -28 16 -22 20 -87 35 -95 23 -9 -14 -24 0 -17 16 8 21 -14 18 -37 -5
-11 -11 -24 -20 -29 -20 -11 0 -24 -31 -15 -39 3 -3 12 3 20 13 15 22 19 20
28 -10 6 -19 3 -21 -21 -16 -16 2 -25 1 -21 -3 9 -9 -20 -34 -39 -35 -18 0
-16 20 3 41 19 21 11 41 -13 32 -13 -5 -15 -2 -9 12 10 28 -28 59 -65 51 -43
-8 -38 25 10 73 32 32 37 42 26 51 -10 8 -14 8 -18 -2 -3 -8 -6 -6 -6 5 -1 10
-5 16 -10 12 -5 -3 -13 -1 -16 5 -4 6 -16 8 -27 4 -16 -5 -19 -2 -16 18 2 17
-1 22 -14 20 -14 -2 -15 2 -8 27 5 17 12 35 15 42 6 8 2 8 -13 0 -12 -6 -24
-16 -27 -21 -3 -6 -11 -10 -16 -10 -6 0 -3 7 5 16 9 8 16 24 16 35 0 18 -1 19
-25 3 -25 -16 -25 -16 -36 16 -8 21 -14 28 -19 19 -5 -7 -6 -18 -3 -25 2 -7
-5 -22 -16 -33 -14 -14 -17 -23 -9 -27 6 -4 20 3 30 16 l18 22 0 -25 c0 -28
-15 -44 -45 -48 -25 -3 -55 10 -55 23 0 15 -49 58 -66 58 -7 0 -14 4 -14 10 0
5 -3 9 -7 8 -17 -3 -43 15 -44 31 0 11 -3 9 -9 -6 -12 -29 -24 -30 -17 -2 5
19 2 21 -44 17 -36 -2 -49 1 -49 10 0 9 7 11 19 7 12 -3 21 0 25 10 3 9 2 13
-3 10 -5 -3 -13 -1 -16 5 -5 8 -11 7 -22 -1 -12 -10 -16 -10 -24 2 -5 8 -9 20
-9 26 0 7 -10 12 -22 10 -16 -1 -22 3 -20 14 3 19 -41 35 -47 17 -2 -6 -10 -2
-20 10 -9 12 -30 22 -51 24 -19 1 -41 10 -48 18 -10 12 -14 12 -19 2 -4 -9
-14 -6 -38 12 -21 16 -40 23 -54 19 -12 -3 -21 -1 -21 6 0 6 -6 11 -14 11 -7
0 -19 7 -26 15 -7 8 -16 13 -20 10 -5 -3 -11 -1 -14 3 -3 5 -37 9 -76 8 -38
-1 -70 2 -70 7 0 4 5 7 11 7 5 0 7 5 3 11 -3 6 -15 8 -26 6 -15 -4 -19 -2 -15
12 2 10 -2 26 -9 36 -8 10 -14 22 -14 27 0 12 34 10 48 -4 9 -9 12 -9 12 0 0
6 16 14 35 18 21 4 35 12 35 21 0 8 5 11 11 7 6 -3 16 0 21 7 7 10 8 8 5 -10
-5 -21 -3 -23 26 -18 35 5 60 -13 51 -37 -6 -16 5 -21 34 -17 8 1 21 -4 30
-12 27 -24 67 -10 98 34 18 27 34 39 50 39 27 0 32 -15 9 -28 -14 -7 -14 -11
0 -38 8 -16 15 -24 15 -17 0 7 7 10 15 7 8 -4 15 -2 15 4 0 5 11 12 24 14 22
5 24 2 22 -39 -1 -28 2 -43 10 -43 7 0 10 9 7 23 -3 16 -2 18 5 9 7 -11 10
-11 15 2 4 9 4 23 1 31 -5 11 2 15 27 16 19 0 28 3 22 6 -15 5 -18 43 -3 43 5
0 12 -16 16 -36 4 -22 10 -31 14 -24 4 7 5 21 2 33 -5 20 -5 20 15 1 11 -10
18 -22 17 -25 -2 -4 3 -13 12 -20 11 -9 17 -10 23 -1 4 6 12 8 20 3 9 -6 5
-12 -18 -22 -17 -8 -31 -20 -31 -26 0 -15 -3 -15 38 -4 32 10 47 -4 17 -15
-22 -9 -18 -34 5 -34 13 0 20 7 20 20 0 19 1 19 18 3 10 -10 17 -24 14 -30 -3
-9 6 -13 27 -13 17 0 31 -5 31 -11 0 -5 5 -7 10 -4 6 4 8 12 4 18 -3 7 0 5 8
-4 7 -9 30 -18 52 -22 21 -3 43 -13 50 -22 15 -21 118 -34 114 -14 -2 8 3 13
10 11 8 -1 11 2 8 7 -4 5 0 11 6 14 7 3 -2 11 -20 19 -18 8 -30 17 -26 21 3 3
-7 5 -22 5 -16 0 -33 1 -39 3 -5 2 -20 0 -32 -5 -16 -5 -28 -1 -42 13 -12 12
-30 21 -40 21 -11 0 -23 5 -26 10 -4 6 -23 17 -43 26 -29 12 -34 17 -22 24 13
8 13 11 1 19 -11 7 -11 9 0 13 11 4 12 9 2 26 -7 12 -8 22 -3 24 6 2 6 17 0
39 -14 49 -55 69 -133 64 -33 -2 -61 -6 -65 -9 -10 -11 -22 -6 -22 9 0 21 -20
19 -21 -2 0 -10 -3 -13 -5 -7 -3 6 -21 10 -42 8 -26 -2 -42 3 -55 17 -11 12
-26 18 -34 14 -9 -3 -25 1 -37 8 -21 14 -53 16 -72 5 -13 -8 -29 2 -37 25 -4
9 -12 16 -19 15 -7 -2 -12 2 -11 7 1 6 -19 24 -43 40 -39 26 -44 33 -38 58 4
20 2 27 -10 27 -9 0 -16 8 -16 20 0 12 -5 17 -14 14 -20 -8 -26 19 -15 61 6
21 8 48 5 61 -6 22 -11 23 -73 22 -43 -1 -68 3 -71 10 -2 7 -12 12 -23 12 -10
0 -19 4 -19 9 0 5 -7 17 -16 25 -12 13 -32 15 -95 11 -68 -3 -80 -2 -75 11 3
8 -1 14 -9 14 -8 0 -15 -4 -15 -10 0 -5 -7 -10 -15 -10 -8 0 -15 5 -15 10 0 6
6 10 14 10 27 0 28 21 2 45 -23 21 -29 22 -62 12 -23 -7 -40 -20 -46 -36 -6
-15 -12 -21 -15 -13 -3 6 -11 12 -19 12 -8 0 -14 6 -14 13 0 6 -12 18 -28 24
-32 15 -78 81 -48 70 10 -4 15 -3 11 3 -3 6 -1 10 5 10 6 0 8 5 5 10 -3 6 -17
10 -31 10 -14 0 -22 -4 -19 -10 3 -5 -1 -10 -11 -10 -14 0 -16 7 -11 36 5 28
3 33 -7 25 -16 -13 -36 5 -36 31 0 15 -8 18 -37 18 -37 0 -185 6 -211 9 -7 0
-21 19 -31 41 -24 53 -48 71 -80 59 -16 -7 -7 6 28 37 50 45 65 74 37 74 -8 0
-17 -4 -21 -10 -3 -5 -11 -7 -19 -4 -7 3 -25 0 -39 -5 -19 -7 -27 -7 -27 0 0
7 -10 9 -24 5 -14 -3 -27 -2 -30 3 -7 10 -51 8 -78 -4 -13 -5 -20 -1 -28 19
-10 28 -21 32 -51 16 -16 -9 -21 -7 -28 12 -11 28 -6 35 14 18 14 -11 -26 72
-46 97 -10 11 -8 50 2 68 4 6 9 26 13 47 6 33 4 38 -28 57 -41 26 -53 51 -31
67 20 15 8 23 -25 17 -14 -3 -46 -4 -72 -3 -27 0 -48 -3 -48 -8 0 -5 18 -22
40 -37 44 -30 45 -33 9 -40 -30 -6 -53 -38 -53 -76 -1 -33 -19 -40 -24 -9 -4
22 -23 23 -30 0 -3 -7 0 -10 7 -6 6 4 11 2 11 -5 0 -15 -89 -6 -122 12 -22 12
-22 13 16 22 26 7 45 6 56 -1 21 -13 50 3 50 28 0 10 4 21 9 24 12 8 19 49 11
71 -5 16 -9 13 -28 -16 -35 -58 -65 -79 -123 -88 -49 -8 -56 -7 -79 13 -31 28
-53 37 -105 42 -42 4 -65 24 -65 58 0 10 -3 17 -6 14 -9 -9 -59 7 -59 19 0 15
-63 83 -76 83 -5 0 -38 -18 -72 -40 -34 -22 -63 -36 -65 -30 -2 5 -8 10 -14
10 -20 0 -42 32 -32 47 10 17 60 26 78 16 6 -4 21 -8 33 -9 29 -3 48 25 57 84
5 37 4 42 -13 42 -20 0 -51 53 -51 89 0 12 -4 21 -9 21 -5 0 -11 13 -13 29 -3
18 0 27 7 25 9 -4 55 125 55 157 0 24 -33 2 -36 -24 -1 -16 -11 -35 -20 -41
-9 -7 -14 -18 -10 -24 4 -7 1 -12 -7 -12 -7 0 -14 -6 -15 -12 -2 -7 -4 -26 -6
-43 -2 -16 -5 -30 -6 -30 -1 0 -4 -11 -5 -25 -2 -14 -6 -34 -10 -46 -4 -14 1
-30 19 -51 32 -38 32 -41 4 -52 -16 -6 -30 -3 -45 7 -21 13 -23 13 -23 -2 0
-21 -13 -20 -33 2 -25 27 -21 34 16 28 17 -3 26 -3 20 0 -7 3 -13 11 -13 17 0
12 -38 41 -54 42 -5 0 -11 6 -13 12 -3 8 11 15 36 19 23 4 45 12 49 18 4 6 8
43 9 81 3 96 9 125 28 139 16 12 12 46 -6 46 -5 0 -27 -27 -48 -60z m-231
-225 c0 -9 11 -21 25 -27 14 -6 25 -15 25 -20 0 -5 5 -6 10 -3 6 3 10 -1 10
-9 0 -22 -23 -20 -45 4 -10 11 -24 20 -31 20 -17 0 -25 15 -18 34 8 20 24 21
24 1z m70 5 c0 -5 -7 -10 -16 -10 -8 0 -12 5 -9 10 3 6 10 10 16 10 5 0 9 -4
9 -10z m75 -110 c20 -11 40 -18 46 -15 5 4 9 2 9 -2 0 -5 -10 -14 -22 -22 -20
-12 -24 -11 -45 13 -12 15 -33 31 -45 36 l-23 9 22 0 c12 1 39 -8 58 -19z m89
-96 c3 -8 2 -12 -4 -9 -6 3 -10 10 -10 16 0 14 7 11 14 -7z m149 -111 c-3 -21
-10 -40 -16 -42 -5 -2 -24 -16 -42 -32 -34 -30 -51 -29 -35 2 9 16 7 18 -19
16 -19 -1 -32 -9 -35 -19 -6 -25 -26 -23 -26 2 0 11 6 20 14 20 8 0 28 16 44
36 18 22 43 39 63 44 57 13 58 13 52 -27z m-3 -73 c0 -11 5 -20 10 -20 6 0 10
-7 10 -15 0 -10 -10 -15 -33 -15 -45 0 -50 7 -25 41 25 34 38 37 38 9z m211
-42 c18 3 178 -55 189 -68 7 -9 41 -22 65 -26 49 -7 113 -31 143 -54 l33 -25
-27 -7 c-17 -4 -33 -3 -42 4 -11 10 -16 8 -23 -5 -13 -23 -33 -22 -26 2 5 22
-11 22 -81 1 -33 -10 -48 -11 -62 -3 -11 8 -21 8 -27 2 -7 -7 -22 -3 -44 10
-19 12 -41 21 -49 21 -25 0 -41 21 -29 36 15 18 4 31 -30 39 -33 7 -66 42 -66
70 0 27 27 37 43 16 7 -9 22 -15 33 -13z m539 -13 c0 -14 -3 -25 -8 -25 -11 0
-32 37 -25 44 15 15 33 4 33 -19z m-694 -107 c4 4 2 -1 -5 -10 -16 -21 -51
-24 -51 -4 0 18 21 26 36 15 6 -5 15 -5 20 -1z m704 -40 c12 -24 28 -46 35
-51 8 -4 16 -20 20 -36 6 -30 65 -101 84 -101 6 0 11 -6 11 -12 1 -7 8 -1 16
15 8 15 18 28 22 28 46 7 65 7 52 -1 -8 -5 -19 -6 -25 -3 -5 3 4 -9 20 -28 17
-19 31 -36 32 -38 1 -2 12 -4 24 -5 27 -1 38 -26 12 -26 -17 -1 -17 -1 1 -15
10 -8 23 -12 27 -9 5 3 9 -1 9 -9 0 -19 22 -27 49 -20 16 4 31 -4 57 -32 26
-28 43 -38 65 -37 16 0 29 -5 29 -11 0 -7 4 -6 10 3 7 12 12 12 29 -4 12 -11
21 -14 21 -8 0 22 26 12 27 -10 3 -29 22 -67 51 -98 13 -14 28 -35 33 -48 8
-20 14 -23 41 -17 l32 7 -26 -23 c-33 -30 -45 -81 -24 -98 27 -23 -17 -48 -78
-46 -28 1 -59 -2 -69 -7 -16 -8 -17 -7 -5 11 17 27 3 38 -21 17 -21 -19 -18
-54 5 -63 8 -3 14 -14 14 -24 0 -11 8 -23 18 -27 24 -10 24 -42 -1 -63 -32
-27 -49 -24 -41 7 5 18 1 29 -12 39 -27 21 -36 18 -29 -7 7 -23 7 -23 -10 -3
-9 11 -14 14 -10 7 9 -18 -26 -28 -36 -10 -8 15 -31 16 -76 2 -18 -5 -25 -1
-32 19 -11 27 -8 78 5 98 4 7 0 17 -10 24 -21 16 -10 48 14 40 9 -3 24 3 33
12 15 18 17 22 17 44 0 5 5 7 11 4 6 -4 8 -13 5 -21 -3 -8 1 -14 8 -14 9 0 12
-8 8 -25 -2 -15 -11 -25 -22 -25 -25 0 -45 -26 -25 -33 8 -4 12 -13 9 -22 -3
-8 -1 -15 4 -15 18 0 25 20 12 35 -15 18 6 31 24 16 16 -14 29 9 20 34 -4 8
-1 15 5 15 7 0 14 -6 17 -14 7 -17 67 -17 84 0 8 8 4 11 -14 9 -20 -3 -26 1
-26 16 0 11 5 17 10 14 6 -4 10 11 10 38 0 47 -22 77 -70 95 -22 8 -27 6 -37
-14 -9 -19 -8 -24 2 -24 7 0 15 5 17 11 3 8 10 5 21 -6 23 -22 18 -27 -39 -35
-36 -6 -47 -4 -51 8 -4 8 2 21 12 28 11 8 13 14 6 14 -7 0 -9 5 -6 10 3 6 -1
10 -10 10 -9 0 -18 12 -22 31 -3 17 -12 33 -20 36 -10 4 -11 9 -2 19 11 13 5
34 -11 34 -5 0 -12 -9 -15 -21 -5 -16 -10 -18 -21 -8 -8 6 -14 18 -14 26 0 7
-6 16 -14 19 -8 3 -12 13 -9 25 6 22 -21 27 -31 7 -4 -7 -4 -3 -2 10 3 14 -1
22 -9 22 -7 0 -15 5 -17 12 -3 7 -12 9 -23 4 -17 -6 -17 -9 -5 -17 11 -7 6 -8
-17 -4 -18 4 -41 1 -54 -5 -16 -9 -23 -9 -29 -1 -3 7 -13 10 -21 8 -8 -2 -4 1
9 7 28 13 28 18 -2 32 -20 9 -26 9 -30 -3 -4 -8 -16 -13 -28 -11 -23 3 -23 24
0 22 6 -1 12 4 12 12 0 8 -7 14 -16 14 -13 0 -14 3 -5 13 6 8 7 17 3 21 -4 4
5 5 21 1 17 -5 27 -3 27 4 0 19 15 12 25 -11 11 -25 36 -31 43 -10 2 6 -3 12
-12 12 -9 0 -15 5 -13 12 1 7 -8 17 -20 22 -12 6 -24 21 -28 33 -3 13 -9 22
-13 20 -10 -3 -52 40 -45 47 3 3 0 12 -6 20 -7 8 -10 20 -6 26 3 5 2 10 -4 10
-5 0 -8 12 -7 28 6 44 8 44 36 -10z m-625 -28 c-3 -5 -11 -10 -16 -10 -6 0 -7
5 -4 10 3 6 11 10 16 10 6 0 7 -4 4 -10z m360 0 c3 -5 1 -10 -4 -10 -6 0 -11
5 -11 10 0 6 2 10 4 10 3 0 8 -4 11 -10z m125 -20 c11 -7 11 -10 2 -10 -7 0
-10 -5 -7 -10 4 -6 -2 -9 -14 -7 -29 4 -38 16 -21 27 19 12 21 12 40 0z m-160
-53 c0 -5 7 -6 16 -3 9 3 30 -4 47 -16 l31 -22 -34 -7 c-40 -9 -57 -3 -65 21
-3 10 -16 20 -28 22 -27 4 -35 35 -10 40 17 5 43 -16 43 -35z m235 -11 c12
-12 12 -16 1 -25 -11 -9 -15 -7 -19 10 -4 14 -11 20 -21 16 -9 -4 -16 -2 -16
3 0 15 40 12 55 -4z m-71 -35 c3 -5 -1 -14 -9 -21 -8 -7 -15 -10 -15 -7 0 3
-3 12 -6 21 -7 17 20 23 30 7z m72 -38 c21 -28 16 -35 -18 -28 -45 10 -51 15
-37 31 16 19 39 18 55 -3z m30 -48 c-11 -8 -25 -15 -30 -15 -6 0 -2 7 8 15 11
8 25 15 30 15 6 0 2 -7 -8 -15z m194 -106 c0 -5 -9 -9 -20 -9 -19 0 -26 11
-14 23 8 8 34 -3 34 -14z m90 -39 c0 -5 -7 -10 -16 -10 -8 0 -12 5 -9 10 3 6
10 10 16 10 5 0 9 -4 9 -10z m-78 -111 c5 -3 0 -12 -9 -21 -15 -12 -22 -13
-40 -3 -13 6 -20 15 -16 18 3 4 -1 7 -9 7 -9 0 -21 6 -27 14 -9 11 -5 17 21
29 31 15 32 14 52 -11 11 -15 24 -30 28 -33z m158 42 c0 -9 -41 -23 -49 -16
-3 4 28 20 47 24 1 1 2 -3 2 -8z m180 -161 c0 -5 -5 -10 -12 -10 -9 0 -9 -3 0
-12 14 -14 16 -28 3 -28 -10 0 -22 40 -15 52 7 11 24 10 24 -2z m270 -20 c0
-5 -5 -10 -11 -10 -5 0 -7 5 -4 10 3 6 8 10 11 10 2 0 4 -4 4 -10z m0 -110
c-20 -13 -43 -13 -35 0 3 6 16 10 28 10 18 0 19 -2 7 -10z m385 0 c3 -5 2 -10
-4 -10 -5 0 -13 5 -16 10 -3 6 -2 10 4 10 5 0 13 -4 16 -10z m-199 -35 c8 -21
12 -46 8 -62 l-7 -27 -29 34 c-33 41 -35 50 -8 50 11 0 20 5 20 10 0 6 -5 10
-11 10 -5 0 -7 5 -4 10 10 16 15 12 31 -25z m-663 9 c10 -10 -14 -62 -31 -67
-9 -3 -25 -8 -35 -12 -16 -7 -16 -5 -6 18 8 17 17 23 30 20 21 -6 27 12 7 20
-10 4 -9 8 2 16 17 12 24 13 33 5z m540 -23 c3 -14 -2 -21 -19 -25 -13 -4 -23
-11 -21 -17 1 -7 -4 -14 -10 -16 -7 -3 -13 1 -13 8 0 7 -13 0 -28 -14 -24 -23
-33 -26 -53 -18 -13 5 -32 19 -43 31 -15 18 -15 24 -5 31 8 5 20 7 27 4 7 -3
23 0 35 7 12 7 32 11 44 9 11 -1 24 3 28 8 11 19 52 13 58 -8z m41 4 c4 -13 2
-14 -14 -5 -23 13 -26 20 -6 20 8 0 16 -7 20 -15z m326 -4 c0 -5 -9 -7 -20 -4
-11 3 -20 7 -20 9 0 2 9 4 20 4 11 0 20 -4 20 -9z m-186 -27 c20 -20 12 -34
-14 -27 -11 3 -20 14 -20 24 0 23 13 24 34 3z m98 -94 c5 0 4 -9 -2 -19 -15
-30 -13 -71 5 -71 19 0 19 -14 0 -30 -22 -19 -8 -30 24 -19 24 9 28 15 25 40
-4 35 14 36 32 1 6 -12 14 -19 17 -15 4 3 7 0 7 -7 0 -10 3 -11 11 -3 6 6 18
9 27 6 9 -4 13 -2 9 4 -9 14 15 23 41 16 25 -6 19 -29 -9 -36 -11 -3 -23 -15
-26 -26 -5 -19 -31 -28 -65 -22 -5 0 -8 -3 -8 -8 0 -15 23 -19 44 -9 14 8 21
6 28 -6 5 -9 16 -16 23 -16 22 0 18 -18 -5 -30 -11 -6 -18 -16 -14 -21 4 -7
-6 -8 -29 -4 -22 4 -45 2 -63 -8 -37 -19 -107 -31 -133 -22 -18 5 -18 8 -6 33
8 14 11 29 7 32 -4 3 -8 13 -8 23 -2 20 26 23 45 5 10 -11 12 -9 9 7 -3 15
-11 20 -36 19 -17 0 -32 4 -32 8 0 4 5 8 11 8 5 0 3 10 -5 22 -21 29 -20 87 1
110 18 20 25 69 10 79 -5 4 -6 12 -2 19 5 8 16 0 33 -24 14 -20 29 -36 34 -36z
m128 56 c0 -3 -4 -8 -10 -11 -5 -3 -10 -1 -10 4 0 6 5 11 10 11 6 0 10 -2 10
-4z m30 -6 c0 -5 -5 -10 -11 -10 -5 0 -7 5 -4 10 3 6 8 10 11 10 2 0 4 -4 4
-10z m-410 -39 c0 -5 9 -11 20 -14 11 -3 20 -11 20 -18 0 -10 -3 -10 -12 -1
-7 7 -22 12 -34 12 -26 0 -40 16 -22 23 20 8 28 8 28 -2z m632 -176 c3 -14 -1
-33 -8 -42 -12 -17 -13 -17 -19 0 -8 20 2 67 14 67 5 0 11 -11 13 -25z m-142
-35 c0 -5 -10 -10 -22 -10 -19 0 -20 2 -8 10 19 13 30 13 30 0z m270 -45 c-1
-29 -60 -68 -60 -40 0 8 5 15 11 15 6 0 9 9 6 20 -4 16 0 19 19 18 13 -1 24
-7 24 -13z m296 -22 c-11 -11 -19 6 -11 24 8 17 8 17 12 0 3 -10 2 -21 -1 -24z
m-26 13 c0 -17 -14 -29 -23 -20 -8 8 3 34 14 34 5 0 9 -6 9 -14z m-645 -76 c3
-6 -4 -10 -17 -10 -18 0 -20 2 -8 10 19 12 18 12 25 0z m1968 -177 c3 -15 1
-35 -3 -43 -4 -8 -7 -35 -5 -60 1 -25 0 -33 -2 -17 -2 15 -11 27 -19 27 -17 0
-12 49 7 61 7 4 9 17 5 33 -3 14 -2 26 3 26 5 0 11 -12 14 -27z m-1320 -104
c-6 -6 -17 -8 -24 -3 -9 5 -8 9 7 14 23 9 31 3 17 -11z m1297 -94 c11 -13 10
-14 -4 -9 -9 3 -16 10 -16 15 0 13 6 11 20 -6z m-880 -96 c0 -18 -2 -19 -15
-9 -15 12 -12 30 6 30 5 0 9 -10 9 -21z m-30 -169 c0 -5 -4 -10 -10 -10 -5 0
-10 5 -10 10 0 6 5 10 10 10 6 0 10 -4 10 -10z m165 -50 c3 -5 2 -10 -4 -10
-5 0 -13 5 -16 10 -3 6 -2 10 4 10 5 0 13 -4 16 -10z m-95 -50 c8 -5 11 -12 7
-16 -4 -4 -15 0 -24 9 -18 18 -8 23 17 7z m850 -41 c0 -6 -4 -7 -10 -4 -5 3
-10 11 -10 16 0 6 5 7 10 4 6 -3 10 -11 10 -16z m50 -9 c0 -5 -4 -10 -10 -10
-5 0 -10 5 -10 10 0 6 5 10 10 10 6 0 10 -4 10 -10z m-23 -45 c-4 -8 -11 -15
-17 -15 -6 0 -6 7 2 20 14 22 24 19 15 -5z m-212 -5 c3 -6 -1 -7 -9 -4 -18 7
-21 14 -7 14 6 0 13 -4 16 -10z m255 -41 c0 -5 -4 -9 -10 -9 -5 0 -10 7 -10
16 0 8 5 12 10 9 6 -3 10 -10 10 -16z m-45 -9 c3 -5 1 -10 -4 -10 -6 0 -11 5
-11 10 0 6 2 10 4 10 3 0 8 -4 11 -10z m-395 -50 c0 -5 -4 -10 -10 -10 -5 0
-10 5 -10 10 0 6 5 10 10 10 6 0 10 -4 10 -10z m198 -12 c-2 -7 5 -12 15 -10
9 2 17 -2 17 -8 0 -7 9 -9 23 -6 12 3 16 3 10 0 -21 -9 -15 -26 6 -19 21 6 71
-3 71 -14 0 -3 -21 -7 -46 -8 -31 -1 -47 3 -51 13 -3 7 -9 11 -15 8 -12 -8
-59 36 -52 47 8 14 24 11 22 -3z m-90 -20 c-2 -9 7 -12 28 -10 27 2 32 -1 36
-22 3 -16 -2 -30 -14 -40 -26 -23 -41 -21 -28 3 12 23 13 31 3 30 -31 -5 -53
3 -53 19 0 10 3 22 7 25 11 11 23 8 21 -5z m303 -49 c12 -6 18 -17 15 -25 -3
-8 -1 -14 4 -14 13 0 13 -37 0 -45 -6 -3 -14 4 -19 17 l-10 23 0 -22 c-1 -25
-22 -31 -39 -10 -10 12 -14 66 -5 80 6 10 31 9 54 -4z m-83 -22 c2 -12 -3 -17
-17 -17 -12 0 -21 6 -21 13 0 31 32 34 38 4z m-56 -64 c2 -11 8 -10 26 8 29
27 50 13 32 -21 -17 -32 6 -55 43 -41 39 15 43 -4 8 -40 -17 -17 -31 -35 -31
-39 0 -5 -7 -7 -15 -4 -10 4 -15 0 -15 -11 0 -14 6 -16 37 -10 l36 7 -17 -27
c-10 -15 -13 -24 -7 -21 6 4 11 2 11 -3 0 -6 0 -14 0 -18 0 -5 -8 -8 -18 -8
-9 -1 -22 -3 -27 -6 -6 -4 -22 -9 -36 -12 -24 -6 -28 -3 -43 36 -9 23 -16 71
-16 105 0 50 -4 66 -20 79 -26 22 -25 32 3 42 27 10 45 4 49 -16z m398 -47 c0
-14 -65 -66 -76 -62 -23 9 -16 25 19 46 30 18 57 26 57 16z m-107 -41 c-3 -17
-30 -17 -37 0 -4 13 -1 16 17 13 12 -2 21 -7 20 -13z m386 -26 c-25 -16 -32
-9 -13 12 12 13 20 16 22 9 3 -7 -2 -16 -9 -21z m-489 -9 c0 -11 -4 -20 -10
-20 -5 0 -10 9 -10 20 0 11 5 20 10 20 6 0 10 -9 10 -20z m77 4 c2 -5 -3 -18
-10 -28 -11 -15 -17 -17 -35 -7 -25 13 -31 47 -7 38 8 -4 17 -2 21 4 7 12 26
7 31 -7z m-98 -128 c10 -11 7 -14 -14 -12 -25 1 -31 7 -18 19 10 11 19 8 32
-7z"/>
<path d="M4436 3361 c-4 -7 -5 -15 -2 -18 9 -9 19 4 14 18 -4 11 -6 11 -12 0z"/>
<path d="M4841 3041 c-11 -7 -9 -13 9 -31 16 -16 25 -19 33 -11 9 9 8 14 -2
20 -7 5 -10 14 -7 20 8 13 -13 14 -33 2z"/>
<path d="M4966 2982 c-3 -6 -1 -14 5 -17 14 -9 20 -2 10 14 -6 8 -11 9 -15 3z"/>
<path d="M7365 1230 c-3 -5 -1 -10 4 -10 6 0 11 5 11 10 0 6 -2 10 -4 10 -3 0
-8 -4 -11 -10z"/>
<path d="M4175 4470 c-3 -6 1 -7 9 -4 18 7 21 14 7 14 -6 0 -13 -4 -16 -10z"/>
<path d="M4096 4455 c7 -16 -11 -21 -20 -6 -3 5 -15 7 -26 4 -11 -3 -17 -9
-14 -14 3 -5 -2 -9 -10 -9 -9 0 -16 7 -16 15 0 18 -12 19 -27 4 -16 -16 -95
-17 -101 -1 -7 22 -29 13 -25 -11 4 -18 0 -23 -16 -23 -12 0 -21 4 -21 9 0 5
-6 4 -14 -2 -8 -6 -18 -11 -22 -10 -18 5 -94 -22 -94 -33 0 -12 83 -2 88 11 1
4 25 4 52 1 29 -4 54 -2 60 4 5 5 20 11 32 13 13 2 25 8 26 13 5 13 52 13 52
0 0 -6 10 -6 28 1 15 6 41 11 57 13 17 1 41 9 55 19 l24 17 -36 0 c-29 0 -36
-3 -32 -15z"/>
<path d="M9100 4450 c0 -5 5 -10 11 -10 5 0 7 5 4 10 -3 6 -8 10 -11 10 -2 0
-4 -4 -4 -10z"/>
<path d="M5253 4443 c-14 -3 -20 -9 -16 -19 4 -10 -3 -14 -23 -16 -86 -5 -121
-2 -135 9 -8 7 -29 16 -47 19 -28 6 -33 3 -44 -22 -7 -15 -23 -38 -35 -51 -32
-31 -29 -48 5 -25 45 32 105 46 142 33 18 -6 36 -8 41 -6 4 3 24 -1 44 -9 51
-22 92 -11 100 25 7 32 25 40 25 12 1 -22 38 -68 48 -59 25 26 -3 111 -33 100
-7 -3 -16 -1 -20 5 -6 11 -13 12 -52 4z"/>
<path d="M2935 4410 c-16 -11 -28 -20 -25 -21 9 -1 84 -1 98 0 6 0 12 6 12 12
0 7 -9 9 -22 6 -22 -6 -22 -6 -4 8 19 15 19 15 -5 15 -13 0 -37 -9 -54 -20z"/>
<path d="M3605 4404 c-32 -11 -40 -19 -40 -39 0 -20 5 -25 20 -23 12 2 21 12
23 26 4 26 27 29 40 6 6 -11 11 -13 16 -5 4 6 3 11 -2 11 -6 0 -8 9 -5 20 6
23 2 23 -52 4z"/>
<path d="M5401 4371 c-8 -5 -11 -16 -6 -30 7 -24 25 -27 44 -8 11 10 13 8 8
-12 -3 -14 -1 -31 5 -38 9 -11 14 -11 28 2 19 17 16 55 -4 55 -6 0 -18 9 -26
20 -16 22 -28 24 -49 11z"/>
<path d="M4883 4323 c-7 -2 -13 -10 -13 -16 0 -8 3 -8 11 0 6 6 18 9 25 6 8
-3 14 0 14 6 0 11 -16 13 -37 4z"/>
<path d="M5531 4293 c-6 -10 -11 -14 -11 -10 0 13 -30 -20 -30 -33 0 -6 8 -4
17 6 17 16 18 16 23 -5 3 -12 8 -22 13 -22 4 1 19 1 35 1 19 0 23 3 13 9 -11
7 -10 10 3 18 15 8 15 11 -2 31 -23 27 -47 28 -61 5z"/>
<path d="M8554 4278 c-4 -6 -2 -14 4 -16 7 -2 10 -7 8 -11 -6 -9 11 -37 19
-30 8 8 -6 69 -16 69 -4 0 -11 -5 -15 -12z"/>
<path d="M5617 4263 c-13 -12 -7 -61 8 -67 8 -3 15 -1 15 4 0 19 32 10 37 -10
5 -19 14 -24 39 -21 5 0 19 -7 30 -17 20 -19 43 -18 56 2 5 8 8 7 8 -1 0 -7 7
-13 16 -13 13 0 14 -3 5 -14 -13 -16 4 -26 45 -26 13 0 24 -4 24 -10 0 -5 -5
-10 -11 -10 -5 0 -7 -5 -4 -10 4 -6 11 -8 16 -4 6 3 21 3 35 0 19 -5 24 -13
24 -36 0 -21 4 -28 14 -24 7 3 16 -2 19 -10 4 -9 13 -16 22 -16 8 0 15 -6 15
-14 0 -22 16 -28 29 -12 9 11 9 16 0 22 -8 5 -9 3 -4 -6 5 -9 4 -11 -3 -6 -7
4 -12 14 -12 21 0 8 -6 12 -14 9 -10 -4 -20 6 -30 30 -8 20 -22 39 -31 42 -12
5 -13 9 -4 20 8 10 8 14 0 14 -6 0 -11 7 -11 15 0 8 -5 15 -11 15 -12 0 -49
38 -49 49 0 8 -65 47 -66 41 0 -3 -8 1 -17 9 -9 7 -38 13 -64 14 -27 0 -54 4
-60 10 -9 6 -13 6 -13 -2 0 -6 -4 -11 -10 -11 -5 0 -10 7 -10 15 0 15 -21 21
-33 8z m98 -63 c-3 -5 -10 -10 -16 -10 -5 0 -9 5 -9 10 0 6 7 10 16 10 8 0 12
-4 9 -10z"/>
<path d="M3480 4249 c0 -5 5 -7 10 -4 6 3 10 8 10 11 0 2 -4 4 -10 4 -5 0 -10
-5 -10 -11z"/>
<path d="M8590 4180 c0 -5 5 -10 11 -10 5 0 7 5 4 10 -3 6 -8 10 -11 10 -2 0
-4 -4 -4 -10z"/>
<path d="M8591 4143 c-1 -25 6 -28 29 -13 13 8 13 10 -2 10 -9 0 -19 6 -21 13
-3 6 -6 2 -6 -10z"/>
<path d="M8627 4050 c-9 -22 -23 -40 -29 -40 -7 0 -26 -16 -41 -35 -21 -26
-24 -35 -12 -35 8 0 15 -7 15 -16 0 -24 29 -42 57 -36 23 4 25 8 19 44 -4 23
-2 47 6 61 12 22 18 97 8 97 -3 0 -13 -18 -23 -40z"/>
<path d="M6775 4059 c-4 -6 -5 -12 -2 -15 2 -3 7 2 10 11 7 17 1 20 -8 4z"/>
<path d="M2751 4044 c0 -11 3 -14 6 -6 3 7 2 16 -1 19 -3 4 -6 -2 -5 -13z"/>
<path d="M2715 4031 c-6 -5 -19 -11 -30 -13 -17 -3 -18 -5 -3 -10 10 -4 23 1
34 13 17 19 16 27 -1 10z"/>
<path d="M7995 4010 c-3 -5 -1 -10 4 -10 6 0 11 5 11 10 0 6 -2 10 -4 10 -3 0
-8 -4 -11 -10z"/>
<path d="M2322 3973 c2 -10 10 -18 18 -18 22 0 18 29 -3 33 -14 3 -18 -1 -15
-15z"/>
<path d="M7992 3978 c-7 -7 -12 -20 -12 -30 0 -10 -5 -18 -11 -18 -6 0 -9 -6
-6 -14 3 -8 1 -17 -6 -20 -7 -2 -4 -5 5 -5 16 -1 40 29 37 46 -1 4 1 16 6 26
9 22 2 30 -13 15z"/>
<path d="M9022 3940 c-8 -14 -23 -20 -49 -20 -48 0 -35 -11 22 -20 34 -5 45
-4 45 7 0 7 3 12 8 11 15 -3 42 15 42 28 0 22 -53 17 -68 -6z"/>
<path d="M6070 3910 c0 -5 4 -10 9 -10 5 0 17 -7 26 -16 9 -9 19 -14 22 -10 7
6 -35 46 -49 46 -4 0 -8 -4 -8 -10z"/>
<path d="M6340 3905 c-7 -8 -19 -15 -26 -15 -8 0 -14 -5 -14 -11 0 -5 -4 -7
-10 -4 -18 11 -31 -5 -20 -26 9 -15 7 -19 -5 -19 -20 0 -28 -21 -17 -49 9 -25
88 -66 97 -50 4 5 1 9 -4 9 -7 0 -7 7 1 20 7 11 20 20 28 20 42 0 75 77 48
111 -19 24 -63 32 -78 14z m-38 -77 c-7 -7 -12 -8 -12 -2 0 14 12 26 19 19 2
-3 -1 -11 -7 -17z"/>
<path d="M6938 3904 c0 -11 -1 -26 0 -34 0 -8 -4 -18 -10 -21 -5 -4 -12 -28
-14 -54 -2 -26 -8 -53 -13 -59 -6 -7 -13 -32 -17 -56 -4 -25 -12 -48 -18 -52
-6 -4 -11 -30 -11 -58 0 -27 -3 -50 -7 -50 -17 0 -7 -30 14 -44 21 -15 21 -16
3 -18 -19 -1 -34 -4 -45 -7 -3 -1 -20 -4 -38 -6 -38 -3 -47 -9 -37 -24 9 -15
52 -14 58 2 4 9 7 9 18 -1 12 -11 11 -15 -4 -23 -14 -8 -16 -14 -7 -24 15 -18
4 -35 -23 -35 -12 -1 -35 -7 -52 -16 l-30 -14 40 5 c39 4 40 4 40 -28 0 -18
-7 -40 -15 -50 -8 -10 -16 -25 -17 -35 -8 -53 -16 -82 -24 -82 -5 0 -9 -8 -9
-17 0 -9 -7 -24 -16 -34 -8 -9 -16 -28 -18 -41 -1 -13 -5 -29 -9 -35 -4 -6 -2
-15 4 -19 8 -5 8 -9 -2 -14 -7 -5 -13 -17 -14 -29 -1 -11 -8 -28 -16 -38 -8
-10 -21 -36 -28 -58 -7 -22 -22 -59 -32 -82 -17 -37 -24 -43 -50 -43 -17 0
-28 -4 -24 -9 3 -6 -3 -14 -12 -20 -14 -8 -15 -13 -5 -19 9 -6 10 -16 4 -32
-5 -13 -5 -42 -1 -64 5 -23 11 -71 14 -107 5 -54 3 -70 -11 -83 -12 -13 -14
-20 -5 -29 6 -6 11 -19 11 -29 0 -24 32 -23 53 0 10 10 17 22 17 26 0 4 9 15
19 24 21 19 38 102 21 102 -5 0 -10 6 -10 14 0 8 -7 16 -15 20 -24 9 -20 73 5
81 20 6 46 43 37 52 -9 9 26 41 39 36 15 -5 29 38 21 62 -4 8 -2 17 4 20 5 4
7 10 4 14 -2 5 2 17 9 27 9 11 11 23 6 29 -6 7 -3 23 5 39 8 16 15 35 15 42 0
23 35 52 52 43 10 -5 15 -3 15 6 0 9 -10 15 -24 15 -28 0 -29 11 -5 33 19 18
19 77 0 77 -5 0 -6 5 -2 11 3 6 17 8 31 4 21 -5 24 -3 18 14 -3 11 -1 22 5 26
6 3 8 10 5 15 -3 5 1 15 9 23 19 19 28 79 13 89 -9 6 -6 13 8 24 11 8 21 23
22 32 1 9 5 27 9 40 6 21 4 22 -21 16 -21 -5 -27 -4 -23 7 3 8 16 14 29 14 21
0 24 4 23 33 -2 22 2 32 13 32 9 0 13 6 9 15 -3 8 1 36 9 61 15 51 11 72 -10
54 -8 -7 -19 -9 -25 -5 -15 9 -1 28 16 21 16 -6 45 33 50 67 2 12 10 48 19 81
12 41 13 62 6 69 -16 16 -13 27 4 21 9 -4 15 0 15 10 0 9 -5 16 -11 16 -6 0
-8 9 -4 20 4 14 2 20 -9 20 -8 0 -21 3 -30 6 -11 4 -17 0 -18 -12z m-87 -587
c-1 -12 -15 -9 -19 4 -3 6 1 10 8 8 6 -3 11 -8 11 -12z m-66 -177 c3 -5 2 -10
-4 -10 -5 0 -13 5 -16 10 -3 6 -2 10 4 10 5 0 13 -4 16 -10z"/>
<path d="M6570 3868 c0 -4 -3 -7 -7 -7 -37 6 -55 -4 -69 -36 -17 -42 -18 -67
-1 -64 6 1 20 -1 30 -6 27 -11 91 27 95 57 2 13 8 28 14 35 5 7 7 17 4 22 -8
12 -66 11 -66 -1z"/>
<path d="M2040 3745 c0 -8 5 -15 10 -15 6 0 10 7 10 15 0 8 -4 15 -10 15 -5 0
-10 -7 -10 -15z"/>
<path d="M6175 3727 c-27 -24 -41 -46 -50 -80 -10 -41 -10 -47 4 -47 25 1 50
24 62 58 8 25 18 33 45 38 41 8 46 35 9 52 -33 15 -26 17 -70 -21z"/>
<path d="M2090 3726 c0 -23 -64 -126 -77 -126 -7 0 -13 -8 -13 -18 0 -20 29
-52 47 -52 10 0 36 50 35 67 -1 4 9 18 20 30 17 18 19 25 9 37 -10 11 -8 17
10 29 13 10 19 22 16 31 -8 20 -47 21 -47 2z"/>
<path d="M8011 3694 c-19 -8 -32 -16 -29 -19 2 -3 22 4 44 15 46 22 35 26 -15
4z"/>
<path d="M6440 3685 c0 -17 2 -18 24 -9 23 9 20 24 -4 24 -11 0 -20 -7 -20
-15z"/>
<path d="M6315 3659 c-11 -17 0 -20 21 -4 17 13 17 14 2 15 -9 0 -20 -5 -23
-11z"/>
<path d="M7783 3658 c-13 -6 -23 -14 -23 -19 0 -4 11 -2 25 4 14 7 25 15 25
20 0 8 1 9 -27 -5z"/>
<path d="M7875 3650 c-16 -4 -43 -15 -60 -24 -38 -20 -52 -20 -64 1 -8 16 -12
16 -52 -2 -69 -30 -86 -44 -104 -81 -9 -19 -20 -32 -25 -29 -11 7 -23 -32 -14
-46 4 -8 3 -9 -4 -5 -7 4 -12 3 -12 -2 0 -6 -10 -12 -22 -16 -13 -3 -30 -19
-40 -35 -21 -38 -59 -63 -100 -65 -27 -1 -33 3 -34 22 -2 27 -2 27 -31 36 -14
5 -23 3 -23 -3 0 -6 -5 -11 -11 -11 -5 0 -8 4 -4 9 3 5 1 12 -5 16 -5 3 -10
-1 -10 -9 0 -13 -5 -12 -32 4 -37 22 -34 21 -103 44 -27 9 -62 16 -77 16 -14
0 -28 5 -30 10 -2 6 -16 12 -32 13 -34 2 -48 -22 -17 -30 12 -3 21 -9 21 -14
0 -5 7 -9 14 -9 8 0 28 -13 43 -29 30 -31 89 -56 98 -41 6 10 35 2 35 -10 0
-4 -22 -16 -49 -28 -44 -18 -48 -23 -44 -46 6 -29 36 -35 62 -12 30 26 59 29
73 7 7 -12 18 -21 25 -21 7 0 13 -4 13 -10 0 -5 4 -10 10 -10 5 0 7 7 3 16 -5
14 -3 14 16 3 21 -14 26 -27 23 -61 -2 -15 6 -17 53 -15 30 1 55 6 55 10 0 5
15 7 33 5 31 -3 32 -5 40 -63 11 -79 -7 -170 -31 -160 -38 16 -49 15 -67 -5
-18 -19 -18 -20 -1 -14 12 5 22 1 28 -10 8 -13 13 -15 24 -5 11 9 14 8 15 -5
3 -35 4 -39 15 -43 7 -2 26 13 43 34 l31 37 27 -20 c15 -12 28 -27 29 -35 2
-34 5 -39 22 -39 11 0 13 3 5 8 -6 4 -13 19 -15 32 -2 14 -6 30 -10 35 -4 6
-3 17 3 25 13 22 11 30 -8 30 -36 1 -53 24 -46 63 4 27 2 37 -7 37 -9 0 -7 6
5 20 15 16 15 20 3 20 -11 0 -14 12 -12 52 1 31 -4 64 -12 81 -26 49 -15 88
33 119 25 17 51 46 64 72 18 37 64 74 99 81 3 0 25 12 50 27 25 14 66 36 93
48 26 12 47 26 47 31 0 10 -3 10 -45 -1z m-601 -365 c-4 -8 -12 -15 -20 -15
-8 0 -14 7 -14 15 0 8 9 15 20 15 13 0 18 -5 14 -15z m276 -305 c0 -5 -2 -10
-4 -10 -3 0 -8 5 -11 10 -3 6 -1 10 4 10 6 0 11 -4 11 -10z"/>
<path d="M6283 3594 c-8 -21 -1 -24 26 -10 l23 13 -21 6 c-14 3 -24 0 -28 -9z"/>
<path d="M7843 3557 c-14 -16 -19 -28 -13 -37 7 -12 10 -11 16 5 4 11 14 28
22 38 22 25 1 20 -25 -6z"/>
<path d="M6275 3550 c-3 -5 -12 -7 -20 -3 -8 3 -15 0 -15 -7 0 -6 5 -8 10 -5
6 3 10 2 10 -3 0 -6 -7 -13 -16 -16 -26 -10 -7 -23 32 -21 32 2 53 17 54 36 0
11 -49 28 -55 19z"/>
<path d="M6647 3505 c-5 -16 -14 -33 -20 -37 -6 -4 -8 -10 -4 -14 14 -14 39
23 35 52 l-3 29 -8 -30z"/>
<path d="M6050 3500 c0 -23 15 -27 23 -6 3 8 -1 17 -9 20 -9 4 -14 -1 -14 -14z"/>
<path d="M7980 3471 c0 -5 -11 -12 -25 -15 -35 -9 -31 -23 5 -18 21 3 30 10
30 23 0 11 -2 19 -5 19 -3 0 -5 -4 -5 -9z"/>
<path d="M6406 3441 c-4 -7 -5 -15 -2 -18 9 -9 19 4 14 18 -4 11 -6 11 -12 0z"/>
<path d="M6166 3422 c-2 -4 -1 -14 5 -22 5 -8 9 -10 9 -5 0 6 5 3 10 -5 8 -13
10 -12 10 3 0 9 5 17 10 17 6 0 10 5 10 10 0 12 -47 14 -54 2z"/>
<path d="M6684 3414 c-18 -15 -18 -15 6 -10 14 3 28 6 33 6 4 0 7 5 7 10 0 15
-24 12 -46 -6z"/>
<path d="M6550 3411 c0 -5 -6 -16 -13 -23 -21 -22 -57 -88 -48 -88 5 0 18 16
30 36 12 20 26 32 32 28 8 -4 9 0 4 15 -4 12 -2 21 4 21 6 0 11 5 11 10 0 6
-4 10 -10 10 -5 0 -10 -4 -10 -9z"/>
<path d="M6000 3401 c0 -5 3 -17 6 -26 6 -15 8 -14 25 1 10 9 16 21 13 25 -7
12 -44 11 -44 0z"/>
<path d="M7805 3375 c-13 -64 -11 -90 8 -89 23 2 22 -22 -1 -28 -11 -3 -29
-27 -42 -54 -13 -27 -30 -58 -39 -68 -10 -13 -11 -17 -2 -11 10 6 12 2 6 -13
-6 -20 -4 -21 22 -11 61 22 90 63 65 92 -14 15 -13 19 3 38 12 12 20 37 20 65
1 26 8 49 15 54 10 6 7 9 -10 12 -16 2 -26 12 -31 28 -5 23 -7 21 -14 -15z"/>
<path d="M6342 3370 c0 -14 2 -19 5 -12 2 6 2 18 0 25 -3 6 -5 1 -5 -13z"/>
<path d="M6390 3373 c0 -10 -7 -27 -15 -37 -8 -11 -15 -26 -15 -35 0 -8 -8
-23 -17 -34 -17 -20 -17 -20 0 -14 11 4 30 10 44 13 16 4 21 9 13 14 -9 5 -9
17 -1 46 14 49 14 64 1 64 -5 0 -10 -8 -10 -17z"/>
<path d="M6445 3331 c-9 -18 -11 -31 -5 -31 11 0 34 50 26 57 -2 3 -12 -9 -21
-26z"/>
<path d="M6248 3343 c7 -3 16 -2 19 1 4 3 -2 6 -13 5 -11 0 -14 -3 -6 -6z"/>
<path d="M6565 3311 c-27 -28 -36 -44 -29 -51 12 -12 44 -3 44 12 0 5 -6 6
-12 2 -7 -4 -4 3 7 17 11 13 22 26 24 29 2 3 1 -5 -3 -16 -5 -17 -2 -22 19
-26 14 -3 25 -1 25 3 0 5 -6 9 -12 9 -7 0 1 11 17 24 35 28 28 45 -8 21 -23
-15 -26 -15 -29 0 -2 12 -13 6 -43 -24z"/>
<path d="M6327 3332 c-18 -4 -21 -34 -3 -32 5 1 12 -4 16 -10 5 -7 9 -2 12 14
6 29 1 34 -25 28z"/>
<path d="M6190 3302 c0 -6 10 -14 23 -18 12 -3 34 -15 49 -25 32 -23 38 -24
38 -4 0 8 -10 21 -23 30 -30 20 -87 31 -87 17z"/>
<path d="M6681 3271 c-8 -5 -9 -11 -3 -15 5 -3 12 1 16 9 6 17 6 18 -13 6z"/>
<path d="M6635 3250 c-3 -5 1 -10 9 -10 9 0 16 5 16 10 0 6 -4 10 -9 10 -6 0
-13 -4 -16 -10z"/>
<path d="M6303 3222 c-9 -15 -21 -18 -72 -14 -71 5 -80 -7 -19 -26 37 -12 45
-11 75 5 18 10 33 25 33 35 0 23 -2 22 -17 0z"/>
<path d="M6530 3210 c-13 -8 -12 -10 3 -10 9 0 17 5 17 10 0 12 -1 12 -20 0z"/>
<path d="M6266 3155 c-32 -16 -53 -31 -48 -33 6 -2 21 4 34 12 47 31 112 4
102 -43 -4 -23 -2 -22 13 7 17 32 17 33 -13 60 l-29 27 -59 -30z"/>
<path d="M6461 3159 c-49 -26 -55 -34 -42 -56 10 -17 10 -17 11 0 0 22 9 22
26 0 7 -10 16 -15 20 -11 4 4 1 14 -6 22 -10 13 -9 18 3 30 8 8 17 12 21 9 3
-4 6 1 6 10 0 10 -1 16 -2 16 -2 -1 -18 -10 -37 -20z"/>
<path d="M5954 3145 c-2 -26 11 -31 35 -16 18 12 7 41 -16 41 -12 0 -18 -8
-19 -25z"/>
<path d="M5120 3140 c0 -5 5 -10 10 -10 6 0 10 5 10 10 0 6 -4 10 -10 10 -5 0
-10 -4 -10 -10z"/>
<path d="M5176 3105 c-3 -8 -1 -15 4 -15 6 0 10 7 10 15 0 8 -2 15 -4 15 -2 0
-6 -7 -10 -15z"/>
<path d="M5881 3087 c-20 -20 -13 -39 12 -31 30 9 31 11 15 28 -12 11 -18 12
-27 3z"/>
<path d="M7692 3084 c-7 -8 -8 -14 -3 -14 10 0 25 19 20 25 -2 1 -10 -3 -17
-11z"/>
<path d="M6520 3080 c0 -6 -8 -10 -19 -10 -14 0 -17 -6 -14 -24 6 -29 29 -41
37 -20 4 9 13 13 24 10 11 -4 22 2 31 17 7 12 10 19 6 15 -5 -4 -13 -4 -19 1
-19 14 -46 21 -46 11z"/>
<path d="M7748 3073 c-9 -2 -19 -11 -22 -19 -4 -11 2 -13 34 -9 32 4 40 2 40
-11 0 -12 3 -14 13 -6 6 5 23 12 37 14 24 3 24 4 5 14 -24 14 -84 23 -107 17z"/>
<path d="M5795 3060 c3 -5 8 -10 11 -10 2 0 4 5 4 10 0 6 -5 10 -11 10 -5 0
-7 -4 -4 -10z"/>
<path d="M6325 3020 c-17 -19 -17 -20 6 -29 32 -12 52 4 38 30 -12 24 -21 24
-44 -1z"/>
<path d="M5815 3020 c3 -5 8 -10 11 -10 2 0 4 5 4 10 0 6 -5 10 -11 10 -5 0
-7 -4 -4 -10z"/>
<path d="M6140 3015 c-46 -15 -50 -50 -6 -50 24 0 31 5 37 29 5 17 7 31 6 32
-1 1 -18 -4 -37 -11z"/>
<path d="M6584 2975 c-12 -8 -24 -11 -28 -8 -3 3 -6 1 -6 -5 0 -30 45 -23 53
9 6 23 7 23 -19 4z"/>
<path d="M5860 2970 c0 -5 4 -10 9 -10 6 0 13 5 16 10 3 6 -1 10 -9 10 -9 0
-16 -4 -16 -10z"/>
<path d="M5900 2953 c0 -12 43 -22 58 -14 9 6 15 11 12 12 -10 3 -70 5 -70 2z"/>
<path d="M6424 2925 c-9 -50 7 -63 38 -32 23 23 28 54 6 41 -6 -4 -17 1 -24
11 -11 15 -13 13 -20 -20z"/>
<path d="M7693 2942 c-18 -3 -23 -10 -23 -32 0 -22 5 -29 28 -32 15 -3 34 -8
43 -12 13 -6 16 -2 12 18 -3 14 -9 26 -14 26 -6 0 -13 8 -17 18 -4 11 -15 16
-29 14z"/>
<path d="M6040 2924 c-13 -15 -6 -17 24 -5 17 6 17 8 3 14 -8 3 -21 -1 -27 -9z"/>
<path d="M7360 2903 c0 -10 8 -25 18 -33 15 -14 19 -13 33 1 21 21 10 43 -23
47 -22 3 -28 -1 -28 -15z"/>
<path d="M7968 2883 c6 -2 18 -2 25 0 6 3 1 5 -13 5 -14 0 -19 -2 -12 -5z"/>
<path d="M7483 2873 c4 -3 0 -17 -8 -30 -13 -20 -13 -23 -1 -23 8 0 22 7 31
16 12 12 13 19 4 30 -6 8 -16 14 -22 14 -6 0 -7 -3 -4 -7z"/>
<path d="M7390 2815 c0 -13 4 -14 20 -5 11 6 20 13 20 15 0 3 -9 5 -20 5 -11
0 -20 -7 -20 -15z"/>
<path d="M6230 2760 c0 -23 0 -23 35 -10 31 12 24 30 -11 30 -17 0 -24 -5 -24
-20z"/>
<path d="M7845 2690 c-3 -5 3 -10 14 -10 12 0 21 5 21 10 0 6 -6 10 -14 10 -8
0 -18 -4 -21 -10z"/>
<path d="M7694 2490 c-12 -5 -25 -14 -29 -20 -4 -6 -25 -22 -47 -36 -33 -21
-42 -23 -49 -12 -7 10 -9 9 -9 -4 0 -11 7 -18 18 -18 10 0 25 -9 35 -21 12
-14 24 -18 39 -13 13 4 24 1 29 -7 8 -11 11 -11 20 4 5 9 18 17 27 17 9 1 28
7 42 15 22 12 23 14 7 21 -10 3 -17 14 -16 23 8 49 -20 70 -67 51z"/>
<path d="M8556 2392 c-9 -2 -16 -8 -16 -13 0 -6 -5 -7 -10 -4 -17 10 -38 -14
-33 -36 4 -12 -2 -27 -14 -39 -15 -13 -19 -26 -15 -46 4 -24 6 -26 12 -9 9 27
21 4 16 -34 -4 -35 -3 -34 -30 -48 -18 -10 -17 -12 12 -27 25 -13 37 -14 53
-5 15 8 24 8 32 0 6 -6 26 -11 44 -11 18 0 33 -4 33 -10 0 -5 -8 -10 -17 -10
-14 0 -13 -3 5 -20 20 -19 21 -23 8 -53 -7 -18 -18 -31 -23 -30 -5 1 -28 4
-52 7 -38 5 -43 3 -53 -22 -7 -19 -12 -23 -16 -12 -3 8 -11 19 -19 23 -16 9
-15 63 0 85 5 6 20 12 34 12 33 0 20 17 -17 22 -25 4 -31 1 -36 -19 -10 -39 6
-153 21 -153 7 0 15 -7 19 -15 3 -9 18 -15 38 -15 31 1 32 1 14 15 -18 14 -17
15 22 15 23 0 42 5 42 10 0 6 -8 10 -17 10 -10 0 -25 5 -33 10 -11 7 -4 10 28
10 40 0 42 -1 42 -29 0 -16 -6 -31 -12 -34 -7 -3 7 -3 32 0 127 12 137 21 141
123 l3 65 -33 -3 c-22 -3 -31 0 -27 7 4 6 20 11 36 11 26 0 29 3 25 30 -5 42
-12 50 -46 50 -38 0 -37 -19 2 -27 35 -7 21 -23 -22 -23 -22 0 -25 -4 -23 -31
2 -35 17 -49 52 -49 26 0 30 -26 7 -56 -8 -10 -15 -30 -15 -44 0 -24 -4 -26
-47 -27 l-48 -1 33 14 c28 12 32 17 22 29 -7 8 -16 13 -20 10 -4 -2 -16 2 -26
10 -23 17 -8 19 49 6 20 -5 37 -5 37 -1 0 5 3 15 6 23 4 12 -6 17 -45 22 -51
7 -64 18 -35 29 10 4 14 15 12 33 -3 24 -9 29 -45 36 -44 8 -47 14 -37 55 9
31 25 28 22 -5 -3 -25 0 -28 26 -26 36 3 42 9 26 28 -8 10 -9 15 -1 15 22 0
11 30 -11 30 -21 1 -21 2 5 16 20 11 27 22 25 37 -2 17 -11 22 -42 24 -51 3
-60 13 -11 13 22 0 46 7 57 17 16 15 18 15 18 0 0 -10 13 -20 33 -26 21 -6 25
-10 12 -10 -21 -1 -45 -18 -45 -33 0 -7 52 -38 65 -38 3 0 5 5 5 10 0 6 -9 10
-19 10 -11 0 -23 5 -26 10 -4 6 7 10 24 10 35 0 35 -1 21 34 -5 14 -17 26 -27
26 -15 0 -15 2 3 14 18 14 18 15 -6 20 -30 7 -181 12 -204 8z m99 -22 c18 -7
19 -8 3 -15 -21 -8 -48 0 -48 15 0 12 17 12 45 0z m-61 -27 c-9 -36 -14 -44
-23 -39 -13 8 0 66 15 66 11 0 13 -7 8 -27z m-52 -71 c-2 -42 -5 -86 -9 -97
-6 -18 -7 -17 -14 8 -6 24 -5 45 6 132 1 11 3 26 4 34 0 8 4 11 8 7 4 -3 6
-41 5 -84z m128 23 c11 -13 8 -15 -18 -15 -36 0 -62 9 -62 21 0 15 67 10 80
-6z m-83 -96 c2 -29 -1 -39 -10 -36 -6 2 -12 9 -11 15 1 7 2 26 3 44 2 43 15
26 18 -23z"/>
<path d="M5808 2353 c-9 -2 -19 -11 -22 -19 -4 -11 0 -13 22 -8 34 9 42 13 42
25 0 9 -12 10 -42 2z"/>
<path d="M6235 2300 c-3 -5 -1 -10 4 -10 6 0 11 5 11 10 0 6 -2 10 -4 10 -3 0
-8 -4 -11 -10z"/>
<path d="M6263 2276 c5 -16 27 -19 27 -3 0 7 -7 14 -15 14 -9 0 -14 -5 -12
-11z"/>
<path d="M8731 2241 c-11 -7 -10 -11 7 -20 28 -15 32 -14 32 9 0 21 -16 26
-39 11z"/>
<path d="M6760 2189 c-10 -18 -9 -20 7 -17 10 2 19 11 21 21 5 24 -15 21 -28
-4z"/>
<path d="M6820 2163 c0 -9 -6 -13 -15 -9 -22 8 -18 -12 4 -24 13 -7 22 -7 26
0 8 13 25 13 25 0 0 -6 -11 -15 -25 -22 -22 -10 -26 -28 -6 -28 16 0 40 47 34
68 -6 25 -43 37 -43 15z"/>
<path d="M6405 2120 c-3 -5 -1 -10 4 -10 6 0 11 5 11 10 0 6 -2 10 -4 10 -3 0
-8 -4 -11 -10z"/>
<path d="M6575 2120 c3 -5 8 -10 11 -10 2 0 4 5 4 10 0 6 -5 10 -11 10 -5 0
-7 -4 -4 -10z"/>
<path d="M6366 2113 c5 -5 12 -12 16 -18 4 -6 8 -2 8 8 0 9 -7 17 -17 17 -9 0
-12 -3 -7 -7z"/>
<path d="M6890 2110 c0 -5 5 -10 10 -10 6 0 10 -7 10 -15 0 -8 7 -15 15 -15
14 0 13 3 -1 25 -17 25 -34 33 -34 15z"/>
<path d="M6454 2086 c3 -10 2 -24 -3 -30 -6 -6 -6 -18 -2 -25 6 -9 11 -10 15
-2 12 18 28 12 21 -8 -4 -13 0 -20 15 -24 11 -3 20 -2 20 3 0 15 -25 56 -49
80 -19 20 -23 21 -17 6z"/>
<path d="M8485 2060 c-4 -6 -3 -16 3 -22 6 -6 12 -6 17 2 4 6 3 16 -3 22 -6 6
-12 6 -17 -2z"/>
<path d="M6640 2051 c0 -6 5 -13 10 -16 6 -3 10 1 10 9 0 9 -4 16 -10 16 -5 0
-10 -4 -10 -9z"/>
<path d="M8520 2046 c0 -9 5 -16 10 -16 6 0 10 4 10 9 0 6 -4 13 -10 16 -5 3
-10 -1 -10 -9z"/>
<path d="M8555 2050 c-7 -12 2 -30 16 -30 12 0 12 27 0 35 -5 3 -12 1 -16 -5z"/>
<path d="M6935 2031 c-3 -5 -1 -12 5 -16 5 -3 10 1 10 9 0 18 -6 21 -15 7z"/>
<path d="M8600 2030 c0 -5 7 -10 16 -10 8 0 12 5 9 10 -3 6 -10 10 -16 10 -5
0 -9 -4 -9 -10z"/>
<path d="M6837 2002 c-22 -24 -21 -35 2 -27 12 4 21 0 25 -12 11 -30 33 -65
48 -74 11 -8 11 -10 0 -18 -10 -6 -6 -10 15 -14 37 -7 40 -4 35 32 -3 21 -10
31 -26 33 -16 2 -20 9 -18 31 3 29 -6 34 -27 15 -7 -7 -11 -8 -10 -3 4 14 -11
55 -20 55 -4 0 -15 -8 -24 -18z"/>
<path d="M6940 1969 c0 -5 5 -7 10 -4 6 3 10 8 10 11 0 2 -4 4 -10 4 -5 0 -10
-5 -10 -11z"/>
<path d="M6990 1948 c0 -18 18 -34 28 -24 3 4 -2 14 -11 23 -16 16 -17 16 -17
1z"/>
<path d="M7010 1901 c0 -6 5 -13 10 -16 6 -3 10 1 10 9 0 9 -4 16 -10 16 -5 0
-10 -4 -10 -9z"/>
<path d="M6811 1856 c-13 -14 -20 -29 -16 -35 3 -6 2 -11 -4 -11 -12 0 -61
-44 -61 -55 0 -4 6 -5 13 -2 7 3 21 -1 32 -9 23 -17 35 -18 35 -3 0 5 -4 7
-10 4 -5 -3 -10 1 -10 9 0 9 7 16 15 16 11 0 15 12 15 44 0 26 5 46 13 49 6 2
9 7 6 11 -3 3 -16 -5 -28 -18z"/>
<path d="M6836 1775 c-3 -9 -6 -22 -5 -28 0 -7 5 -1 10 12 5 13 8 26 5 28 -2
2 -6 -3 -10 -12z"/>
<path d="M6875 1771 c-8 -14 3 -51 16 -51 5 0 6 12 3 28 -8 34 -10 36 -19 23z"/>
<path d="M7080 1698 c0 -7 5 -20 10 -28 8 -12 10 -11 10 7 0 12 -4 25 -10 28
-5 3 -10 0 -10 -7z"/>
<path d="M7072 1589 c2 -7 10 -15 17 -17 8 -3 12 1 9 9 -2 7 -10 15 -17 17 -8
3 -12 -1 -9 -9z"/>
<path d="M7060 1560 c0 -5 5 -10 11 -10 5 0 7 5 4 10 -3 6 -8 10 -11 10 -2 0
-4 -4 -4 -10z"/>
<path d="M7160 1545 c0 -8 4 -15 10 -15 5 0 7 7 4 15 -4 8 -8 15 -10 15 -2 0
-4 -7 -4 -15z"/>
</g>
</svg>
