<?xml version="1.0" standalone="no"?>
<!DOCTYPE svg PUBLIC "-//W3C//DTD SVG 20010904//EN"
 "http://www.w3.org/TR/2001/REC-SVG-20010904/DTD/svg10.dtd">
<svg version="1.0" xmlns="http://www.w3.org/2000/svg"
 width="1242.000000pt" height="1242.000000pt" viewBox="0 0 1242.000000 1242.000000"
 preserveAspectRatio="xMidYMid meet">
<metadata>
Created by potrace 1.11, written by Peter Selinger 2001-2013
</metadata>
<g transform="translate(0.000000,1242.000000) scale(0.100000,-0.100000)"
fill="#000000" stroke="none">
<path d="M702 12406 c28 -30 48 -57 48 -65 0 -16 73 -68 132 -95 45 -21 64
-24 93 -18 20 4 35 12 35 17 -1 6 -8 9 -15 7 -8 -1 -19 7 -25 18 -9 18 -8 20
14 20 14 0 28 -4 31 -10 8 -13 35 -13 35 0 0 6 -10 15 -22 20 -22 8 -22 9 5 9
32 1 38 30 7 38 -11 3 -20 10 -20 15 0 5 -3 7 -7 5 -5 -3 -13 1 -20 8 -9 9 0
11 43 8 49 -3 54 -2 54 17 0 19 -6 20 -201 20 -171 0 -198 -2 -187 -14z"/>
<path d="M5480 12413 c0 -5 9 -100 21 -213 11 -113 25 -257 30 -320 11 -125
14 -491 5 -608 -4 -44 -2 -81 5 -93 17 -33 -17 -218 -61 -334 -5 -11 -22 -67
-40 -125 -17 -58 -35 -114 -41 -125 -5 -11 -16 -47 -24 -79 -8 -33 -19 -64
-25 -70 -5 -5 -10 -18 -10 -28 0 -9 -6 -21 -13 -25 -11 -7 -37 -55 -37 -70 0
-3 7 0 15 7 9 7 18 10 21 7 3 -3 -7 -12 -24 -21 -16 -8 -32 -12 -36 -9 -3 4
-6 -1 -6 -9 0 -9 -16 -25 -35 -36 l-34 -21 -30 28 c-21 19 -28 34 -25 48 4 14
-1 25 -14 34 -11 8 -21 23 -23 33 -3 11 -22 25 -49 35 -25 10 -74 34 -108 54
-84 49 -108 55 -117 28 -6 -19 -11 -21 -58 -15 -29 4 -57 11 -63 16 -15 11
-75 8 -92 -5 -7 -6 -27 -12 -44 -14 -18 -2 -40 -12 -50 -23 -10 -11 -24 -20
-31 -20 -7 1 -2 9 11 19 27 24 28 31 2 31 -11 0 -20 7 -20 15 0 8 -7 15 -17
15 -15 0 -115 -46 -138 -63 -14 -11 -164 -98 -208 -122 -21 -11 -58 -38 -82
-60 -23 -22 -59 -55 -79 -73 -40 -36 -71 -80 -63 -88 3 -3 13 6 22 20 10 14
26 26 37 26 17 0 17 -2 -7 -27 -14 -15 -25 -32 -25 -37 0 -5 -7 -17 -16 -27
-14 -16 -21 -15 -112 13 -84 26 -114 30 -227 31 -119 2 -135 0 -183 -23 -61
-28 -89 -66 -98 -132 -5 -32 -2 -52 9 -69 8 -13 18 -41 21 -61 4 -20 12 -38
19 -41 7 -2 0 -4 -16 -4 -15 0 -30 3 -33 8 -3 5 2 6 10 3 18 -7 22 11 6 21
-21 13 -70 24 -65 14 4 -5 13 -9 21 -9 30 0 12 -20 -18 -21 -18 0 -26 -3 -18
-6 19 -8 44 -33 38 -38 -9 -9 -87 38 -103 61 -15 23 -14 24 5 24 30 0 24 16
-11 30 -24 10 -36 11 -49 2 -14 -9 -26 -8 -50 4 -24 12 -34 13 -45 4 -8 -6
-20 -8 -27 -4 -7 5 -26 7 -43 6 -26 -2 -43 10 -132 102 -57 57 -103 109 -103
115 0 6 -4 11 -10 11 -5 0 -17 15 -26 33 -10 19 -19 27 -22 19 -2 -7 3 -21 12
-31 9 -10 16 -22 16 -27 0 -5 8 -17 18 -26 9 -9 26 -29 37 -44 11 -15 43 -51
72 -81 48 -49 53 -58 29 -54 -4 1 -13 -2 -20 -7 -14 -12 -206 -15 -206 -3 0
16 -74 10 -86 -7 -11 -15 -15 -15 -51 2 -21 11 -44 20 -50 22 -7 1 -24 12 -39
23 -25 20 -25 21 -5 21 12 0 21 -6 21 -16 0 -8 5 -12 10 -9 19 12 10 21 -38
42 -27 12 -61 19 -77 17 -25 -4 -27 -3 -10 5 16 8 17 10 3 10 -9 1 -18 5 -20
11 -2 6 -24 3 -57 -8 -42 -13 -55 -14 -59 -4 -2 6 -14 12 -26 12 -12 0 -27 5
-34 12 -7 7 -27 13 -45 15 -17 1 -67 14 -110 29 -56 19 -83 34 -95 53 -9 14
-22 30 -29 34 -7 4 -13 15 -13 22 0 8 -4 15 -9 15 -5 0 -12 7 -15 16 -4 12 -2
15 9 10 8 -3 15 -2 15 2 -1 7 -109 61 -242 121 -63 29 -86 54 -80 87 1 6 -9
23 -23 38 -14 15 -25 35 -25 45 0 10 -7 24 -15 31 -22 18 -45 69 -39 85 3 8
-6 26 -22 40 -15 14 -23 25 -19 25 4 0 1 8 -7 18 -8 9 -15 30 -16 45 -1 16
-13 43 -27 61 -14 18 -25 40 -25 49 0 9 -5 19 -11 22 -6 4 -8 13 -5 21 3 7 1
16 -4 19 -6 4 -10 14 -10 24 0 10 -11 43 -24 72 -13 30 -26 87 -30 127 -5 51
-18 96 -42 148 -19 41 -34 81 -34 88 0 8 -5 18 -10 21 -6 4 -8 10 -5 15 3 4
-2 13 -10 20 -8 7 -15 18 -15 24 0 6 -6 23 -14 38 -9 18 -11 28 -4 30 16 6
-10 76 -30 83 -21 7 -88 138 -78 153 3 6 -2 15 -11 21 -15 9 -15 12 -4 20 11
7 10 14 -5 37 -10 16 -26 35 -34 41 -12 11 -7 12 29 7 41 -7 43 -6 32 13 -11
22 -32 33 -62 33 -10 0 -19 6 -19 13 -1 22 -71 59 -99 52 -14 -4 -28 -11 -32
-16 -8 -13 -253 58 -311 91 -10 6 -23 10 -28 10 -12 0 -65 24 -220 98 -52 25
-97 49 -100 52 -3 4 -14 12 -25 19 -18 10 -16 11 13 6 38 -8 40 3 9 38 -12 14
-30 35 -39 48 -17 22 -18 7 -18 -357 0 -332 2 -382 16 -402 9 -13 22 -21 30
-18 7 3 16 0 20 -6 4 -6 3 -8 -4 -4 -6 3 -13 2 -17 -4 -3 -5 0 -10 7 -10 7 0
22 -16 32 -35 11 -19 23 -35 28 -35 4 0 8 -4 8 -9 0 -5 16 -26 35 -47 19 -21
35 -41 35 -45 0 -5 10 -18 23 -31 37 -39 101 -118 117 -146 8 -15 19 -30 23
-33 8 -6 28 -37 44 -69 4 -8 15 -23 24 -34 37 -40 117 -225 143 -331 7 -27 15
-57 19 -65 3 -8 20 -69 38 -135 17 -66 40 -133 51 -150 l19 -30 -4 30 c-3 17
-10 47 -15 68 -6 21 -6 39 -1 43 5 3 9 0 9 -5 0 -6 3 -10 8 -10 18 3 24 -2 14
-13 -12 -15 -4 -68 9 -68 14 0 11 -28 -3 -34 -9 -3 -8 -8 5 -16 9 -6 17 -18
17 -27 0 -14 -4 -12 -24 6 l-24 22 10 -43 c5 -24 11 -55 12 -69 2 -14 5 -30 8
-35 3 -5 9 -24 13 -42 3 -18 11 -30 16 -26 5 3 6 16 3 30 -5 19 -3 23 10 18 9
-3 16 -9 16 -13 0 -4 16 -15 35 -24 20 -9 35 -23 34 -30 -6 -48 2 -68 34 -81
17 -8 48 -21 69 -30 20 -9 43 -16 51 -16 9 0 19 -4 22 -10 3 -5 17 -10 30 -10
13 0 26 -4 29 -9 5 -7 50 -20 91 -26 6 -1 17 -4 25 -7 32 -11 111 -28 130 -28
12 0 32 -7 45 -16 27 -17 55 -13 55 8 0 16 126 14 145 -2 7 -6 55 -16 107 -21
51 -6 100 -14 108 -17 8 -3 22 -7 30 -8 8 -1 67 -21 130 -44 63 -22 126 -39
139 -36 24 4 88 -13 151 -41 210 -93 251 -101 528 -97 128 2 182 -1 179 -9 -5
-17 -79 -38 -109 -31 -34 7 -88 -4 -88 -17 0 -6 10 -9 23 -7 14 2 21 -2 19
-10 -4 -21 25 -67 50 -79 49 -24 57 -23 100 17 44 42 53 46 63 31 3 -5 31 -15
63 -21 31 -7 59 -15 62 -19 6 -8 127 -52 160 -58 14 -3 39 -11 56 -18 16 -8
50 -17 75 -21 57 -9 82 -30 75 -65 -4 -23 -2 -26 14 -22 25 7 25 11 -5 -83
-14 -43 -25 -86 -25 -94 0 -9 -4 -20 -9 -25 -15 -16 -58 -276 -81 -500 -7 -66
-14 -215 -14 -332 l-1 -211 -30 -15 c-123 -60 -206 -98 -242 -110 l-43 -15
-50 50 c-28 28 -53 48 -55 46 -10 -9 16 -75 40 -100 26 -29 19 -44 -16 -33
-11 4 -25 2 -32 -3 -23 -18 -59 -21 -74 -6 -9 8 -35 14 -66 15 l-52 1 48 20
c26 11 47 24 47 28 0 12 -43 20 -54 11 -15 -12 -66 -11 -66 1 0 5 4 7 9 3 5
-3 12 -1 16 5 3 5 15 10 26 10 11 0 41 10 67 22 l47 23 -38 3 c-22 2 -52 -1
-68 -7 -25 -8 -30 -7 -40 11 -8 15 -8 19 0 14 6 -4 11 -2 11 3 0 6 6 11 14 11
8 0 19 13 24 30 6 16 20 40 31 52 25 26 27 40 5 31 -13 -5 -15 -2 -9 18 4 13
8 29 9 34 2 16 -55 8 -75 -11 -29 -26 -32 -11 -4 16 14 13 25 29 25 35 0 16
-46 7 -61 -11 -6 -8 -17 -14 -23 -14 -7 0 -34 -14 -60 -31 -51 -31 -71 -32
-43 -1 10 10 17 24 17 30 0 6 5 14 12 18 7 5 9 2 5 -9 -4 -11 -2 -14 9 -10 9
3 12 12 8 25 -5 17 -3 18 15 9 17 -9 20 -9 15 3 -3 9 8 28 27 47 23 22 28 33
19 39 -10 6 -10 8 0 12 7 2 11 10 9 17 -4 11 -7 11 -19 0 -26 -24 -88 -69 -97
-69 -4 0 -21 -12 -38 -26 -16 -14 -46 -38 -65 -53 -19 -14 -37 -28 -40 -31
-13 -14 -111 -72 -115 -68 -3 2 4 35 15 74 17 60 29 121 46 240 3 22 -2 36
-16 49 -29 26 -76 5 -85 -38 -10 -49 -46 -170 -57 -191 -6 -10 -16 -41 -24
-67 -15 -50 -27 -60 -41 -36 -4 8 -16 17 -26 20 -15 6 -17 3 -11 -15 6 -22 5
-21 -29 5 -20 15 -39 27 -44 27 -4 0 -14 9 -21 20 -11 18 -9 24 18 51 16 17
30 38 30 47 0 9 9 28 20 42 11 14 20 30 20 36 0 6 11 20 24 31 13 12 28 28 32
36 12 19 129 107 143 107 6 0 11 5 11 11 0 6 7 9 15 5 9 -3 21 4 31 19 9 14
23 25 30 25 14 0 20 31 8 43 -4 3 -17 -1 -30 -9 -13 -9 -30 -14 -40 -12 -11 2
3 17 45 47 33 25 61 49 61 54 0 12 -55 -1 -107 -24 -23 -11 -49 -19 -58 -19
-9 0 -25 -5 -36 -11 -40 -21 -39 -3 1 54 22 32 40 62 40 66 0 5 -10 11 -22 14
-22 6 -22 6 -3 25 61 59 70 91 31 112 -20 10 -27 10 -42 -1 -22 -18 -89 -88
-131 -137 l-32 -37 -1 40 c0 46 -13 71 -30 60 -7 -4 -10 -19 -6 -36 6 -33 -13
-41 -21 -9 -6 23 -23 27 -23 5 0 -8 3 -15 8 -15 8 0 9 -137 0 -145 -6 -6 -13
31 -23 114 -3 23 -8 47 -11 52 -11 19 -24 8 -24 -23 l0 -31 -20 23 c-11 13
-20 19 -21 14 -2 -20 2 -91 7 -119 4 -26 2 -24 -15 13 -11 23 -23 42 -26 42
-8 0 2 -89 16 -144 11 -42 10 -46 -18 -50 -12 -2 -17 -11 -16 -25 5 -39 -14
-22 -26 24 -6 25 -15 45 -20 45 -5 0 -11 14 -15 32 -10 51 -15 27 -5 -27 22
-127 22 -120 5 -106 -9 8 -16 12 -17 10 0 -2 -2 -20 -4 -39 -1 -19 -8 -36 -14
-38 -6 -2 -11 -8 -11 -13 0 -4 6 -6 14 -3 14 5 30 -21 21 -35 -4 -8 -150 39
-245 78 -54 22 -143 37 -120 20 11 -8 12 -12 3 -16 -23 -9 -13 -19 37 -37 28
-10 50 -21 50 -26 0 -4 11 -7 25 -8 14 0 34 -7 43 -16 10 -9 33 -19 50 -22 18
-4 32 -10 32 -14 0 -10 56 -22 102 -21 l36 0 -5 -42 c-3 -23 -12 -47 -19 -53
-16 -13 -18 -52 -4 -74 5 -8 5 -19 1 -25 -4 -5 -13 -29 -20 -52 -6 -24 -16
-43 -21 -43 -15 0 -12 28 3 33 6 2 9 8 5 12 -11 12 -28 -5 -28 -27 0 -22 -20
-43 -59 -58 -15 -7 -21 -16 -17 -26 4 -11 -1 -18 -15 -21 -11 -3 -18 -11 -16
-17 3 -6 -2 -17 -9 -24 -8 -7 -14 -8 -14 -2 0 12 57 195 70 225 18 41 31 107
25 126 -10 29 -76 23 -90 -8 -7 -17 -15 -20 -37 -16 -23 5 -28 1 -34 -21 -7
-28 -22 -30 -35 -5 -4 8 -17 35 -30 61 l-24 47 -13 -44 c-7 -25 -17 -45 -23
-45 -6 0 -8 -11 -5 -27 3 -16 -1 -39 -8 -53 -12 -21 -12 -29 0 -52 12 -24 13
-28 0 -28 -7 0 -23 20 -35 45 -25 52 -46 65 -65 40 -12 -17 -13 -17 -19 4 -3
11 -11 21 -17 21 -9 0 -11 -14 -7 -51 5 -43 4 -49 -8 -39 -11 9 -13 5 -10 -23
1 -19 6 -49 9 -68 l7 -34 -30 34 c-18 20 -34 30 -41 26 -8 -5 -8 -10 -2 -14
12 -8 62 -81 62 -92 0 -5 -7 -6 -15 -3 -8 4 -15 11 -15 18 0 15 -119 144 -120
130 0 -6 9 -21 20 -34 22 -25 26 -35 10 -25 -6 3 -10 1 -10 -4 0 -6 9 -16 20
-23 11 -7 20 -18 20 -24 0 -6 7 -17 16 -25 9 -7 28 -38 44 -68 22 -45 25 -58
15 -68 -10 -9 -17 -9 -31 3 -19 14 -19 14 0 8 16 -6 17 -5 6 15 -9 18 -18 22
-38 17 -15 -3 -21 -3 -14 0 20 9 -33 45 -55 38 -15 -5 -16 -4 -3 6 13 10 13
13 -4 23 -10 7 -40 29 -67 50 -27 20 -56 37 -64 37 -9 0 -14 4 -11 9 7 10 -24
25 -33 15 -3 -3 3 -12 14 -19 11 -8 25 -19 32 -25 7 -5 15 -10 18 -10 8 0 35
-27 35 -34 0 -10 -35 8 -79 41 -49 37 -72 35 -28 -3 16 -13 26 -28 23 -32 -6
-10 39 -52 77 -71 15 -8 27 -19 27 -24 0 -6 8 -19 17 -30 18 -20 17 -20 -14
-14 -18 4 -33 3 -33 -2 0 -12 47 -20 57 -10 9 9 108 -34 118 -51 9 -15 67 -40
78 -33 6 3 7 1 3 -6 -6 -8 -25 -10 -64 -6 -112 12 -191 14 -197 5 -4 -6 -14
-6 -26 1 -11 5 -27 8 -37 5 -29 -9 -200 -11 -209 -2 -9 9 -71 36 -84 36 -5 0
-9 -4 -9 -10 0 -5 6 -10 14 -10 8 0 26 -14 41 -32 39 -47 12 -52 -37 -6 -41
37 -66 50 -52 26 4 -7 16 -19 27 -27 10 -7 27 -26 36 -42 10 -16 38 -51 62
-77 47 -50 159 -188 159 -196 0 -2 -16 0 -36 6 -20 5 -45 7 -55 5 -11 -3 -27
2 -36 11 -11 11 -33 17 -65 17 -26 0 -48 3 -48 6 0 4 -12 6 -27 6 -16 0 -35 3
-43 6 -47 17 -94 25 -165 27 -87 2 -146 6 -185 13 -14 2 -37 5 -53 6 -24 1
-27 4 -21 26 5 19 2 25 -10 25 -9 0 -28 7 -41 16 -25 16 -25 16 -19 -15 8 -40
-10 -41 -42 -3 -13 15 -24 22 -24 17 0 -6 6 -17 12 -23 10 -10 8 -14 -10 -18
-20 -6 -22 -12 -22 -85 0 -44 3 -79 8 -79 112 -3 480 -47 498 -61 5 -4 20 -6
32 -2 12 3 22 1 22 -5 0 -5 33 -13 73 -17 39 -3 92 -13 117 -20 25 -8 81 -19
125 -26 44 -6 86 -17 94 -23 12 -9 13 -8 8 7 -11 29 6 19 32 -18 13 -19 34
-46 46 -59 13 -14 30 -37 38 -53 66 -125 77 -149 73 -159 -5 -13 -110 -94
-121 -94 -4 0 -3 10 0 21 5 16 4 19 -5 14 -9 -5 -10 -2 -5 14 3 12 2 21 -4 21
-5 0 -17 3 -27 7 -14 5 -16 3 -9 -13 12 -29 8 -55 -11 -69 -10 -7 -15 -19 -11
-28 4 -11 -4 -24 -26 -39 -90 -63 -285 -219 -338 -269 -9 -9 -24 -21 -32 -25
-14 -9 -153 -133 -224 -202 l-34 -32 -45 15 c-60 20 -72 19 -41 -5 14 -11 30
-20 36 -20 16 0 14 -40 -2 -46 -11 -4 -79 32 -161 86 -76 50 -92 60 -98 60 -5
0 -8 -67 -8 -149 0 -143 1 -149 22 -164 l23 -15 -22 -24 -23 -24 0 -1209 c0
-1207 0 -1208 20 -1190 11 10 20 22 20 28 0 5 10 22 23 38 60 77 67 89 67 108
0 11 9 36 20 56 25 44 16 45 -21 3 -16 -18 -29 -28 -29 -23 0 13 28 55 52 76
10 9 18 20 18 23 0 4 6 14 14 22 8 7 23 24 33 36 10 13 34 35 53 49 19 15 50
41 69 58 19 17 41 31 48 31 8 0 16 6 19 13 2 7 22 24 44 37 22 14 40 28 40 32
0 5 7 8 15 8 8 0 15 4 15 9 0 10 80 32 92 25 4 -3 8 -1 8 4 0 5 10 13 22 17
13 4 30 10 38 13 8 3 124 6 257 7 134 1 246 4 250 8 3 4 40 7 82 7 103 0 312
17 450 37 84 12 118 21 130 34 8 11 22 19 31 19 8 0 26 9 40 20 34 26 80 26
87 0 7 -25 5 -25 53 5 22 14 49 25 60 25 16 0 20 5 18 26 -2 15 3 30 12 35 28
15 127 59 135 59 4 0 5 -24 1 -52 -16 -142 -16 -138 5 -138 14 0 19 7 19 26 0
28 39 145 51 154 4 3 8 14 10 25 3 14 13 20 36 22 17 0 40 6 52 12 12 7 21 8
21 3 0 -13 72 -23 85 -12 6 5 21 7 32 4 21 -6 21 -7 -9 -36 -20 -20 -32 -42
-34 -64 -3 -37 14 -46 36 -18 8 8 22 20 32 25 27 14 23 -5 -8 -38 -15 -15 -38
-44 -53 -63 -14 -19 -30 -40 -36 -47 -5 -6 -32 -40 -59 -75 -27 -36 -63 -74
-80 -86 -22 -16 -26 -22 -13 -22 9 0 17 -4 17 -10 0 -16 -61 -80 -77 -80 -11
0 -14 -7 -9 -26 6 -20 0 -34 -29 -65 -51 -57 -72 -119 -40 -119 8 0 15 -5 15
-11 0 -5 -8 -9 -17 -8 -35 3 -41 -1 -47 -35 -4 -19 -13 -39 -21 -46 -19 -16
-19 -34 0 -50 17 -15 20 -71 4 -87 -6 -6 -12 -24 -13 -40 -2 -15 -8 -37 -14
-49 -8 -15 -8 -24 0 -32 7 -7 4 -17 -13 -34 -13 -13 -23 -32 -21 -41 2 -9 -1
-17 -6 -17 -6 0 -8 -8 -5 -18 2 -10 -3 -24 -11 -31 -9 -8 -16 -25 -16 -40 0
-14 -7 -34 -15 -44 -7 -11 -11 -26 -8 -34 3 -8 1 -24 -5 -36 -6 -12 -20 -59
-32 -105 -19 -75 -22 -115 -25 -411 -3 -330 -9 -415 -28 -439 -6 -7 -7 -33 -2
-65 14 -102 15 -164 5 -312 -6 -82 -13 -161 -16 -174 -4 -20 -3 -23 9 -13 15
13 20 28 62 212 39 169 71 211 95 126 16 -60 15 -102 -8 -243 -14 -88 -25
-129 -41 -149 -16 -20 -20 -35 -15 -59 3 -20 1 -35 -6 -40 -8 -5 -8 -10 0 -20
8 -9 8 -15 0 -20 -16 -10 -12 -25 5 -19 10 4 15 0 15 -10 0 -11 -7 -16 -17
-14 -16 3 -18 -4 -15 -47 5 -99 4 -142 -6 -263 -13 -157 -7 -529 9 -548 7 -9
9 -34 5 -71 -6 -54 4 -153 14 -144 3 2 15 -1 27 -8 22 -11 23 -17 23 -151 l0
-140 1276 0 c800 0 1282 4 1293 10 10 5 21 24 25 42 10 55 38 138 46 138 4 0
8 10 8 23 2 44 7 62 20 70 6 4 12 14 12 21 0 7 9 31 20 54 11 22 20 54 20 70
0 17 6 32 14 35 8 3 17 18 20 34 10 42 84 154 106 160 11 3 20 11 20 17 0 7
10 23 21 35 12 13 33 44 46 70 l25 46 -38 -35 c-21 -19 -44 -42 -51 -50 -11
-13 -12 -12 -6 5 15 45 157 172 211 189 12 4 22 12 22 17 0 5 12 14 28 20 15
5 45 18 67 28 22 10 57 26 77 35 20 9 56 20 80 25 24 5 69 16 101 25 32 9 86
18 122 20 65 4 173 -15 184 -33 8 -12 86 -41 126 -47 56 -7 125 -28 125 -36 0
-11 -45 -28 -76 -28 -25 0 -34 -24 -11 -34 6 -3 3 -4 -8 -3 -11 2 -19 8 -18
15 2 6 -4 9 -12 6 -8 -4 -15 -1 -15 5 0 14 -47 14 -56 0 -8 -13 15 -31 29 -22
5 3 4 -4 -2 -16 -7 -12 -22 -21 -34 -21 -12 0 -34 -6 -49 -14 -14 -8 -54 -17
-87 -21 -61 -7 -61 -7 -61 19 0 14 -4 26 -10 26 -5 0 -10 -6 -10 -14 0 -16
-14 -22 -75 -31 -53 -9 -85 -25 -78 -41 4 -12 -30 -50 -94 -105 -15 -14 -41
-43 -57 -67 -16 -23 -35 -42 -43 -42 -8 0 -12 -4 -9 -9 3 -5 -6 -21 -19 -35
-14 -15 -25 -33 -25 -40 0 -8 -7 -19 -15 -26 -8 -7 -17 -27 -21 -46 -3 -19
-12 -38 -19 -42 -30 -17 -68 -303 -50 -379 7 -31 67 -33 88 -3 15 21 29 17 20
-6 -4 -12 94 -14 661 -14 526 0 666 3 666 13 0 6 5 41 11 77 5 36 12 94 14
128 2 35 6 66 8 69 3 2 41 -11 86 -31 89 -39 223 -86 246 -86 22 0 18 21 -5
27 -22 6 -27 21 -33 100 -3 35 -17 77 -44 130 -23 43 -44 89 -48 103 -4 14
-25 60 -46 104 -21 43 -39 85 -39 92 0 8 -4 14 -10 14 -5 0 -10 9 -10 19 0 11
-4 23 -10 26 -21 13 -8 27 48 51 31 14 70 31 86 39 l30 13 43 -64 c24 -35 43
-69 43 -75 0 -5 18 -34 40 -63 22 -29 40 -58 40 -64 0 -6 6 -15 13 -19 7 -4
31 -39 52 -78 21 -38 75 -126 120 -195 45 -69 97 -153 114 -188 18 -35 38 -65
46 -68 8 -3 17 -14 20 -25 4 -10 12 -19 20 -19 7 0 15 -7 19 -15 5 -13 104
-15 810 -15 796 0 805 0 811 20 3 11 11 20 16 20 5 0 14 12 19 26 15 38 100
167 120 181 9 6 34 39 55 72 21 34 42 61 46 61 5 0 9 6 9 13 0 7 23 41 50 75
28 34 50 67 50 72 0 6 4 10 8 10 4 0 33 33 65 73 64 82 74 89 175 134 89 39
142 71 142 85 0 11 9 31 90 203 20 44 49 105 63 135 24 52 55 119 131 282 31
68 52 112 128 278 62 133 92 195 97 200 3 3 7 10 8 15 4 25 63 138 63 122 0
-11 -7 -33 -16 -50 -33 -62 -35 -69 -30 -74 3 -4 0 -11 -8 -17 -7 -6 -18 -27
-25 -46 -9 -30 -9 -32 3 -17 20 25 25 21 32 -23 5 -28 12 -40 23 -40 22 0 41
-19 41 -42 0 -23 20 -24 21 0 0 14 2 14 8 -3 5 -11 5 -25 0 -31 -9 -11 -7 -33
6 -69 l8 -20 -16 20 c-16 20 -16 19 -17 -8 0 -16 -5 -38 -11 -49 -7 -13 -7
-24 -1 -30 6 -6 3 -28 -10 -61 -11 -29 -22 -61 -25 -72 -3 -11 -9 -24 -14 -30
-4 -5 -10 -27 -14 -47 -7 -38 -19 -48 -29 -25 -3 6 -3 2 -1 -9 8 -32 -101
-283 -202 -467 -19 -33 -16 -57 6 -57 21 0 61 56 61 86 1 11 12 33 25 49 l25
30 0 -26 c0 -42 20 -88 35 -82 11 4 12 -1 5 -26 -7 -26 -5 -31 13 -38 12 -4
58 -6 102 -5 73 1 78 0 55 -12 -18 -11 -28 -11 -38 -3 -10 8 -16 7 -22 -2 -5
-8 -16 -11 -31 -6 -15 4 -19 3 -11 -3 7 -5 10 -16 7 -24 -5 -13 -19 -15 -73
-11 -37 3 -71 9 -77 14 -12 12 -72 11 -95 -1 -15 -8 -134 -19 -214 -20 -18 0
-18 -1 -3 -18 10 -10 17 -24 17 -30 0 -6 9 -14 20 -17 16 -5 20 -15 20 -50 0
-41 19 -73 28 -47 2 7 9 12 16 12 12 0 66 -51 66 -62 0 -10 -120 -6 -126 3
-10 16 -24 9 -24 -11 0 -13 -5 -18 -15 -14 -8 4 -15 1 -15 -5 0 -6 -11 -11
-24 -11 -13 0 -29 -7 -36 -15 -7 -8 -18 -15 -25 -15 -7 0 -18 -7 -25 -15 -7
-8 -24 -15 -39 -15 -14 0 -35 -1 -46 -1 -11 -1 -31 2 -45 6 -47 13 -115 23
-124 18 -15 -9 47 -41 94 -49 25 -4 69 -8 97 -8 49 -1 53 -3 58 -28 6 -27 36
-45 55 -33 6 4 9 -13 8 -47 -3 -44 0 -53 16 -56 16 -3 18 0 12 23 -5 20 -3 26
6 23 7 -3 15 -15 17 -29 1 -13 8 -27 14 -31 19 -11 14 -42 -8 -55 -39 -23 -47
-26 -54 -15 -4 6 -15 11 -26 11 -122 2 -229 15 -250 31 -5 4 -20 10 -32 13
-20 4 -21 3 -12 -14 5 -10 16 -19 23 -19 8 0 19 -6 26 -14 6 -8 17 -13 25 -10
7 3 16 1 20 -5 6 -11 -7 -15 -32 -12 -8 1 -13 -9 -13 -24 0 -23 -10 -30 -34
-26 -4 1 -15 -4 -24 -11 -13 -11 -15 -10 -9 5 4 11 2 17 -7 17 -13 0 -26 -20
-26 -40 0 -14 32 -21 46 -9 11 9 14 7 14 -10 l0 -21 1430 0 1430 0 0 2158 0
2157 -25 27 c-14 15 -23 33 -20 40 6 17 -11 45 -22 35 -4 -5 -1 -12 7 -17 8
-5 11 -12 7 -16 -4 -4 -18 5 -31 19 -13 14 -22 28 -20 30 2 2 -8 10 -22 17
-14 8 -28 26 -31 42 -3 15 -11 28 -18 28 -15 0 -26 61 -18 101 3 16 11 29 18
29 8 0 11 8 8 20 -3 10 1 39 9 62 15 47 13 77 -5 80 -7 0 8 4 33 7 42 6 45 8
45 36 0 23 -5 31 -22 33 -14 2 -20 8 -16 18 3 10 0 12 -10 9 -11 -5 -16 3 -21
29 -4 20 -11 36 -15 36 -5 0 -11 9 -14 20 -4 16 -14 20 -46 20 -34 0 -41 3
-41 19 0 11 6 22 13 24 9 4 9 6 -1 6 -7 1 -15 -6 -18 -14 -5 -11 -10 -13 -19
-5 -9 7 -21 7 -40 0 -30 -11 -65 -5 -65 12 0 11 153 442 171 483 5 11 24 65
43 120 57 167 115 329 125 350 5 11 15 37 21 58 7 22 18 51 26 65 10 19 14 67
14 167 0 138 -5 152 -30 85 -7 -19 -19 -48 -25 -65 -7 -16 -26 -66 -42 -110
-17 -44 -34 -89 -38 -100 -5 -11 -9 -22 -10 -25 -7 -25 -21 -64 -41 -108 -13
-29 -24 -57 -24 -62 0 -6 -4 -18 -9 -28 -31 -59 -96 -216 -105 -255 -4 -17
-11 -25 -18 -21 -7 4 -8 3 -4 -4 4 -7 1 -26 -7 -44 -8 -18 -17 -42 -20 -53 -9
-32 -37 -107 -52 -142 -8 -17 -15 -37 -15 -45 0 -7 -6 -22 -14 -33 -7 -11 -17
-36 -21 -55 -12 -56 -57 -147 -64 -130 -3 8 -13 15 -21 15 -16 0 -16 14 2 58
6 16 18 27 29 27 11 0 19 4 19 10 0 5 -6 7 -14 4 -10 -4 -12 2 -9 20 3 14 10
26 15 26 6 0 7 7 4 16 -4 10 1 25 10 36 10 10 14 21 11 25 -4 3 -2 12 4 19 6
8 9 20 6 29 -4 8 -2 17 3 20 5 3 10 0 13 -7 2 -7 3 -4 1 8 -2 12 9 47 25 78
25 47 37 82 46 126 0 3 9 19 18 37 9 18 17 41 17 52 0 10 4 21 9 23 6 2 16 26
23 53 7 28 15 52 18 55 9 8 34 64 32 72 -1 4 7 22 18 40 11 18 20 41 20 50 0
9 3 18 8 21 4 2 1 2 -6 0 -8 -1 -21 -3 -31 -3 -19 0 -47 -50 -55 -102 -4 -20
-13 -38 -20 -41 -8 -3 -17 -24 -21 -46 -4 -23 -11 -41 -15 -41 -5 0 -12 -14
-15 -32 -4 -18 -11 -39 -15 -48 -33 -66 -51 -120 -41 -120 17 0 -2 -43 -31
-71 -21 -20 -31 -40 -34 -69 -4 -42 -29 -100 -43 -100 -9 0 -24 -50 -25 -85
-1 -11 -6 -19 -12 -18 -8 1 -10 -6 -7 -20 l6 -22 -20 22 c-11 13 -23 19 -27
16 -8 -9 4 28 14 42 4 6 11 24 14 40 8 36 46 97 46 75 1 -8 10 3 20 24 24 47
24 50 5 42 -19 -7 -19 -5 0 30 l15 29 1 -25 c1 -23 2 -22 11 8 6 17 16 32 22
32 6 0 12 13 13 30 1 16 10 44 19 61 14 29 15 31 0 26 -9 -4 -16 -2 -16 4 0 6
9 13 20 16 11 3 20 11 20 18 0 8 3 22 6 32 3 10 -1 8 -11 -7 l-16 -25 7 25 c3
14 16 48 29 75 12 28 32 77 45 110 21 54 46 114 71 170 16 36 69 205 69 219 0
8 4 16 8 18 4 2 17 35 29 73 11 39 46 142 77 230 45 127 55 164 46 178 -9 15
-2 38 35 119 33 74 45 114 45 147 -1 45 -1 45 -15 21 -8 -14 -14 -31 -15 -38
0 -7 -9 -31 -19 -53 -11 -22 -23 -54 -26 -72 -4 -18 -13 -43 -21 -57 -8 -14
-27 -66 -43 -116 -17 -50 -37 -106 -45 -125 -8 -19 -36 -88 -61 -154 -26 -66
-53 -131 -60 -145 -7 -14 -25 -59 -40 -100 -15 -41 -33 -87 -41 -102 -8 -14
-14 -32 -14 -40 -1 -7 -9 -31 -20 -53 -11 -22 -20 -47 -20 -55 0 -8 -7 -28
-15 -43 -8 -15 -23 -56 -34 -90 -70 -225 -202 -540 -216 -517 -12 20 -56 31
-71 19 -11 -9 -17 -9 -28 0 -11 9 -15 7 -19 -9 -3 -12 -17 -22 -35 -26 -17 -4
-40 -17 -52 -29 -12 -13 -29 -21 -37 -18 -8 3 -25 -5 -38 -17 -14 -13 -29 -19
-36 -15 -7 5 -10 4 -5 -3 3 -6 -4 -14 -16 -17 -43 -13 -93 -39 -101 -52 -4 -7
-19 -13 -32 -13 -17 0 -23 -4 -19 -14 3 -8 -3 -19 -15 -26 -12 -6 -21 -20 -21
-31 0 -11 -3 -18 -8 -15 -4 2 -37 -27 -72 -66 -36 -39 -102 -108 -147 -155
-45 -47 -101 -106 -124 -131 -23 -26 -106 -114 -185 -195 -79 -81 -144 -152
-144 -158 0 -6 -20 -34 -45 -62 -24 -28 -42 -54 -39 -59 3 -4 0 -8 -5 -8 -6 0
-11 -4 -11 -10 0 -5 7 -10 15 -10 8 0 15 5 15 10 0 6 7 10 16 10 14 0 14 -1 0
-16 -9 -8 -16 -20 -16 -26 0 -6 -10 -8 -21 -5 -27 7 -57 -20 -69 -64 l-9 -34
20 25 c12 14 27 34 35 44 7 11 17 16 21 12 4 -4 1 -11 -7 -16 -8 -5 -11 -12
-7 -16 4 -4 0 -15 -8 -24 -13 -14 -13 -19 1 -39 11 -15 23 -21 36 -18 18 5 18
4 4 -18 -20 -31 -20 -39 0 -31 12 5 15 2 12 -12 -3 -12 2 -24 15 -31 16 -11
19 -21 15 -67 -4 -50 -3 -53 12 -39 27 25 32 18 28 -39 -3 -46 -1 -52 12 -43
9 5 24 23 34 40 13 23 20 27 25 18 7 -11 10 -11 15 0 3 8 3 -1 0 -20 -3 -18
-15 -53 -26 -78 -12 -28 -18 -57 -15 -79 3 -19 1 -37 -4 -40 -5 -3 -9 -14 -9
-25 0 -13 4 -18 12 -13 7 4 8 3 4 -4 -11 -18 -30 -14 -44 9 -14 21 -14 21 -43
-10 -16 -18 -29 -38 -29 -45 0 -14 -64 -68 -94 -79 -14 -6 -16 -10 -6 -21 7
-10 8 -21 2 -33 -12 -23 -5 -43 12 -37 34 13 44 -68 12 -92 -22 -16 -24 -58
-3 -82 8 -9 18 -27 21 -39 4 -12 15 -24 25 -28 21 -6 45 -61 60 -138 8 -46 8
-66 -3 -95 -8 -20 -19 -53 -26 -72 -7 -19 -28 -59 -47 -88 -18 -29 -33 -56
-33 -61 0 -4 -8 -15 -19 -25 -20 -18 -33 -10 -45 32 -4 12 -12 22 -17 22 -6 0
-7 -9 -3 -22 6 -19 2 -18 -20 8 -14 18 -26 41 -26 53 0 12 -3 20 -7 20 -20 -3
-34 2 -28 10 3 5 1 12 -4 16 -6 3 -20 19 -32 36 l-22 31 23 -7 24 -7 -25 30
c-16 21 -30 29 -42 25 -15 -4 -18 -1 -13 14 5 15 -5 29 -41 59 -26 21 -76 67
-112 102 -35 34 -69 62 -74 62 -6 0 -25 11 -43 25 -18 14 -37 25 -43 25 -5 0
-30 16 -55 35 -26 19 -50 35 -54 35 -4 0 -19 13 -35 29 -15 16 -47 39 -72 51
-25 12 -43 26 -39 31 3 5 -5 9 -16 9 -12 0 -34 8 -48 18 -63 43 -245 143 -467
256 -77 39 -156 83 -175 97 -19 15 -47 29 -61 32 -14 4 -35 14 -46 24 -12 10
-34 26 -50 35 -70 43 -76 49 -133 122 -16 21 -30 45 -30 52 0 7 -6 17 -13 21
-7 4 -28 28 -47 53 -19 25 -73 89 -120 142 -47 53 -94 109 -105 124 -11 14
-30 38 -43 52 -13 15 -31 39 -40 54 -9 16 -19 28 -23 28 -4 0 -26 23 -50 51
-29 35 -42 59 -41 80 1 24 -3 29 -24 29 -39 0 -132 52 -196 109 -15 14 -31 22
-34 18 -4 -3 -18 3 -32 13 -13 11 -30 20 -37 20 -7 0 -18 7 -25 15 -23 28 31
17 62 -12 15 -15 28 -21 28 -15 0 7 -4 12 -8 12 -5 0 -9 7 -9 15 0 9 5 14 12
12 6 -3 67 -12 135 -21 69 -9 148 -23 175 -31 28 -7 79 -19 115 -25 36 -7 70
-16 76 -21 6 -5 33 -13 60 -18 52 -10 129 -39 122 -46 -5 -5 -142 18 -207 35
-25 6 -77 15 -115 20 -39 5 -93 12 -121 16 -37 5 -47 4 -40 -5 6 -6 58 -16
115 -21 57 -6 109 -15 115 -19 5 -5 29 -12 53 -16 23 -4 42 -10 42 -14 0 -5
46 -16 103 -25 56 -10 111 -21 122 -26 11 -4 52 -18 90 -30 39 -11 90 -30 115
-42 112 -51 157 -74 187 -96 18 -13 36 -21 41 -18 5 3 20 -3 32 -14 12 -11 31
-22 41 -25 11 -4 19 -10 19 -15 0 -5 8 -11 19 -15 10 -3 29 -14 42 -25 63 -51
89 -67 44 -26 -56 51 -120 93 -265 176 -69 39 -132 75 -140 80 -8 6 -22 13
-30 16 -8 4 -38 17 -67 30 -28 13 -55 24 -60 24 -4 0 -20 6 -34 14 -15 7 -50
21 -78 31 -28 9 -53 20 -56 25 -3 4 -24 11 -48 15 -23 4 -53 13 -67 20 -54 26
-372 90 -501 100 l-76 6 -84 91 c-46 50 -146 154 -222 232 -138 140 -139 141
-127 171 6 17 16 45 22 63 5 19 18 48 29 65 10 18 19 41 19 53 0 11 7 35 16
53 8 17 17 66 19 109 4 73 4 74 -6 27 -5 -27 -14 -59 -19 -70 -5 -11 -12 -31
-15 -45 -17 -65 -90 -236 -104 -245 -5 -2 -38 25 -75 60 -36 36 -66 62 -66 57
0 -4 8 -15 18 -24 9 -9 22 -23 28 -30 6 -7 27 -28 47 -46 39 -34 48 -68 22
-78 -9 -4 -14 -11 -13 -18 1 -6 -4 -21 -12 -33 -15 -23 -15 -23 -67 33 -29 31
-53 62 -53 69 0 7 -7 18 -16 26 -10 8 -13 21 -9 37 5 22 4 24 -17 18 -13 -4
-52 -10 -88 -13 -58 -5 -64 -4 -52 9 7 9 29 18 50 22 48 7 106 51 122 92 9 21
30 40 69 62 81 44 88 55 96 147 4 44 12 86 17 93 12 14 62 8 115 -15 67 -27
163 7 204 73 20 33 22 47 19 172 -1 76 -3 151 -5 167 -2 17 -7 63 -11 103 l-7
72 32 0 c17 0 31 5 31 10 0 6 -6 10 -13 10 -24 0 -40 44 -32 89 6 38 74 141
93 141 4 0 6 -42 4 -94 -3 -79 0 -102 18 -141 26 -57 84 -143 114 -168 33 -28
76 -49 76 -37 0 5 -4 10 -10 10 -10 0 -30 17 -82 68 -32 31 -74 114 -87 172
-9 40 3 101 27 146 6 11 31 64 57 119 25 55 50 107 55 115 6 8 23 35 38 59 15
24 46 73 70 109 23 36 42 68 42 73 0 13 51 109 58 109 12 0 43 81 57 150 8 36
20 92 28 125 9 33 18 87 22 120 4 33 11 65 15 70 4 6 11 48 14 95 6 66 4 95
-9 130 -9 25 -19 71 -22 102 -5 54 -4 56 16 51 20 -5 21 -2 20 63 0 38 -5 94
-10 124 -5 30 -12 70 -16 89 -3 19 -1 36 5 40 12 7 -4 65 -39 137 -10 22 -19
44 -19 48 0 21 -92 206 -148 296 -31 49 -27 26 4 -27 25 -43 27 -62 5 -48 -6
3 -11 12 -11 18 0 7 -10 17 -22 22 -16 7 -22 17 -20 34 2 14 0 21 -7 17 -13
-8 -61 62 -54 79 2 8 -5 18 -16 25 -12 6 -21 7 -22 3 -1 -4 -4 3 -8 17 -4 15
-14 24 -22 22 -9 -1 -34 15 -57 36 -23 21 -54 45 -69 53 -15 8 -33 19 -39 24
-6 6 -31 26 -55 45 -23 19 -54 46 -68 59 l-25 24 30 15 c16 8 31 18 34 21 8
10 44 31 63 37 9 4 17 10 17 14 0 15 64 80 78 80 9 0 6 7 -9 20 -13 10 -19 19
-12 20 6 0 19 3 27 6 12 5 15 2 10 -10 -10 -25 2 -20 89 38 87 56 156 96 170
96 4 0 29 9 55 21 149 67 250 109 260 109 5 0 12 7 16 15 3 8 15 15 26 15 11
0 32 8 46 17 14 9 36 18 49 19 12 1 43 12 68 23 25 12 52 21 59 21 8 0 22 6
33 14 11 7 29 15 40 17 11 3 20 11 20 19 0 8 11 17 25 18 14 2 30 8 37 13 7 6
12 6 15 -1 3 -11 102 4 123 19 6 4 30 13 55 20 25 7 47 17 50 21 3 5 19 11 35
13 19 2 29 9 28 18 -2 11 13 15 62 16 35 1 67 -2 70 -7 9 -15 47 -12 42 3 -2
6 -10 11 -16 10 -6 -2 -11 0 -11 5 1 11 73 42 98 42 12 0 22 4 22 9 0 6 14 25
31 43 29 30 31 31 26 9 -5 -21 -3 -23 23 -19 25 4 35 -2 60 -33 16 -21 30 -42
30 -48 0 -5 12 -19 26 -30 29 -23 54 -14 54 18 0 10 7 26 15 37 8 10 15 26 15
34 0 8 12 29 28 45 19 22 27 41 28 69 0 22 6 42 12 44 7 2 12 11 12 21 0 19
59 81 78 81 18 0 14 28 -5 39 -17 9 -17 11 3 33 11 13 26 32 34 42 13 18 13
19 0 11 -13 -8 -13 -7 -1 8 7 9 9 17 3 17 -17 0 11 48 36 61 16 9 21 18 16 33
-4 15 -3 17 4 7 12 -16 35 -5 26 12 -4 7 -3 9 1 4 5 -4 17 0 27 10 10 9 21 13
24 10 7 -7 -42 -57 -96 -98 -19 -15 -32 -30 -27 -35 4 -4 12 -3 18 3 6 6 18 9
27 6 11 -5 13 -3 7 7 -6 9 -4 11 4 6 7 -5 20 -1 29 8 36 34 107 88 136 103 16
9 36 22 44 29 7 8 17 14 21 14 5 0 20 10 34 23 62 54 80 67 92 67 8 0 21 10
30 23 8 12 18 21 20 20 13 -7 22 0 38 30 27 50 117 104 100 60 -4 -11 -3 -14
6 -9 7 5 10 14 7 22 -7 18 14 30 24 14 9 -14 38 -2 60 24 16 20 -3 21 -23 1
-8 -8 -17 -11 -21 -8 -11 11 -6 23 9 23 9 0 18 7 21 15 4 8 11 15 18 15 6 0
23 10 37 23 15 12 40 33 58 46 17 13 31 30 31 37 0 8 9 14 19 14 14 0 18 5 14
20 -4 13 1 22 13 26 11 4 29 16 41 27 12 10 34 20 50 21 15 2 39 9 53 16 14 8
32 14 40 15 9 0 14 7 12 18 -2 9 2 17 9 17 6 0 23 8 37 19 15 10 43 22 62 26
19 4 60 20 91 35 30 16 72 32 92 35 20 4 37 11 37 16 0 5 -12 6 -27 3 l-28 -7
24 21 c13 12 39 24 57 28 19 3 37 10 39 15 3 4 27 11 53 14 26 4 74 15 107 25
126 38 349 70 480 69 39 0 102 3 140 7 82 9 151 8 219 -3 69 -11 70 -29 1 -25
-35 3 -55 0 -55 -7 0 -12 44 -26 57 -18 5 3 38 6 73 8 107 3 100 -15 100 256
l0 235 -22 -6 c-13 -4 -50 -9 -83 -11 -33 -2 -50 -2 -37 1 12 3 22 9 22 13 0
17 -14 19 -40 6 -15 -8 -29 -13 -31 -10 -2 2 -24 6 -49 9 -103 12 -272 85
-299 129 -12 18 -11 23 9 39 12 10 29 18 36 18 12 0 63 23 135 60 8 4 40 21
70 36 30 15 60 36 67 46 7 10 22 18 32 18 20 0 91 35 131 64 24 18 23 18 -30
13 -29 -2 -56 -9 -60 -15 -10 -16 -293 -163 -301 -155 -2 2 2 8 9 12 8 5 -7 7
-35 3 l-49 -5 35 34 c19 19 36 31 38 27 2 -3 15 0 30 7 15 7 38 18 52 25 46
20 73 38 82 54 8 14 -34 16 -430 16 -242 0 -454 -3 -471 -6 -20 -4 -31 -12
-31 -23 0 -10 -19 -38 -43 -62 -49 -51 -87 -102 -87 -117 0 -15 -53 -72 -67
-72 -7 0 -13 -6 -14 -12 0 -7 -26 -36 -57 -63 -32 -28 -57 -57 -57 -65 0 -7
-24 -26 -52 -42 -29 -16 -53 -25 -53 -19 0 5 4 12 9 16 5 3 15 22 22 43 6 20
15 39 18 42 4 3 19 30 33 60 14 30 47 98 72 151 25 53 46 101 46 106 0 6 7 16
15 23 8 7 15 19 15 26 0 11 -18 14 -74 14 l-75 0 -12 -35 c-7 -19 -16 -35 -19
-35 -4 0 -12 -11 -18 -25 -13 -29 -37 -34 -29 -6 4 17 1 17 -29 8 -19 -6 -34
-14 -34 -18 0 -4 -6 -14 -13 -21 -19 -20 -48 -102 -52 -150 -5 -53 -28 -129
-41 -131 -5 -1 -10 38 -11 88 -2 118 -1 112 -17 118 -15 6 -23 -24 -57 -203
-13 -72 -31 -95 -60 -79 -16 8 -19 6 -19 -13 0 -37 -27 -1 -34 46 -4 21 -13
53 -21 70 -9 18 -17 42 -19 53 -3 12 -14 41 -25 65 -12 24 -18 32 -15 18 16
-68 36 -137 44 -155 18 -41 38 -125 30 -130 -4 -3 -16 14 -25 38 -14 35 -19
39 -24 23 -4 -11 -2 -35 5 -55 14 -42 8 -64 -17 -58 -11 3 -19 1 -19 -4 0 -5
-13 -9 -30 -9 -44 0 -37 -25 10 -39 22 -7 44 -10 48 -8 14 9 52 -13 52 -29 0
-12 -6 -15 -22 -11 -28 6 -353 -18 -498 -37 -94 -12 -99 -14 -50 -16 107 -5
426 -1 484 6 42 4 57 3 52 -5 -10 -16 3 -13 21 4 21 21 47 15 51 -13 2 -12 10
-22 17 -22 9 0 12 -6 9 -15 -4 -9 0 -15 10 -15 30 0 17 -21 -64 -101 -43 -44
-82 -89 -85 -99 -3 -11 -21 -28 -40 -40 -18 -11 -71 -59 -117 -107 -113 -118
-213 -216 -293 -288 -37 -33 -78 -70 -91 -82 -14 -13 -28 -23 -32 -23 -4 0
-23 -15 -42 -33 -19 -18 -42 -38 -51 -43 -9 -5 -43 -34 -76 -64 -33 -30 -74
-66 -93 -80 -18 -14 -56 -43 -85 -65 -64 -49 -138 -95 -185 -114 -19 -8 -38
-19 -41 -24 -4 -5 -26 -10 -50 -12 -24 -2 -47 -4 -51 -4 -5 -1 -8 -8 -8 -16 0
-8 -7 -15 -15 -15 -8 0 -29 -6 -47 -14 -18 -8 -42 -18 -53 -22 -11 -4 -49 -18
-85 -31 -36 -13 -81 -28 -100 -34 -19 -6 -39 -15 -45 -20 -13 -12 -45 -11 -45
2 0 6 -7 3 -16 -5 -8 -9 -22 -16 -29 -16 -7 0 -20 -6 -27 -13 -7 -7 -39 -20
-70 -30 -32 -10 -60 -22 -63 -27 -4 -6 -13 -10 -20 -10 -8 0 -43 -13 -77 -30
-34 -16 -66 -30 -71 -30 -6 0 -37 -13 -71 -29 -130 -61 -410 -161 -451 -161
-8 0 -15 -4 -15 -10 0 -5 -10 -10 -22 -10 -13 -1 -41 -8 -63 -16 -22 -8 -67
-22 -100 -30 -33 -9 -69 -19 -80 -24 -11 -5 -40 -14 -65 -21 -25 -6 -49 -14
-55 -17 -5 -4 -21 -8 -34 -10 -13 -2 -40 -10 -60 -19 -20 -8 -79 -30 -131 -48
-52 -18 -108 -40 -125 -49 -16 -9 -36 -16 -44 -16 -8 0 -34 -11 -57 -25 -41
-24 -45 -25 -73 -10 -21 10 -31 11 -33 3 -3 -7 -14 -2 -30 13 -52 48 -120 89
-147 89 -10 0 -21 3 -25 7 -3 4 -12 8 -19 9 -23 4 -86 34 -92 44 -9 15 -48 13
-42 -3 3 -8 -3 -13 -18 -12 -31 0 -41 11 -26 28 9 11 8 17 -3 26 -18 15 -94
23 -101 11 -3 -5 -24 -14 -45 -20 -38 -10 -54 -29 -27 -31 6 -1 -8 -5 -33 -10
-37 -7 -59 -4 -139 22 -53 17 -108 31 -123 31 -16 1 -28 3 -28 6 0 3 11 24 24
46 41 71 63 256 30 256 -12 0 -24 -22 -24 -46 0 -38 -63 -144 -120 -202 -35
-35 -64 -61 -66 -59 -9 8 10 77 21 77 17 0 60 73 46 78 -18 6 -12 27 14 52 21
20 29 22 45 13 21 -14 37 -1 37 30 0 13 -6 17 -19 14 -22 -6 -23 2 -2 31 8 12
20 19 26 16 7 -5 9 2 4 19 -3 14 -2 29 4 32 5 3 10 17 10 31 0 13 5 33 12 44
10 15 9 23 -6 39 -11 12 -26 21 -35 21 -19 -1 -63 -35 -59 -47 5 -18 -51 -93
-69 -93 -4 0 -2 5 5 12 7 7 12 20 12 29 0 9 7 22 15 29 9 8 12 22 8 41 -3 17
0 35 7 44 7 8 10 22 6 30 -3 8 -2 15 3 15 13 0 31 49 21 55 -6 4 -10 -1 -10
-10 0 -9 -5 -13 -11 -9 -8 4 -8 9 0 17 6 6 11 19 11 29 0 10 9 27 20 38 12 12
18 25 15 31 -4 5 -3 15 3 22 5 7 17 32 26 57 10 25 24 59 31 75 30 66 75 208
75 236 0 17 4 39 10 49 13 24 42 204 42 260 -1 68 -1 72 -11 65 -6 -3 -8 8 -5
27 4 27 1 36 -17 46 -19 12 -24 11 -39 -5 -20 -21 -70 -137 -70 -161 0 -9 -9
-39 -20 -67 l-21 -50 7 90 c13 182 19 614 10 705 -21 211 -29 277 -36 290 -8
16 -25 120 -22 134 2 4 -3 15 -10 23 -7 9 -13 21 -14 27 0 6 -2 19 -2 29 -2
15 -18 17 -182 17 -99 0 -180 -3 -180 -7z m378 -137 c7 -16 11 -37 9 -45 -3
-10 -5 -8 -6 6 -2 45 -16 29 -17 -20 -1 -45 0 -48 12 -32 19 25 18 7 -1 -29
-9 -16 -13 -36 -10 -44 3 -7 0 -22 -5 -33 -13 -23 -2 -49 11 -28 6 10 9 7 10
-11 1 -14 5 -6 9 20 l7 45 1 -40 c1 -40 -16 -100 -17 -63 -1 9 -5 19 -10 23
-6 3 -8 -11 -6 -32 2 -22 0 -31 -5 -23 -6 10 -9 7 -12 -11 -2 -13 -5 33 -6
103 -1 70 2 129 7 132 5 3 7 23 4 43 -2 21 -6 65 -8 98 l-4 60 13 -45 c6 -25
18 -58 24 -74z m5672 44 c-6 -11 -15 -20 -20 -20 -6 0 -5 9 2 20 7 11 16 20
21 20 4 0 3 -9 -3 -20z m-5659 -203 c-8 -8 -11 -7 -11 4 0 20 13 34 18 19 3
-7 -1 -17 -7 -23z m5992 -79 c3 -10 2 -18 -1 -18 -16 1 -42 28 -42 44 0 13 3
14 19 4 11 -7 22 -20 24 -30z m-11262 -129 c32 -12 60 -28 63 -35 4 -11 1 -12
-13 -5 -10 6 -45 13 -77 16 -80 7 -94 13 -94 37 0 18 4 20 32 14 17 -3 57 -16
89 -27z m-394 -233 c15 -8 48 -20 73 -27 25 -7 50 -16 55 -20 6 -4 43 -12 84
-18 40 -6 82 -16 92 -21 10 -6 29 -10 42 -10 40 0 43 -30 7 -60 -16 -14 -30
-31 -30 -38 0 -7 -7 -20 -15 -28 -17 -18 -20 -34 -5 -34 6 0 10 -6 10 -14 0
-8 6 -17 13 -20 9 -3 8 -8 -3 -18 -8 -7 -14 -23 -12 -36 2 -13 -1 -29 -7 -36
-7 -9 -5 -30 8 -74 11 -34 15 -64 11 -67 -5 -3 -26 17 -47 45 -20 27 -41 50
-45 50 -4 0 -8 5 -8 10 0 13 -4 18 -90 116 -14 16 -34 43 -44 59 -10 17 -27
38 -37 48 -11 10 -19 25 -19 33 0 13 5 12 26 -5 15 -12 32 -21 39 -21 18 0 14
29 -6 35 -11 4 -16 12 -12 21 6 16 -77 100 -108 109 -22 7 -33 35 -14 35 7 0
26 -6 42 -14z m-57 -127 c0 -4 9 -11 20 -14 11 -3 20 -15 20 -25 0 -13 5 -17
19 -13 10 3 22 0 25 -6 5 -7 1 -8 -10 -4 -14 5 -15 3 -5 -15 14 -27 37 -42 28
-19 -8 21 -3 21 17 1 19 -19 22 -49 4 -38 -8 5 -7 1 2 -10 9 -12 16 -14 18 -7
3 9 7 9 18 0 17 -14 19 -33 2 -23 -7 4 -8 3 -4 -5 4 -6 12 -8 18 -5 6 4 8 -2
3 -17 -4 -17 -3 -20 3 -10 10 14 32 7 32 -10 0 -6 -6 -7 -12 -2 -20 12 21 -50
51 -76 14 -13 19 -20 11 -16 -11 5 -11 3 1 -7 10 -8 24 -31 33 -53 9 -22 20
-42 25 -45 5 -3 12 -16 16 -30 4 -14 5 -23 2 -20 -15 14 -87 116 -87 122 0 12
-28 10 -32 -2 -1 -5 -11 5 -21 23 l-17 32 20 -24 c22 -26 26 -15 8 24 -12 26
-23 32 -33 15 -7 -11 -35 -2 -35 12 0 5 10 6 22 2 21 -6 22 -6 8 12 -8 10 -18
23 -22 29 -20 29 -78 87 -69 69 5 -11 17 -26 25 -33 9 -8 13 -18 10 -23 -6
-10 -94 81 -94 97 0 3 -7 13 -15 23 -43 49 -75 90 -75 97 0 9 16 -8 78 -83 29
-35 52 -56 52 -48 0 8 -21 40 -47 73 -73 91 -70 86 -40 72 15 -7 27 -16 27
-20z m5912 -200 c-4 -35 -4 -128 0 -179 3 -25 1 -49 -3 -55 -3 -5 -9 -30 -13
-55 -14 -102 -19 -120 -32 -130 -10 -10 -13 -4 -11 29 1 24 4 36 9 28 5 -7 8
12 8 43 -1 67 4 113 14 128 7 11 8 32 6 124 0 25 4 49 10 53 7 4 7 13 -1 27
-9 16 -8 19 3 16 7 -3 12 -16 10 -29z m-5777 -39 c3 -5 1 -10 -4 -10 -6 0 -11
5 -11 10 0 6 2 10 4 10 3 0 8 -4 11 -10z m108 -14 c4 -10 1 -13 -9 -9 -7 3
-14 9 -14 14 0 14 17 10 23 -5z m5604 -428 c-3 -7 -5 -2 -5 12 0 14 2 19 5 13
2 -7 2 -19 0 -25z m-20 -90 c-3 -8 -6 -5 -6 6 -1 11 2 17 5 13 3 -3 4 -12 1
-19z m-604 -435 c-7 -2 -19 -2 -25 0 -7 3 -2 5 12 5 14 0 19 -2 13 -5z m-4618
-93 c3 -5 1 -10 -4 -10 -6 0 -11 5 -11 10 0 6 2 10 4 10 3 0 8 -4 11 -10z
m3292 -124 c-19 -17 -44 -45 -56 -63 -15 -23 -26 -30 -42 -26 l-20 6 20 21
c12 12 21 25 21 29 0 4 11 20 25 35 17 20 35 29 56 29 l30 0 -34 -31z m-3147
-36 c0 -11 -4 -20 -9 -20 -5 0 -11 9 -14 20 -3 13 0 20 9 20 8 0 14 -9 14 -20z
m8510 11 c0 -5 -7 -11 -15 -15 -9 -3 -15 0 -15 9 0 8 7 15 15 15 8 0 15 -4 15
-9z m-5546 -81 c16 -16 -2 -24 -27 -12 -12 6 -38 16 -57 22 -32 9 -30 10 19 5
30 -2 59 -9 65 -15z m5141 11 c3 -5 19 -8 35 -6 46 6 36 -11 -17 -30 -27 -10
-57 -21 -68 -25 -40 -17 -160 -38 -168 -30 -5 4 6 11 25 15 31 7 83 35 64 35
-14 0 37 37 59 43 34 8 64 7 70 -2z m-5065 -43 c0 -6 -7 -7 -16 -4 -9 3 -21 6
-27 6 -7 0 -7 4 2 9 16 10 41 4 41 -11z m617 -34 c-3 -3 -12 -4 -19 -1 -8 3
-5 6 6 6 11 1 17 -2 13 -5z m-1018 -23 c11 -7 9 -11 -8 -20 -18 -10 -21 -9
-21 9 0 22 7 25 29 11z m5231 -1 c0 -5 -7 -10 -15 -10 -8 0 -15 5 -15 10 0 6
7 10 15 10 8 0 15 -4 15 -10z m-7390 -10 c8 -5 11 -12 8 -16 -10 -9 -38 3 -38
16 0 12 10 13 30 0z m3073 -15 c-3 -9 -8 -14 -10 -11 -3 3 -2 9 2 15 9 16 15
13 8 -4z m4161 3 c-5 -8 0 -9 16 -5 17 4 20 3 12 -5 -8 -8 -9 -15 -1 -25 9
-10 7 -13 -10 -13 -11 0 -20 6 -18 13 1 8 -9 11 -30 9 -37 -2 -41 4 -15 24 21
17 56 18 46 2z m-6181 -30 c21 -8 27 -16 24 -30 -3 -10 0 -18 6 -18 6 0 20 -9
32 -20 11 -11 38 -21 58 -22 37 -3 46 -11 27 -23 -5 -3 -16 -3 -22 2 -7 4 -22
8 -33 9 -80 3 -95 6 -108 19 -8 7 -26 17 -41 21 -14 3 -26 10 -26 15 0 5 -7 9
-15 9 -20 0 -19 15 2 40 18 20 38 20 96 -2z m6157 -32 c-16 -15 -80 -32 -80
-21 0 3 18 14 40 24 22 10 38 20 37 23 -2 3 1 2 7 -3 7 -6 6 -14 -4 -23z
m-5890 -16 c0 -5 -16 -10 -35 -10 -19 0 -35 5 -35 10 0 6 16 10 35 10 19 0 35
-4 35 -10z m385 -8 c-3 -3 -11 0 -18 7 -9 10 -8 11 6 5 10 -3 15 -9 12 -12z
m1670 8 c3 -5 1 -10 -4 -10 -6 0 -11 5 -11 10 0 6 2 10 4 10 3 0 8 -4 11 -10z
m1205 -14 c14 -3 45 -11 70 -19 43 -14 44 -15 13 -16 -17 -1 -35 -6 -38 -11
-4 -7 -12 -7 -25 0 -14 8 -21 6 -28 -6 -5 -10 -28 -18 -57 -22 -40 -4 -46 -3
-39 10 20 33 60 75 69 72 6 -2 21 -6 35 -8z m-2846 -12 c3 -8 2 -12 -4 -9 -6
3 -10 10 -10 16 0 14 7 11 14 -7z m3241 6 c3 -5 1 -10 -4 -10 -6 0 -11 5 -11
10 0 6 2 10 4 10 3 0 8 -4 11 -10z m-209 -51 c6 -10 -11 -11 -43 -3 -13 4 -23
12 -23 20 0 10 6 11 30 2 17 -5 33 -14 36 -19z m1285 21 c5 0 9 -9 9 -20 0
-11 -4 -20 -9 -20 -23 0 -41 14 -41 32 0 14 5 18 16 14 9 -3 20 -6 25 -6z
m989 -5 c-7 -8 -19 -15 -26 -15 -8 0 -36 -11 -62 -24 -26 -13 -60 -27 -77 -30
-27 -6 -26 -4 12 18 23 13 53 28 65 32 13 3 32 13 43 20 11 8 28 14 38 14 16
0 17 -3 7 -15z m-5269 -19 c49 -7 89 -23 89 -35 0 -15 -60 -25 -73 -12 -6 6
-23 11 -38 11 -15 0 -31 5 -34 10 -8 13 2 43 12 37 5 -3 24 -8 44 -11z m3352
-13 c-7 -2 -21 -2 -30 0 -10 3 -4 5 12 5 17 0 24 -2 18 -5z m-679 -42 c6 -10
-94 -54 -103 -46 -7 8 20 25 40 25 9 0 22 7 29 15 14 17 26 19 34 6z m43 3
c-3 -3 -12 -4 -19 -1 -8 3 -5 6 6 6 11 1 17 -2 13 -5z m-818 -40 c1 -1 1 -8
-1 -14 -2 -7 -13 -3 -28 11 l-25 21 25 -7 c14 -4 27 -9 29 -11z m1741 -20 c0
-20 -18 -17 -29 5 -9 16 -8 18 9 14 11 -3 20 -12 20 -19z m-1700 6 c0 -5 12
-10 28 -10 18 0 23 -3 14 -9 -19 -12 -62 -1 -62 15 0 8 5 14 10 14 6 0 10 -4
10 -10z m-89 -15 c19 -8 27 -14 19 -14 -14 0 -72 28 -59 29 4 0 22 -7 40 -15z
m-1496 -25 c3 -5 -3 -10 -14 -10 -12 0 -21 5 -21 10 0 6 6 10 14 10 8 0 18 -4
21 -10z m1590 0 c18 -8 18 -9 -5 -9 -14 0 -32 4 -40 9 -12 8 -12 10 5 9 11 0
29 -4 40 -9z m55 -5 c0 -8 -4 -15 -10 -15 -5 0 -10 7 -10 15 0 8 5 15 10 15 6
0 10 -7 10 -15z m-1915 -65 c66 -22 128 -40 137 -40 28 0 30 -17 3 -46 -24
-25 -25 -26 -25 -6 0 15 -4 20 -16 15 -9 -3 -21 3 -31 16 -11 17 -22 21 -39
17 -16 -4 -26 -1 -33 11 -8 15 -16 16 -60 7 -28 -6 -51 -8 -51 -4 0 4 -11 13
-25 20 -14 7 -25 19 -25 27 0 20 -20 16 -28 -7 -5 -14 -11 -17 -22 -10 -12 7
-9 13 13 34 22 20 31 23 54 16 16 -5 82 -28 148 -50z m1295 21 c0 -10 20 -37
45 -60 24 -22 39 -41 32 -41 -15 0 -26 8 -55 41 -23 26 -49 94 -31 84 5 -4 9
-14 9 -24z m654 -13 c13 -36 -6 -76 -51 -110 -48 -37 -71 -36 -32 2 18 16 35
27 39 25 4 -3 13 2 20 10 10 12 10 15 -1 15 -10 1 -8 4 4 11 21 12 22 26 2 45
-18 19 -20 37 -2 32 6 -3 16 -16 21 -30z m-1789 -118 c3 -5 -1 -10 -9 -10 -9
0 -16 5 -16 10 0 6 4 10 9 10 6 0 13 -4 16 -10z m1881 -34 c0 -13 -4 -22 -8
-19 -11 6 -10 43 1 43 5 0 8 -11 7 -24z m-1 -175 c3 -5 1 -12 -5 -16 -5 -3
-10 1 -10 9 0 18 6 21 15 7z m2 -197 c-9 -9 -28 6 -21 18 4 6 10 6 17 -1 6 -6
8 -13 4 -17z m2463 -34 c11 -11 20 -23 20 -27 0 -4 12 -19 27 -35 14 -15 24
-30 21 -34 -8 -7 -67 57 -88 95 -14 26 -6 27 20 1z m-2462 -87 c0 -28 6 -90
18 -172 3 -24 12 -54 19 -65 7 -12 19 -48 25 -80 7 -33 16 -69 20 -80 5 -12
23 -68 40 -126 18 -58 38 -118 45 -135 7 -16 25 -66 40 -110 15 -44 33 -93 40
-110 7 -16 15 -39 19 -50 3 -11 19 -45 35 -75 29 -54 119 -236 146 -295 8 -16
16 -41 20 -55 3 -14 10 -34 15 -45 18 -38 33 -80 37 -100 2 -11 10 -37 18 -58
8 -20 15 -45 15 -55 0 -9 6 -28 13 -42 7 -14 19 -47 26 -75 7 -27 19 -63 27
-80 17 -37 42 -136 59 -235 22 -129 45 -234 55 -252 6 -10 15 -53 21 -95 7
-43 16 -84 21 -90 6 -7 8 -19 5 -27 -3 -7 0 -24 7 -37 14 -29 32 -106 41 -174
4 -27 15 -84 25 -125 36 -143 50 -223 41 -234 -6 -6 -6 -30 -1 -56 13 -64 12
-350 0 -350 -13 0 -13 -57 0 -65 8 -5 7 -11 -1 -21 -9 -11 -9 -17 1 -29 7 -8
10 -21 7 -28 -3 -8 -1 -33 3 -58 13 -71 22 -297 14 -366 -7 -73 -28 -86 -39
-24 -5 30 -10 38 -22 34 -10 -4 -13 -14 -9 -32 4 -14 11 -134 16 -266 5 -132
14 -352 20 -490 7 -137 16 -396 20 -575 5 -179 13 -350 19 -380 6 -30 19 -138
31 -240 19 -178 47 -360 70 -465 6 -27 15 -75 20 -105 5 -30 14 -75 20 -100 6
-25 15 -65 20 -90 4 -25 13 -62 19 -82 6 -21 16 -55 22 -75 6 -21 14 -60 19
-88 26 -145 116 -405 135 -387 4 4 6 0 3 -8 -9 -26 37 -114 84 -161 24 -25 54
-66 66 -90 12 -24 30 -55 40 -67 16 -21 21 -22 33 -10 17 18 52 32 44 18 -8
-12 7 -13 20 -1 6 4 36 13 68 19 63 12 141 44 322 132 66 33 127 61 135 64 8
3 22 10 30 15 17 10 234 115 375 181 50 23 97 46 105 51 8 5 26 14 40 20 53
23 106 47 140 62 19 9 46 21 60 27 14 5 32 14 40 18 8 5 65 33 125 63 155 76
233 132 216 153 -15 18 -39 96 -50 161 -5 33 -19 88 -30 122 -12 34 -21 69
-21 76 0 8 -13 26 -30 40 -16 15 -30 34 -30 42 0 8 -4 15 -9 15 -13 0 -41 58
-41 84 0 12 -6 30 -13 41 -12 17 -36 116 -41 165 -1 9 -5 20 -8 25 -3 6 -9 35
-12 65 -7 54 -22 130 -34 160 -3 8 -4 23 -3 33 1 10 -3 24 -9 32 -6 7 -10 17
-9 21 2 9 -8 58 -18 84 -10 24 -13 42 -22 100 -5 30 -16 79 -25 108 -10 29
-14 62 -11 72 10 32 -5 89 -26 95 -10 4 -19 15 -19 26 0 13 4 18 11 13 8 -5
10 3 6 27 -4 19 -9 54 -13 79 -4 25 -10 50 -14 55 -4 6 -11 26 -15 45 -4 19
-25 73 -47 120 -22 47 -51 109 -64 138 -14 30 -26 66 -26 82 -1 16 -15 46 -34
70 -19 23 -36 57 -40 76 -3 19 -9 34 -13 34 -3 0 -21 29 -40 65 -19 35 -38 62
-42 60 -4 -3 -12 9 -18 25 -5 16 -21 40 -34 53 -14 12 -33 36 -43 53 -51 86
-100 161 -116 178 -10 11 -18 24 -18 29 0 12 -71 100 -84 106 -6 2 -38 33 -72
68 -34 34 -67 63 -72 63 -6 0 -14 9 -17 20 -3 11 -10 20 -15 20 -12 0 -60 48
-60 60 0 16 14 11 33 -10 9 -11 23 -20 30 -20 7 0 28 -14 46 -31 18 -16 39
-28 46 -25 7 2 36 -23 66 -57 30 -34 79 -87 110 -117 31 -31 64 -69 74 -83 9
-15 21 -27 26 -27 5 0 2 8 -6 18 -49 59 -75 96 -75 107 0 7 -7 18 -15 25 -26
22 -16 32 13 12 15 -10 34 -22 42 -26 8 -3 33 -17 55 -29 22 -13 56 -32 75
-42 19 -11 37 -22 40 -25 6 -6 50 -32 98 -57 17 -9 32 -23 32 -31 0 -12 -11
-13 -57 -7 -32 3 -68 9 -80 12 -13 3 -23 1 -23 -5 0 -14 40 -38 88 -53 23 -6
48 -19 56 -28 21 -23 201 -212 293 -307 82 -84 203 -226 203 -238 0 -12 -80
34 -112 64 -17 16 -35 27 -39 24 -13 -8 -62 36 -115 101 -67 82 -104 121 -104
109 0 -6 8 -22 19 -35 32 -42 49 -83 41 -104 -5 -16 -15 -2 -47 65 -58 121
-58 122 -25 114 15 -4 35 -11 44 -15 10 -6 19 -5 23 1 6 9 -59 43 -108 55 -28
7 -37 30 -15 37 7 3 -6 17 -27 31 -37 25 -59 22 -37 -6 6 -7 24 -41 42 -75 22
-44 29 -67 22 -74 -7 -7 -3 -24 14 -54 13 -23 24 -49 24 -56 1 -7 9 -31 20
-53 11 -22 19 -45 20 -51 0 -10 30 -84 60 -149 26 -56 60 -148 79 -215 13 -41
36 -102 52 -135 30 -62 59 -181 59 -241 0 -24 7 -41 25 -56 14 -12 25 -29 25
-39 0 -9 7 -22 15 -29 17 -14 99 -126 132 -180 47 -77 193 -387 193 -410 0 -4
8 -25 17 -46 9 -22 17 -41 18 -44 1 -3 5 -13 10 -24 5 -12 3 -21 -6 -27 -12
-7 -12 -9 0 -9 10 0 12 -8 7 -32 -7 -34 -8 -419 -1 -426 2 -2 9 -1 16 3 10 7
79 15 79 10 0 -2 -33 -27 -72 -57 -59 -44 -211 -164 -264 -207 -5 -4 -21 -14
-35 -21 -13 -7 -26 -16 -29 -20 -14 -20 -172 -113 -310 -183 -85 -43 -159 -82
-165 -87 -10 -8 -51 -31 -145 -81 -25 -13 -46 -27 -48 -31 -2 -5 -11 -8 -21
-8 -9 0 -35 -14 -58 -30 -25 -18 -47 -28 -57 -24 -12 4 -15 2 -10 -9 3 -10 -2
-18 -17 -22 -15 -5 -25 -3 -27 5 -3 7 -21 -7 -43 -32 -30 -33 -41 -40 -48 -29
-7 11 -13 10 -35 -4 -15 -10 -24 -20 -22 -23 3 -3 12 1 21 8 9 7 18 11 20 8 3
-3 -7 -11 -23 -19 -15 -7 -43 -25 -62 -40 -19 -14 -46 -30 -60 -34 -14 -4 -27
-11 -30 -14 -3 -4 -24 -15 -47 -25 -24 -11 -43 -23 -43 -28 0 -4 -9 -8 -20 -8
-11 0 -20 -4 -20 -9 0 -4 -53 -35 -117 -67 -65 -33 -119 -62 -121 -66 -2 -5
-9 -8 -16 -8 -7 0 -35 -11 -62 -25 -27 -14 -41 -25 -32 -25 11 0 15 -5 12 -15
-4 -8 -12 -15 -20 -15 -8 0 -13 -3 -12 -7 3 -15 -14 -43 -27 -43 -11 0 -39
-21 -86 -65 -9 -8 -22 -15 -31 -15 -8 0 -25 -11 -38 -25 -13 -14 -29 -25 -36
-25 -6 0 -17 -7 -24 -15 -7 -9 -19 -14 -27 -11 -8 3 -11 2 -8 -3 3 -5 -4 -13
-15 -16 -12 -4 -37 -22 -56 -42 -26 -25 -45 -35 -76 -38 -25 -3 -48 -13 -62
-27 -30 -33 -94 -71 -106 -63 -5 3 -10 2 -10 -3 0 -12 -76 -58 -105 -64 -11
-2 -19 -10 -17 -18 3 -11 0 -11 -13 0 -9 7 -12 16 -7 19 5 3 14 16 21 28 11
21 10 22 -13 13 -23 -9 -23 -7 13 58 21 37 41 77 45 90 4 12 12 22 18 22 6 0
8 9 5 20 -3 11 -1 20 4 20 5 0 9 5 9 10 0 6 9 23 20 38 12 17 22 51 27 91 7
71 25 101 61 101 13 0 37 7 52 17 24 14 26 18 14 30 -17 18 -18 33 -1 33 7 0
25 10 39 21 24 19 26 27 22 78 -3 41 -1 49 5 31 5 -14 9 -37 10 -52 1 -21 6
-28 20 -28 11 0 23 4 26 10 3 5 22 10 42 10 20 0 33 3 30 6 -9 10 33 39 75 53
21 7 40 17 43 22 4 5 15 9 27 9 17 0 19 4 13 28 -9 39 -80 194 -101 222 -7 8
-29 47 -49 85 -20 39 -41 75 -47 82 -11 13 -1 54 15 65 8 4 7 10 0 20 -6 7
-14 29 -18 48 -4 19 -15 55 -25 80 -65 160 -90 234 -100 300 -6 41 -15 77 -20
78 -6 2 -10 20 -10 40 -1 20 -7 75 -14 122 -40 251 -61 416 -76 600 -5 69 -13
152 -16 185 -10 95 -13 131 -24 280 -6 77 -13 169 -17 205 -11 125 -12 157
-18 440 -5 255 -11 405 -21 510 -4 46 -9 130 -28 450 -8 146 -18 275 -22 288
-3 12 -1 28 5 36 8 9 8 28 1 67 -6 30 -15 99 -21 154 -5 55 -17 120 -25 145
-9 25 -16 57 -16 73 -1 15 -5 27 -10 27 -4 0 -8 13 -8 30 0 29 -3 55 -36 270
-8 58 -20 143 -25 190 -6 47 -15 99 -21 115 -6 17 -18 82 -27 145 -10 63 -20
122 -23 130 -4 8 -9 35 -12 60 -2 25 -14 106 -26 180 -12 74 -25 169 -30 210
-5 41 -15 98 -24 125 -43 144 -55 183 -65 210 -38 107 -94 277 -103 315 -6 25
-14 50 -18 55 -4 6 -13 33 -19 60 -7 28 -17 59 -22 70 -10 23 -45 122 -63 180
-7 22 -18 53 -24 68 -7 16 -12 31 -12 34 0 3 -6 19 -14 36 -8 18 -30 86 -49
152 -19 66 -47 155 -62 198 -26 70 -27 78 -13 90 14 10 15 20 7 62 -20 107
-22 135 -9 150 9 10 9 15 1 15 -6 0 -11 14 -11 30 0 25 4 30 24 30 19 0 23 -5
24 -27z m2581 -45 c11 -18 32 -46 46 -62 14 -16 25 -32 26 -35 0 -3 2 -16 5
-28 6 -37 -4 -27 -30 30 -14 29 -39 66 -56 82 -30 29 -38 45 -21 45 5 0 19
-15 30 -32z m-3274 -22 c-14 -21 -21 -24 -31 -15 -17 14 -9 28 20 39 29 11 31
6 11 -24z m-62 -36 c-3 -8 -10 -28 -16 -44 l-11 -29 -16 48 c-14 43 -15 51 -2
66 14 16 16 16 32 -4 10 -12 16 -28 13 -37z m37 -23 c0 -7 -7 -22 -15 -33 -14
-18 -14 -18 -15 7 0 14 3 29 7 32 11 11 23 8 23 -6z m-88 -55 c24 -50 27 -62
18 -97 -5 -22 -10 -57 -10 -77 0 -20 -4 -40 -10 -43 -5 -3 -10 -21 -10 -38 0
-18 -5 -39 -10 -47 -7 -11 -10 4 -10 50 0 36 -4 80 -10 99 -5 19 -10 69 -11
112 -2 117 12 128 53 41z m-1020 -217 c0 -5 -3 -101 -7 -213 -7 -182 -14 -226
-32 -208 -10 10 -4 459 7 515 5 29 11 72 11 95 2 32 10 -49 21 -189z m4633 73
c20 -50 30 -112 16 -104 -6 4 -11 19 -11 34 0 15 -9 38 -20 52 -22 28 -26 50
-9 50 5 0 16 -15 24 -32z m-6175 -510 c0 -12 -26 -38 -38 -38 -6 0 -10 15 -9
34 1 32 2 33 24 23 13 -5 23 -14 23 -19z m160 12 c0 -5 -5 -10 -11 -10 -5 0
-7 5 -4 10 3 6 8 10 11 10 2 0 4 -4 4 -10z m30 -10 c0 -5 -4 -10 -10 -10 -5 0
-10 5 -10 10 0 6 5 10 10 10 6 0 10 -4 10 -10z m-73 -76 c4 -10 -5 -25 -25
-42 -48 -41 -89 -72 -96 -72 -11 0 11 34 48 73 20 21 36 43 36 48 0 15 30 10
37 -7z m273 -238 c0 -11 -19 -15 -25 -6 -3 5 1 10 9 10 9 0 16 -2 16 -4z
m5841 -83 c-1 -87 -19 -193 -32 -193 -17 0 -4 201 17 269 10 31 16 -2 15 -76z
m-6004 17 c31 -16 67 -30 78 -30 19 0 18 -2 -5 -20 -14 -11 -38 -25 -55 -32
-16 -7 -84 -53 -150 -104 -138 -105 -192 -137 -132 -79 22 22 34 41 30 48 -5
8 -9 6 -11 -6 -2 -9 -8 -14 -14 -11 -7 4 -8 2 -4 -4 4 -7 1 -12 -9 -12 -9 0
-14 4 -11 9 4 5 -3 7 -14 4 -10 -3 -19 -8 -18 -12 2 -18 -3 -22 -15 -12 -10 8
-19 4 -36 -19 -12 -17 -29 -30 -37 -30 -11 0 -14 -6 -10 -16 3 -9 2 -12 -5 -9
-10 7 -78 -39 -92 -62 -4 -7 -13 -13 -19 -13 -7 0 -57 -46 -112 -103 -56 -57
-116 -113 -133 -126 -18 -12 -33 -27 -33 -32 0 -5 -16 -26 -36 -45 l-35 -36
-21 43 c-12 24 -38 79 -59 121 -22 43 -39 80 -39 83 0 3 9 5 20 5 11 0 20 -4
20 -9 0 -5 7 -11 14 -14 10 -4 13 -1 9 8 -4 12 2 14 28 11 18 -2 35 -8 37 -14
3 -11 40 -5 60 11 8 6 12 6 12 -1 0 -6 -5 -14 -11 -18 -7 -4 -2 -11 13 -18 46
-24 96 9 243 157 74 75 142 137 149 137 8 0 24 11 37 25 13 13 28 25 32 25 14
0 92 69 175 152 43 42 82 77 89 77 6 1 38 -12 70 -29z m293 20 c0 -5 -4 -10
-9 -10 -6 0 -13 5 -16 10 -3 6 1 10 9 10 9 0 16 -4 16 -10z m46 -17 c-10 -10
-19 5 -10 18 6 11 8 11 12 0 2 -7 1 -15 -2 -18z m-1736 -74 c0 -6 -4 -7 -10
-4 -5 3 -10 11 -10 16 0 6 5 7 10 4 6 -3 10 -11 10 -16z m82 13 c4 -10 107
-62 124 -62 8 0 14 5 14 11 0 6 39 9 113 8 63 -1 120 2 128 6 11 6 12 5 2 -6
-23 -24 -15 -39 23 -39 19 0 44 5 54 10 13 7 21 7 25 0 3 -5 1 -10 -4 -10 -6
0 -11 -7 -11 -15 0 -8 -7 -15 -15 -15 -8 0 -15 -4 -15 -10 0 -13 7 -13 33 4
34 21 77 29 77 13 0 -20 -21 -37 -45 -37 -12 0 -32 -11 -45 -25 l-23 -25 22 0
c12 0 39 8 60 18 38 19 38 19 65 -5 23 -19 26 -28 21 -57 -5 -26 -12 -34 -28
-34 -12 0 -49 -4 -82 -10 -37 -6 -64 -6 -72 0 -7 5 -14 5 -17 -1 -5 -7 -16 -7
-34 0 -14 6 -47 10 -72 9 -94 -3 -95 -3 -137 53 -74 98 -178 211 -203 220 -9
3 -4 6 12 6 14 1 28 -2 30 -7z m1468 -7 c7 -9 22 -15 34 -14 39 4 76 -1 76 -9
0 -4 -15 -16 -32 -27 -18 -10 -51 -33 -74 -52 -23 -18 -48 -33 -58 -33 -9 0
-16 -5 -16 -11 0 -6 -9 -9 -20 -6 -11 3 -20 1 -20 -4 0 -5 -6 -9 -14 -9 -8 0
-17 -11 -20 -25 -5 -18 -13 -25 -30 -25 -20 0 -23 4 -19 21 5 20 3 21 -21 15
-25 -6 -26 -5 -16 14 6 11 14 20 18 20 4 0 25 17 47 37 60 56 139 123 146 123
4 0 12 -7 19 -15z m-1520 -25 c0 -5 -2 -10 -4 -10 -3 0 -8 5 -11 10 -3 6 -1
10 4 10 6 0 11 -4 11 -10z m3285 -37 c-11 -3 -24 -9 -29 -14 -6 -5 -15 -9 -20
-9 -6 0 -2 7 8 15 11 8 29 14 40 14 20 -1 21 -1 1 -6z m-2455 -12 c0 -5 -7
-14 -15 -21 -8 -7 -15 -16 -15 -21 0 -5 -8 -17 -17 -27 -10 -10 -30 -33 -46
-50 -15 -18 -33 -32 -40 -31 -9 0 -9 2 1 6 14 6 16 33 2 33 -5 0 -10 -5 -10
-11 0 -5 -4 -7 -10 -4 -19 12 -10 24 35 51 25 14 45 30 45 35 0 5 7 9 15 9 8
0 19 9 25 20 11 20 30 27 30 11z m3580 -21 c10 -6 28 -10 38 -10 24 0 82 -63
82 -88 -1 -15 -3 -15 -18 3 -12 14 -32 21 -71 24 l-55 3 -49 -53 c-64 -70 -88
-119 -95 -191 l-5 -59 -16 33 c-8 18 -18 35 -21 38 -3 3 -7 22 -8 44 -3 37 44
171 72 206 7 8 17 28 24 43 11 26 15 27 58 22 25 -3 54 -10 64 -15z m-1940
-72 c0 -6 -9 -8 -20 -5 -11 3 -23 1 -26 -4 -7 -11 -24 -12 -24 -1 0 10 52 30
63 25 4 -2 7 -9 7 -15z m-1220 -45 c0 -5 -12 -16 -26 -27 -26 -18 -26 -18 -15
2 9 17 19 25 39 31 1 1 2 -2 2 -6z m54 -28 c-6 -16 -24 -21 -24 -7 0 11 11 22
21 22 5 0 6 -7 3 -15z m-154 -55 c-19 -17 -39 -30 -45 -30 -5 0 5 10 23 21 17
12 32 25 32 30 0 5 6 9 13 9 6 -1 -4 -14 -23 -30z m-50 -45 c0 -2 -10 -10 -22
-16 -21 -11 -22 -11 -9 4 13 16 31 23 31 12z m-760 -25 c0 -5 -2 -10 -4 -10
-3 0 -8 5 -11 10 -3 6 -1 10 4 10 6 0 11 -4 11 -10z m200 0 c0 -6 -35 -10 -84
-10 -47 0 -88 5 -91 10 -4 6 27 10 84 10 54 0 91 -4 91 -10z m1350 -78 c0 -11
-110 -75 -118 -68 -8 9 6 21 58 50 49 27 60 30 60 18z m-140 -87 c0 -8 -8 -15
-18 -15 -10 0 -24 -9 -32 -20 -8 -11 -21 -20 -30 -20 -9 1 1 15 25 35 44 38
55 42 55 20z m-178 -112 c-21 -15 -22 -17 -6 -34 16 -18 16 -19 1 -19 -10 0
-17 5 -17 10 0 15 -32 12 -54 -5 -11 -8 -29 -15 -40 -14 -15 0 -17 2 -6 6 8 3
22 11 30 19 8 7 17 13 20 13 16 0 58 21 69 35 8 9 17 14 20 10 3 -3 -4 -13
-17 -21z m2968 -76 c0 -31 6 -62 16 -75 14 -20 14 -22 -1 -22 -21 0 -62 27
-69 46 -3 9 1 22 9 30 15 16 8 39 -22 72 -17 18 -16 22 5 38 15 12 20 10 40
-12 17 -19 22 -37 22 -77z m-2835 5 c-3 -3 -11 0 -18 7 -9 10 -8 11 6 5 10 -3
15 -9 12 -12z m1740 -73 c-4 -5 -13 -9 -22 -9 -13 0 -13 3 -3 15 13 15 35 11
25 -6z m165 -19 c0 -5 -2 -10 -4 -10 -3 0 -8 5 -11 10 -3 6 -1 10 4 10 6 0 11
-4 11 -10z m918 -91 c19 -17 32 -33 29 -35 -8 -8 -77 40 -77 54 0 19 12 14 48
-19z m-2337 -42 c3 -4 14 -7 25 -6 36 4 90 -3 69 -8 -11 -3 -25 -9 -32 -15 -7
-6 -14 -5 -18 2 -10 16 -65 13 -65 -5 0 -9 6 -12 17 -8 10 4 14 2 10 -4 -5 -7
0 -9 13 -6 11 3 20 0 20 -6 0 -6 -7 -11 -15 -11 -14 0 -20 -12 -16 -33 1 -5
-3 -6 -9 -2 -6 3 -17 0 -25 -9 -20 -20 -19 -25 5 -19 39 10 17 -21 -32 -46
-16 -8 -28 -18 -28 -23 0 -5 -6 -3 -14 4 -12 11 -11 14 3 20 11 5 8 7 -12 7
-23 1 -27 -2 -22 -18 5 -17 -3 -21 -67 -32 -40 -7 -87 -13 -105 -13 -17 -1
-29 -5 -26 -10 4 -5 -7 -6 -22 -3 -16 2 -40 0 -54 -6 -19 -9 -25 -9 -29 1 -2
6 -10 12 -18 12 -9 0 -12 -5 -9 -11 5 -7 -5 -9 -27 -6 -18 2 -25 2 -15 0 9 -2
15 -8 12 -13 -3 -5 -13 -6 -21 -3 -9 3 -20 0 -24 -7 -8 -12 -50 -5 -50 8 1 9
82 47 133 62 22 7 51 18 65 26 15 8 51 14 80 14 38 0 54 4 58 15 4 9 16 15 28
14 11 -1 40 -1 64 -1 48 2 59 22 11 22 -17 0 -39 5 -50 10 -15 8 -19 7 -19 -4
0 -9 -16 -16 -51 -21 -27 -4 -53 -4 -56 -1 -4 3 5 6 19 6 14 0 29 7 32 16 3 8
10 13 15 9 5 -3 22 6 36 19 15 14 32 27 38 29 7 2 9 8 5 12 -4 4 -14 0 -23 -9
-9 -9 -27 -16 -40 -16 -13 0 -26 -4 -29 -9 -3 -5 -15 -11 -26 -14 -17 -4 -18
-2 -9 14 6 12 20 19 39 19 17 0 30 5 30 10 0 6 9 10 19 10 11 0 23 5 27 11 4
7 9 7 13 1 8 -13 51 -25 51 -15 0 5 -5 14 -12 21 -16 16 -2 28 16 13 14 -12
64 -5 52 6 -3 4 -1 12 5 19 8 10 15 11 32 1 12 -7 25 -15 28 -20z m2449 1 c0
-5 12 -8 28 -8 34 0 92 -66 92 -105 0 -22 4 -25 20 -20 15 5 21 0 26 -19 3
-14 3 -30 -1 -35 -3 -6 -3 -16 0 -22 4 -6 27 12 56 43 l48 52 15 -34 c8 -19
17 -53 22 -75 4 -22 10 -42 15 -45 7 -5 29 -144 33 -205 1 -11 4 -25 8 -31 11
-17 3 -143 -9 -155 -7 -7 -9 -19 -6 -28 3 -9 0 -8 -8 4 -18 30 -17 30 -58 31
-22 0 -51 10 -69 22 -35 26 -42 27 -42 8 0 -9 -7 -12 -20 -9 -15 4 -19 11 -15
24 4 13 1 19 -9 19 -9 0 -16 -4 -16 -10 0 -5 -15 -8 -32 -6 -18 2 -50 4 -70 5
l-37 1 34 59 c32 58 56 139 54 184 -1 12 -5 0 -10 -28 -6 -27 -16 -64 -24 -82
-8 -17 -15 -35 -15 -41 0 -5 -13 -24 -29 -42 l-29 -33 -5 29 c-3 16 -9 49 -13
74 -3 25 -13 65 -20 90 -8 25 -21 68 -28 95 -8 28 -21 74 -29 103 -15 50 -15
53 3 47 22 -7 37 13 16 21 -9 3 -15 16 -15 27 0 12 -4 41 -9 65 -5 23 -7 42
-3 42 17 0 114 -92 139 -130 45 -73 52 -92 60 -155 l7 -60 31 63 c23 45 28 62
18 62 -8 0 -14 -7 -14 -15 0 -33 -17 -12 -29 38 -13 52 -58 157 -71 167 -4 3
-12 15 -19 28 -11 22 -11 22 8 10 12 -7 21 -16 21 -20z m-2530 12 c0 -5 -4
-10 -10 -10 -5 0 -10 5 -10 10 0 6 5 10 10 10 6 0 10 -4 10 -10z m1705 -85
c-17 -13 -37 -31 -45 -38 -38 -36 -144 -117 -153 -117 -6 0 0 12 14 27 13 15
38 42 54 61 59 67 77 80 113 89 49 13 52 7 17 -22z m524 -6 c28 -37 15 -59
-33 -58 -29 0 -30 1 -8 11 12 6 22 17 22 25 0 11 -4 11 -20 3 -21 -11 -29 3
-10 15 6 4 8 15 5 26 -9 28 17 15 44 -22z m-1544 11 c4 -6 15 -8 24 -5 10 3
23 -1 30 -9 9 -11 1 -18 -46 -36 -32 -12 -67 -26 -78 -31 -11 -4 -45 -16 -75
-25 -30 -10 -57 -20 -60 -24 -8 -11 -50 -19 -50 -10 0 5 8 14 18 20 12 8 13
13 5 16 -16 7 -16 23 -1 56 11 23 24 29 88 41 94 18 137 20 145 7z m2099 -9
c7 -11 -49 -83 -58 -74 -3 3 -6 19 -6 35 0 21 5 28 20 28 11 0 20 5 20 10 0
12 17 13 24 1z m-1294 -10 c0 -4 -10 -20 -22 -34 -13 -14 -36 -44 -52 -68 -29
-42 -48 -39 -28 4 5 12 13 36 18 52 8 26 35 44 82 54 1 1 2 -3 2 -8z m195 -67
c-25 -37 -45 -72 -45 -79 0 -6 -17 -19 -37 -28 -21 -9 -64 -27 -96 -40 -54
-24 -91 -21 -47 3 12 6 29 18 38 26 9 9 55 45 102 82 47 37 93 75 102 85 34
33 28 17 -17 -49z m-1945 16 c0 -5 -15 -10 -32 -10 -25 0 -29 3 -18 10 20 13
50 13 50 0z m2466 -45 c-23 -19 -32 -20 -52 -11 -32 15 -26 28 16 33 18 2 36
5 38 8 3 2 9 2 15 -2 6 -4 -1 -16 -17 -28z m-2541 15 c-27 -12 -43 -12 -25 0
8 5 22 9 30 9 10 0 8 -3 -5 -9z m2684 -132 c1 -15 -3 -16 -31 -6 -18 6 -41 18
-50 26 -16 14 -16 16 7 44 14 16 25 35 26 41 1 17 48 -84 48 -105z m-129 77
c-7 -8 -17 -12 -23 -8 -6 4 -3 11 8 19 23 17 32 10 15 -11z m-90 5 c0 -5 -7
-10 -15 -10 -8 0 -15 5 -15 10 0 6 7 10 15 10 8 0 15 -4 15 -10z m-60 -4 c0
-3 -4 -8 -10 -11 -5 -3 -10 -1 -10 4 0 6 5 11 10 11 6 0 10 -2 10 -4z m100
-35 c0 -10 -79 -51 -98 -51 -21 0 17 48 41 53 40 8 57 7 57 -2z m84 -60 c10
-11 39 -25 66 -31 55 -13 54 -9 66 -177 l6 -92 -50 3 c-28 2 -53 1 -56 -1 -6
-7 31 -37 57 -46 23 -9 22 -27 -3 -27 -11 0 -20 4 -20 9 0 10 -10 14 -62 25
-23 5 -28 3 -28 -14 0 -13 10 -22 33 -29 l32 -9 -32 -1 c-28 -1 -35 4 -52 42
-12 23 -31 60 -44 82 -12 22 -35 69 -50 105 -15 36 -32 73 -38 82 -12 24 -12
28 6 28 8 0 15 4 15 8 0 5 17 14 39 20 21 7 44 19 51 27 17 21 43 19 64 -4z
m-1429 -91 c3 -5 1 -10 -4 -10 -6 0 -11 5 -11 10 0 6 2 10 4 10 3 0 8 -4 11
-10z m1185 -20 c0 -5 11 -34 25 -64 14 -30 25 -57 25 -61 0 -10 89 -188 107
-212 15 -22 14 -23 -6 -23 -11 0 -21 -6 -21 -12 0 -7 -22 -34 -49 -60 -42 -40
-53 -46 -81 -43 -19 3 -37 10 -41 17 -5 7 -14 13 -21 14 -7 0 -29 6 -49 14
-39 14 -49 38 -49 118 0 35 11 39 50 17 15 -8 53 -14 94 -15 69 0 85 10 24 16
-89 9 -158 27 -158 41 0 55 35 140 76 187 24 28 44 56 44 63 0 7 7 13 15 13 8
0 15 -4 15 -10z m-1351 -79 c23 -18 22 -41 -2 -41 -16 0 -58 46 -50 54 11 10
27 6 52 -13z m1774 -58 c4 -19 2 -33 -3 -33 -6 0 -10 13 -10 29 0 16 -3 38 -6
48 -4 14 -4 15 4 3 5 -8 12 -30 15 -47z m-1906 7 c1 -11 -4 -20 -12 -20 -22 0
-27 18 -8 29 10 6 18 11 18 11 1 0 1 -9 2 -20z m73 -9 c0 -5 -7 -12 -16 -15
-14 -5 -15 -4 -4 9 14 17 20 19 20 6z m-100 -21 c10 0 21 -4 25 -9 8 -14 -28
-31 -52 -25 -15 4 -22 0 -26 -15 -3 -13 -13 -21 -26 -21 -12 0 -24 -6 -27 -14
-3 -8 -18 -18 -34 -21 -16 -3 -34 -12 -40 -20 -6 -8 -19 -11 -27 -8 -12 5 -15
2 -11 -9 4 -9 1 -15 -5 -15 -39 1 -57 -8 -104 -52 -54 -49 -63 -66 -40 -74 6
-2 8 -8 4 -13 -4 -5 -13 -2 -18 6 -8 12 -10 10 -6 -8 3 -12 2 -20 -2 -18 -4 3
-24 1 -45 -4 -47 -10 -67 -4 -59 18 4 11 -1 8 -13 -6 -20 -25 -54 -22 -54 4 0
19 10 18 26 -3 12 -17 13 -16 14 5 0 12 -4 22 -10 22 -5 0 -10 5 -10 11 0 6 7
8 17 5 10 -4 23 1 35 14 10 11 26 20 34 20 11 0 14 6 10 16 -4 10 -1 14 6 12
21 -7 21 -29 -1 -35 -11 -3 -18 -10 -15 -15 3 -5 14 -2 24 7 17 16 18 15 13
-27 -5 -42 -5 -43 12 -20 9 13 15 31 13 40 -3 10 1 23 9 30 7 7 13 22 13 32 0
13 9 22 25 26 14 3 29 13 34 21 4 8 23 15 42 16 19 1 45 12 59 25 14 12 30 22
37 22 7 0 10 7 6 16 -4 12 0 14 22 8 17 -4 26 -3 22 2 -7 12 47 57 77 65 12 3
23 2 24 -3 2 -4 12 -8 22 -8z m245 10 c-27 -12 -35 -12 -35 0 0 6 12 10 28 9
24 0 25 -1 7 -9z m64 -69 c-5 -1 -2 -9 7 -15 15 -11 7 -17 -59 -44 -42 -18
-89 -32 -105 -32 -21 0 -35 -8 -46 -25 -9 -14 -24 -25 -34 -25 -19 -1 -89 -56
-81 -65 3 -2 22 4 42 15 51 28 81 27 72 -1 -7 -21 -5 -22 31 -16 21 4 42 13
46 22 5 8 19 15 31 15 l21 0 -22 -16 c-13 -9 -27 -26 -32 -38 -9 -24 -73 -49
-87 -35 -12 12 -74 -32 -71 -50 4 -20 28 -26 28 -8 0 19 22 27 51 20 17 -5 20
-3 14 7 -6 9 -4 11 4 5 8 -4 21 1 32 14 11 12 27 21 37 21 13 -1 11 -6 -10
-25 -16 -13 -28 -32 -28 -41 0 -14 -2 -14 -16 -3 -13 11 -18 10 -32 -8 -19
-22 -72 -40 -72 -23 0 5 -15 10 -32 10 l-33 -1 30 -16 30 -17 -40 -9 c-22 -6
-42 -13 -45 -17 -14 -19 -45 -28 -64 -18 -26 14 -118 2 -128 -17 -13 -22 -55
-19 -61 4 -3 14 0 17 13 14 10 -3 26 5 38 17 11 12 22 18 25 13 3 -5 22 -7 42
-5 32 4 34 6 18 17 -17 13 -17 13 2 12 13 -1 20 4 19 15 -1 14 2 16 18 7 23
-12 37 -4 20 13 -9 9 -4 16 19 30 27 17 32 38 8 38 -6 0 -7 -4 -4 -10 3 -6 -1
-7 -9 -4 -18 7 -22 24 -6 24 6 0 10 7 10 16 0 8 4 12 10 9 6 -3 7 1 4 9 -3 9
-10 16 -15 16 -18 0 -8 31 16 52 15 13 24 30 23 45 -3 27 -11 29 -33 7 -9 -9
-18 -14 -21 -11 -6 6 41 42 98 76 29 17 37 19 32 7 -3 -8 -21 -21 -40 -28 -31
-11 -32 -13 -15 -20 11 -4 23 -19 27 -33 4 -18 13 -25 29 -25 24 0 41 25 24
36 -19 11 20 41 94 69 39 15 82 32 93 37 12 6 31 7 42 4 11 -4 23 -2 27 5 6 8
10 7 16 -2 5 -8 4 -15 -2 -18z m1389 -72 c-9 -6 -8 -10 4 -14 16 -6 14 -35 -2
-35 -10 0 -64 94 -75 130 -6 20 2 15 39 -24 33 -35 43 -52 34 -57z m-1318 62
c0 -19 -22 -23 -38 -7 -15 15 -14 16 11 16 15 0 27 -4 27 -9z m-600 -21 c-11
-21 -22 -25 -34 -13 -3 4 4 13 16 20 30 16 30 16 18 -7z m-1785 -70 c-3 -5
-11 -10 -16 -10 -6 0 -7 5 -4 10 3 6 11 10 16 10 6 0 7 -4 4 -10z m2425 -22
c0 -14 -50 -41 -59 -32 -6 6 38 43 52 44 4 0 7 -6 7 -12z m-540 -2 c0 -3 -4
-8 -10 -11 -5 -3 -10 -1 -10 4 0 6 5 11 10 11 6 0 10 -2 10 -4z m-2002 -34
c-42 -53 -93 -82 -117 -67 -18 11 -12 20 22 33 59 25 79 37 84 49 3 7 9 10 15
7 5 -3 4 -13 -4 -22z m1731 2 c-14 -18 -24 -11 -15 11 3 9 11 13 16 10 8 -5 7
-11 -1 -21z m2118 20 c-3 -3 -12 -4 -19 -1 -8 3 -5 6 6 6 11 1 17 -2 13 -5z
m-42 -24 c3 -6 -2 -13 -12 -17 -10 -3 -26 -13 -35 -21 -26 -22 -22 -3 5 23 25
26 33 29 42 15z m-2012 -34 c-10 -13 -19 -20 -21 -15 -4 10 19 38 31 39 4 0 0
-11 -10 -24z m657 14 c0 -5 -9 -14 -20 -20 -22 -12 -27 -1 -8 18 14 14 28 16
28 2z m-2440 -70 c0 -5 -4 -10 -9 -10 -6 0 -13 5 -16 10 -3 6 1 10 9 10 9 0
16 -4 16 -10z m950 -14 c0 -2 -7 -9 -15 -16 -13 -11 -14 -10 -9 4 5 14 24 23
24 12z m-45 -16 c3 -5 1 -10 -4 -10 -6 0 -11 5 -11 10 0 6 2 10 4 10 3 0 8 -4
11 -10z m499 -15 c-7 -17 -20 -20 -28 -6 -4 5 0 12 6 14 23 9 28 7 22 -8z
m153 -17 c-3 -8 -6 -5 -6 6 -1 11 2 17 5 13 3 -3 4 -12 1 -19z m-727 -28 c0
-6 -15 -17 -32 -25 -18 -8 -26 -14 -18 -15 13 0 13 -1 0 -10 -9 -6 -17 -5 -21
2 -5 7 -14 5 -30 -6 -13 -9 -31 -16 -41 -16 -10 0 -28 -11 -40 -25 -16 -19
-24 -22 -30 -13 -6 10 -8 10 -8 1 0 -7 -9 -17 -21 -23 -27 -15 -56 5 -38 26 6
8 17 14 24 14 7 0 26 7 41 15 16 8 37 15 46 15 9 0 21 7 26 17 6 10 16 14 26
10 10 -4 19 -1 22 7 8 21 36 29 46 14 6 -10 11 -9 19 5 11 19 29 23 29 7z
m1067 -26 c-3 -3 -12 -4 -19 -1 -8 3 -5 6 6 6 11 1 17 -2 13 -5z m8768 -64
c-4 -12 -9 -19 -12 -17 -3 3 -2 15 2 27 4 12 9 19 12 17 3 -3 2 -15 -2 -27z
m-8885 -30 c0 -5 -4 -10 -10 -10 -5 0 -10 5 -10 10 0 6 5 10 10 10 6 0 10 -4
10 -10z m-1274 -21 c8 -14 -14 -29 -33 -22 -10 4 -11 9 -2 19 14 17 25 18 35
3z m1232 -7 c-10 -2 -18 -8 -18 -13 0 -5 -7 -9 -15 -9 -8 0 -15 4 -15 8 0 17
23 29 43 24 18 -5 19 -7 5 -10z m-1193 -12 c-3 -5 -12 -10 -18 -10 -7 0 -6 4
3 10 19 12 23 12 15 0z m1065 -20 c0 -12 -62 -50 -72 -44 -14 9 2 24 24 24 11
0 22 8 25 20 5 19 23 19 23 0z m-1207 -14 c4 -10 0 -12 -14 -9 -10 3 -16 9
-13 14 8 13 21 11 27 -5z m1607 -25 c0 -18 -32 -34 -70 -34 -22 0 -45 -6 -51
-13 -6 -8 -19 -14 -28 -14 -9 0 -28 -6 -43 -14 -15 -8 -42 -17 -60 -21 -32 -7
-33 -7 -15 12 10 12 36 23 59 26 22 3 44 9 47 14 24 33 161 71 161 44z m2664
-47 c3 -26 6 -60 6 -77 0 -28 -2 -29 -32 -23 -47 9 -62 28 -54 68 7 37 38 78
60 78 8 0 16 -18 20 -46z m-5254 7 c-6 -12 -15 -21 -21 -21 -5 0 -2 11 8 24
21 28 29 27 13 -3z m2062 -36 c5 -44 -21 -101 -46 -97 -12 2 -21 -7 -29 -27
-6 -17 -15 -31 -19 -31 -15 0 -86 52 -92 67 -9 23 25 63 49 56 11 -3 17 -2 13
2 -11 12 21 38 47 38 14 0 30 6 36 13 20 24 37 15 41 -21z m-1258 9 c14 -5 13
-9 -6 -25 -21 -19 -40 -22 -39 -6 1 4 1 14 1 22 0 16 17 19 44 9z m-851 -35
c-20 -34 -43 -57 -43 -42 0 8 51 73 58 73 2 0 -5 -14 -15 -31z m697 1 c0 -5
-2 -10 -4 -10 -3 0 -8 5 -11 10 -3 6 -1 10 4 10 6 0 11 -4 11 -10z m1190 0 c0
-5 -5 -10 -11 -10 -5 0 -7 5 -4 10 3 6 8 10 11 10 2 0 4 -4 4 -10z m457 -6
c-3 -3 -12 -4 -19 -1 -8 3 -5 6 6 6 11 1 17 -2 13 -5z m-1649 -32 c7 -5 10
-16 6 -25 -3 -9 -9 -15 -14 -12 -4 2 -28 -9 -54 -25 -26 -17 -51 -30 -56 -30
-4 0 -10 -3 -12 -7 -1 -5 -17 -18 -35 -30 -37 -27 -65 -30 -57 -8 4 8 12 15
19 15 8 0 23 12 35 27 12 15 29 28 38 28 10 0 17 8 17 20 0 13 6 19 18 17 9
-2 20 4 23 12 3 8 12 12 20 9 8 -3 14 0 14 6 0 13 19 14 38 3z m2021 -43 c-51
-61 -84 -85 -102 -72 -15 11 -59 8 -144 -10 -37 -8 -81 -13 -98 -12 -94 6 -91
6 -70 15 12 4 27 15 34 24 7 9 24 16 37 16 12 0 29 6 36 14 15 14 114 43 123
35 2 -3 6 -16 8 -30 2 -13 7 -23 10 -21 4 1 12 2 17 2 6 0 10 6 10 13 0 19 52
65 57 51 3 -8 18 -6 51 6 73 28 77 24 31 -31z m-857 -14 c-2 -14 -8 -25 -13
-25 -5 0 -9 -6 -9 -12 0 -9 -18 -14 -50 -15 -28 -1 -50 2 -50 8 0 5 -7 9 -16
9 -8 0 -12 -4 -9 -10 10 -16 -5 -12 -23 7 -16 16 -16 16 0 10 10 -3 20 -2 23
2 3 5 14 7 25 4 12 -3 28 1 38 10 18 16 59 35 78 36 7 1 9 -9 6 -24z m395 19
c-3 -3 -12 -4 -19 -1 -8 3 -5 6 6 6 11 1 17 -2 13 -5z m-324 -42 c16 -17 15
-18 -18 -18 -38 1 -42 5 -23 24 16 16 22 15 41 -6z m4735 -10 c154 -160 366
-385 383 -405 l20 -27 -28 0 c-16 0 -68 20 -116 45 -48 25 -94 45 -102 45 -7
0 -25 15 -39 33 -15 17 -30 37 -35 43 -4 5 -14 21 -21 35 -7 13 -19 28 -26 32
-8 4 -14 15 -14 23 0 8 -3 13 -8 10 -9 -5 -27 9 -71 57 -31 33 -33 38 -20 54
8 10 21 30 29 46 16 32 24 33 48 9z m-278 -47 c7 -9 8 -15 2 -15 -5 0 -12 7
-16 15 -3 8 -4 15 -2 15 2 0 9 -7 16 -15z m-4575 -11 c-10 -8 -27 -14 -37 -14
-10 0 -18 6 -18 14 0 9 12 14 37 14 35 0 36 -1 18 -14z m-77 -32 c2 -6 -4 -12
-13 -12 -9 0 -29 -8 -43 -18 -41 -28 -62 -33 -109 -26 -33 5 -43 10 -39 21 3
8 2 11 -3 8 -5 -3 -13 0 -17 6 -5 8 1 10 20 7 14 -3 26 -2 26 2 0 4 12 12 26
19 21 9 31 8 54 -6 16 -9 33 -13 37 -9 4 5 2 11 -4 13 -7 3 -13 8 -13 12 0 13
73 -3 78 -17z m147 -11 c-3 -6 -14 -11 -23 -11 -15 1 -15 2 2 15 21 16 32 13
21 -4z m4572 -3 c29 -33 40 -53 22 -43 -23 13 -59 48 -59 57 0 15 16 8 37 -14z
m-377 -3 c0 -2 -10 -14 -22 -25 l-22 -21 29 -24 c17 -13 100 -63 185 -111 155
-88 155 -88 323 -257 92 -93 167 -172 167 -176 0 -9 -103 21 -170 49 -25 11
-62 22 -83 26 -21 4 -44 13 -52 20 -7 8 -18 14 -23 14 -5 0 -16 7 -23 16 -7 9
-44 36 -82 61 -38 25 -66 47 -63 50 4 5 60 -4 236 -37 25 -5 46 -7 48 -5 6 5
-101 70 -111 67 -14 -4 -110 20 -122 30 -6 6 -4 14 8 22 21 16 22 26 2 26 -8
0 -22 -11 -31 -25 -15 -23 -18 -23 -42 -11 -15 7 -52 19 -82 26 -30 7 -63 20
-74 29 -19 17 -90 159 -101 202 -5 20 -2 28 11 33 10 4 21 1 25 -5 4 -8 13 -5
28 10 19 19 41 28 41 16z m-262 -35 c20 0 52 -29 52 -48 0 -9 23 -42 51 -75
37 -42 47 -58 33 -56 -10 2 -24 0 -31 -4 -6 -4 -31 11 -60 38 -26 25 -51 45
-54 45 -4 0 -14 11 -23 25 -23 36 -15 31 40 -20 26 -25 51 -45 56 -45 6 0 -2
21 -16 46 -14 26 -26 53 -26 61 0 7 -11 18 -25 23 -14 5 -25 15 -24 22 0 10 2
10 6 1 2 -7 12 -13 21 -13z m123 -60 l18 -55 -35 40 c-20 22 -40 48 -46 58 -8
16 -6 18 18 15 23 -3 30 -11 45 -58z m-5611 20 c0 -5 -5 -10 -11 -10 -5 0 -7
5 -4 10 3 6 8 10 11 10 2 0 4 -4 4 -10z m1122 -94 c6 4 5 -2 -2 -15 -13 -24
-21 -29 -65 -34 -16 -1 -41 -9 -55 -17 -14 -7 -26 -13 -27 -12 -2 1 -20 -6
-40 -15 -21 -9 -66 -18 -100 -21 -53 -4 -63 -2 -63 12 0 9 8 16 20 16 11 0 20
4 20 10 0 5 16 17 36 26 29 14 44 15 80 7 24 -6 44 -6 44 -2 0 5 -9 9 -21 9
-32 0 -17 23 22 35 19 5 43 15 53 21 15 9 26 8 53 -7 19 -11 39 -17 45 -13z
m10153 -36 c-3 -5 -13 -10 -21 -10 -8 0 -12 5 -9 10 3 6 13 10 21 10 8 0 12
-4 9 -10z m-9871 -177 c-3 -10 -10 -27 -14 -38 -5 -11 -14 -39 -20 -62 l-11
-43 -77 3 c-42 1 -80 6 -83 11 -4 5 -15 5 -25 1 -11 -5 -23 -7 -28 -6 -4 1
-14 -4 -22 -10 -8 -7 -18 -9 -21 -5 -12 11 12 41 36 44 11 2 21 8 21 13 0 5
12 15 28 21 l27 11 -39 9 c-25 5 -43 5 -52 -2 -7 -6 -18 -10 -26 -9 -21 4 -72
-12 -90 -29 -15 -12 -18 -13 -18 -1 1 36 31 54 106 64 41 6 78 7 83 2 11 -11
134 11 143 26 6 9 11 8 17 -3 9 -12 11 -12 17 3 9 24 55 23 48 0z m345 -24
c29 -6 46 -6 50 0 4 6 16 2 31 -9 21 -16 22 -20 10 -35 -12 -14 -12 -18 1 -26
12 -7 11 -9 -2 -9 -16 0 -36 -47 -24 -58 3 -3 5 2 5 11 0 9 9 21 21 28 19 10
20 9 14 -12 -8 -25 -29 -49 -42 -49 -4 0 -21 -11 -37 -25 -16 -14 -31 -25 -33
-25 -9 0 -1 20 13 34 8 9 12 21 9 26 -4 6 -20 -7 -36 -30 -21 -29 -35 -40 -46
-35 -9 3 -42 8 -73 12 -31 3 -64 11 -74 18 -17 13 -17 15 -1 49 10 20 23 36
29 36 7 0 13 6 13 14 0 8 -6 12 -15 8 -10 -3 -13 -1 -8 6 4 7 2 12 -3 12 -6 0
-11 -4 -11 -10 0 -5 -7 -7 -15 -4 -8 4 -15 1 -15 -7 0 -7 -3 -9 -6 -6 -4 3
-15 2 -26 -4 -18 -10 -19 -8 -13 13 4 12 11 25 14 28 4 3 12 18 19 33 l12 28
97 -1 c54 -1 118 -6 142 -11z m3465 -31 c-4 -6 -10 -5 -15 3 -14 22 -10 33 6
19 8 -7 12 -17 9 -22z m-4287 -45 c-3 -3 -22 -7 -42 -10 -32 -4 -36 -2 -33 14
4 22 71 36 76 15 2 -8 1 -16 -1 -19z m-92 -3 c3 -5 -3 -10 -15 -10 -12 0 -18
5 -15 10 3 6 10 10 15 10 5 0 12 -4 15 -10z m5065 -89 c12 -12 10 -11 -9 0
-14 9 -27 22 -29 30 -3 11 -1 11 10 -1 8 -8 20 -21 28 -29z m-4386 4 c-6 -16
-24 -21 -24 -7 0 11 11 22 21 22 5 0 6 -7 3 -15z m-1034 -54 c0 -10 -24 -21
-46 -21 -20 0 -17 18 4 23 29 8 42 7 42 -2z m-82 -43 c-6 -16 -102 -48 -117
-38 -8 4 6 15 36 28 54 24 87 28 81 10z m529 -20 c-3 -8 -6 -5 -6 6 -1 11 2
17 5 13 3 -3 4 -12 1 -19z m-317 -104 c0 -8 -4 -12 -10 -9 -5 3 -10 10 -10 16
0 5 5 9 10 9 6 0 10 -7 10 -16z m73 9 c-7 -2 -19 -2 -25 0 -7 3 -2 5 12 5 14
0 19 -2 13 -5z m8896 -15 c-9 -16 -14 -19 -17 -9 -2 7 2 17 9 22 20 13 21 11
8 -13z m-2629 -38 c0 -5 -4 -10 -10 -10 -5 0 -10 5 -10 10 0 6 5 10 10 10 6 0
10 -4 10 -10z m-6913 -83 c4 -6 -7 -8 -28 -4 -23 3 -40 0 -52 -11 -12 -11 -21
-12 -28 -5 -13 13 7 30 41 35 31 5 58 -1 67 -15z m6661 -165 c6 -18 -15 -14
-22 4 -4 10 -1 14 6 12 6 -2 14 -10 16 -16z m-5348 -176 c0 -3 -4 -8 -10 -11
-5 -3 -10 -1 -10 4 0 6 5 11 10 11 6 0 10 -2 10 -4z m-80 -184 c0 -7 -4 -10
-10 -7 -5 3 -10 16 -10 28 0 18 2 19 10 7 5 -8 10 -21 10 -28z m6070 -74 c0
-6 -7 -5 -15 2 -8 7 -15 17 -15 22 0 6 7 5 15 -2 8 -7 15 -17 15 -22z m2303
-45 c-3 -7 -10 -13 -15 -13 -6 0 -7 7 -4 16 3 9 6 23 7 32 0 13 2 13 8 -3 5
-11 6 -26 4 -32z m-998 -437 c22 -17 43 -36 47 -42 5 -7 28 -22 53 -34 25 -12
43 -26 39 -31 -3 -5 3 -9 13 -9 25 -1 54 -25 50 -41 -2 -8 -2 -11 0 -6 9 14
21 7 17 -11 -5 -16 73 -102 93 -102 4 0 3 4 -3 8 -6 4 -15 18 -19 31 l-7 24
28 -21 c39 -27 65 -53 89 -86 11 -15 28 -37 38 -48 20 -25 19 -21 22 -78 l3
-44 -38 44 c-22 25 -51 57 -64 71 -25 27 -24 48 1 27 11 -8 12 -7 7 5 -3 9
-18 19 -33 22 -16 3 -37 16 -48 28 -41 46 -266 246 -351 312 -28 22 -53 46
-56 52 -6 14 58 -24 119 -71z m-192 15 c20 -23 43 -41 51 -41 21 0 29 -17 11
-23 -8 -4 -37 17 -74 53 -34 33 -61 62 -61 65 0 13 39 -16 73 -54z m102 -80
c7 -12 -12 -24 -25 -16 -11 7 -4 25 10 25 5 0 11 -4 15 -9z m60 -52 c16 -16
-19 -9 -40 7 -19 16 -19 16 5 9 14 -4 29 -11 35 -16z m41 -34 c10 -8 14 -15 8
-15 -5 0 -19 7 -30 15 -10 8 -14 15 -8 15 5 0 19 -7 30 -15z m-7 -45 c6 0 11
-4 11 -10 0 -5 -5 -10 -12 -10 -16 0 -78 49 -78 62 0 6 15 -1 34 -16 19 -14
39 -26 45 -26z m46 10 c3 -6 -1 -7 -9 -4 -18 7 -21 14 -7 14 6 0 13 -4 16 -10z
m224 -9 c9 -6 10 -11 2 -15 -6 -4 -11 -3 -11 3 0 5 -8 12 -17 14 -13 3 -14 5
-3 6 8 0 21 -3 29 -8z m-768 -58 c50 -47 119 -146 119 -173 0 -11 4 -20 9 -20
5 0 11 -9 14 -19 3 -13 -1 -21 -14 -24 -19 -5 -27 -27 -9 -27 5 0 7 -6 4 -14
-5 -13 33 -46 68 -59 13 -4 15 -2 11 10 -4 11 -2 14 5 9 7 -4 12 -14 12 -22 0
-9 7 -14 17 -12 11 2 19 -5 21 -17 3 -11 14 -28 25 -37 11 -10 18 -21 14 -24
-6 -6 -113 63 -141 91 -12 13 -16 13 -16 3 0 -8 18 -25 40 -38 22 -14 40 -28
40 -32 0 -4 12 -14 28 -22 15 -8 43 -28 62 -45 19 -17 39 -31 43 -31 5 0 15
-7 23 -15 13 -13 12 -17 -8 -38 -38 -38 -59 -46 -85 -34 -13 5 -23 14 -23 18
0 18 -62 99 -76 99 -8 0 -14 5 -14 11 0 5 5 7 10 4 6 -3 10 -1 10 4 0 6 -9 11
-21 11 -11 0 -17 5 -14 10 3 6 1 10 -6 10 -6 0 -9 8 -6 20 3 11 1 20 -4 20 -5
0 -9 7 -9 15 0 8 -5 15 -11 15 -8 0 -8 4 -1 13 8 9 6 16 -7 24 -22 14 -32 58
-17 73 8 8 5 12 -9 16 -13 3 -31 29 -50 70 -16 36 -36 70 -42 76 -7 6 -13 23
-13 39 0 15 -7 34 -15 43 -15 14 -20 36 -10 36 3 0 24 -17 46 -37z m649 -33
c18 -12 2 -12 -25 0 -13 6 -15 9 -5 9 8 0 22 -4 30 -9z m-1600 -10 c0 -5 -2
-10 -4 -10 -3 0 -8 5 -11 10 -3 6 -1 10 4 10 6 0 11 -4 11 -10z m1640 -20 c8
-5 11 -10 5 -10 -5 0 -17 5 -25 10 -8 5 -10 10 -5 10 6 0 17 -5 25 -10z
m-7671 -285 c5 -38 12 -99 16 -135 3 -36 9 -73 11 -83 3 -11 -1 -20 -13 -24
-46 -16 -61 -67 -65 -230 -1 -29 -5 -53 -10 -53 -4 0 -16 21 -28 48 -11 26
-30 54 -42 63 -25 20 -28 -3 66 526 8 45 18 88 22 95 9 13 25 -64 43 -207z
m8181 65 c0 -5 -4 -10 -10 -10 -5 0 -10 5 -10 10 0 6 5 10 10 10 6 0 10 -4 10
-10z m-836 -50 c33 -26 120 -102 139 -122 30 -31 -5 -95 -38 -68 -12 10 -18
10 -32 -1 -11 -10 -14 -10 -9 -1 5 8 0 12 -13 12 -26 0 -76 51 -78 79 -2 25
19 19 54 -17 20 -20 27 -22 33 -11 7 11 15 9 39 -9 35 -25 41 -27 41 -9 0 7
-15 17 -32 23 -19 5 -32 15 -30 23 2 8 -3 11 -13 8 -9 -4 -15 -1 -15 7 0 18
-27 39 -51 41 -10 1 -27 9 -37 18 -10 9 -25 17 -33 17 -9 0 -10 3 -3 8 6 4 14
15 17 26 6 16 10 16 24 5 10 -8 26 -21 37 -29z m-654 -34 c0 -26 -6 -18 -14
19 -5 22 -4 26 4 15 5 -8 10 -24 10 -34z m1295 14 c3 -5 1 -10 -4 -10 -6 0
-11 5 -11 10 0 6 2 10 4 10 3 0 8 -4 11 -10z m1530 -37 c-5 -23 -4 -26 6 -15
17 16 29 15 29 -2 0 -7 7 -19 15 -26 8 -7 14 -22 13 -34 0 -11 3 -30 7 -41 6
-12 -10 -3 -40 25 -39 35 -50 52 -52 82 -3 30 -1 38 13 38 13 0 15 -6 9 -27z
m-1858 -19 c2 -13 1 -15 -4 -4 -3 8 -11 19 -17 23 -7 6 -6 7 4 4 8 -2 16 -12
17 -23z m-782 -41 c4 -14 2 -23 -4 -23 -12 0 -41 52 -41 72 0 18 36 -22 45
-49z m435 13 c0 -3 -4 -8 -10 -11 -5 -3 -10 -1 -10 4 0 6 5 11 10 11 6 0 10
-2 10 -4z m-512 -78 c-6 -18 -25 -21 -25 -3 0 8 7 15 15 15 7 0 12 -5 10 -12z
m22 -18 c0 -5 -4 -10 -10 -10 -5 0 -10 5 -10 10 0 6 5 10 10 10 6 0 10 -4 10
-10z m1546 -157 c-10 -10 -19 5 -10 18 6 11 8 11 12 0 2 -7 1 -15 -2 -18z m4
-53 c0 -5 -2 -10 -4 -10 -3 0 -8 5 -11 10 -3 6 -1 10 4 10 6 0 11 -4 11 -10z
m-790 -55 c0 -8 -4 -15 -9 -15 -5 0 -11 7 -15 15 -3 9 0 15 9 15 8 0 15 -7 15
-15z m-123 -49 c-7 -7 -24 -16 -37 -20 -24 -7 -24 -6 4 18 30 25 58 26 33 2z
m853 -16 c-6 -11 -13 -20 -16 -20 -2 0 0 9 6 20 6 11 13 20 16 20 2 0 0 -9 -6
-20z m16 -57 c-7 -7 -26 7 -26 19 0 6 6 6 15 -2 9 -7 13 -15 11 -17z m-36 -15
c0 -7 -5 -20 -10 -28 -8 -12 -10 -9 -10 13 0 15 5 27 10 27 6 0 10 -6 10 -12z
m50 -64 c0 -8 -7 -14 -15 -14 -15 0 -21 21 -9 33 10 9 24 -2 24 -19z m850 4
c14 -6 32 -14 41 -18 9 -5 36 -14 59 -20 24 -6 60 -23 82 -36 21 -13 69 -41
106 -61 37 -20 69 -39 72 -42 9 -11 69 -51 77 -51 4 -1 32 -23 62 -50 30 -28
60 -50 67 -50 6 0 14 -7 18 -15 3 -8 11 -12 19 -10 7 3 27 -7 45 -23 31 -28
47 -77 45 -139 -1 -14 4 -20 13 -16 10 4 12 0 8 -11 -3 -9 0 -26 8 -39 18 -27
30 -105 17 -113 -10 -6 -12 -25 -11 -157 1 -53 -3 -85 -8 -82 -6 4 -10 12 -10
20 0 8 -8 20 -18 27 -10 7 -24 22 -30 33 -11 20 -11 20 -12 -2 0 -12 -9 -28
-20 -36 -13 -9 -19 -22 -17 -38 4 -22 27 -41 27 -21 0 16 33 24 41 10 5 -8 2
-15 -8 -19 -12 -4 -16 -24 -18 -100 -5 -151 -32 -241 -69 -235 -12 2 -16 1 -9
-1 18 -7 20 -24 8 -78 l-11 -50 -27 59 c-15 32 -27 60 -27 63 0 2 -9 25 -21
51 -38 84 -46 106 -80 212 -18 58 -36 107 -39 110 -3 3 -11 23 -19 45 -15 43
-57 137 -127 281 -24 50 -44 94 -44 98 0 4 -14 27 -31 52 -16 24 -37 59 -45
77 -8 17 -26 52 -39 76 -14 24 -25 52 -25 61 0 10 -10 24 -22 32 -13 9 -26 33
-32 59 -8 32 -16 44 -29 43 -22 -2 -21 4 3 41 22 33 26 50 9 40 -11 -7 -49 22
-49 37 0 10 27 4 70 -14z m-2703 0 c22 -34 30 -151 22 -333 -11 -277 -37 -697
-50 -795 -5 -47 -13 -111 -16 -142 -3 -32 -10 -58 -15 -58 -6 0 -7 11 -3 28
12 41 15 904 4 1014 -5 53 -16 117 -23 142 -13 41 -12 46 5 62 11 10 19 12 19
6 0 -7 4 -12 8 -12 5 0 7 13 4 29 -7 48 25 89 45 59z m1854 -289 c-5 -13 -10
-19 -10 -12 -1 15 10 45 15 40 3 -2 0 -15 -5 -28z m44 -99 c3 -5 1 -10 -4 -10
-6 0 -11 5 -11 10 0 6 2 10 4 10 3 0 8 -4 11 -10z m38 -73 c-4 -12 -12 -31
-20 -42 -7 -11 -13 -27 -13 -37 0 -9 -6 -23 -13 -30 -7 -7 -20 -35 -29 -63 -9
-27 -25 -72 -36 -100 -11 -27 -29 -72 -40 -100 -18 -45 -47 -76 -41 -44 2 8
-5 32 -14 53 -14 33 -15 46 -6 75 6 20 15 41 19 46 4 6 10 27 14 47 4 21 12
43 19 50 17 18 37 65 37 88 0 11 7 20 15 20 17 0 20 -21 4 -37 -8 -8 -8 -13 0
-17 6 -4 11 -1 11 7 0 8 9 17 21 20 13 3 19 1 16 -6 -3 -7 -10 -11 -16 -9 -16
3 -14 -15 3 -21 10 -4 19 5 26 30 7 19 18 47 26 61 7 14 10 30 7 35 -3 6 -1 7
5 4 5 -4 8 -17 5 -30z m-36 1 c-3 -8 -6 -5 -6 6 -1 11 2 17 5 13 3 -3 4 -12 1
-19z m-38 -43 l0 -20 -9 20 c-5 11 -9 29 -9 40 l0 20 9 -20 c5 -11 9 -29 9
-40z m1578 -67 c-3 -8 -6 -5 -6 6 -1 11 2 17 5 13 3 -3 4 -12 1 -19z m-547
-289 c0 -24 157 -327 187 -360 19 -21 33 -44 31 -50 -7 -21 -328 308 -328 335
0 6 16 22 35 36 19 14 37 33 40 42 6 17 35 14 35 -3z m-1178 -55 c14 -36 13
-84 -2 -84 -4 0 -10 19 -13 43 -2 23 -8 50 -12 60 -4 9 -3 17 3 17 5 0 16 -16
24 -36z m1703 -44 c3 -5 1 -10 -4 -10 -6 0 -11 5 -11 10 0 6 2 10 4 10 3 0 8
-4 11 -10z m-5861 -16 c3 -9 6 -25 6 -36 0 -17 -3 -18 -15 -8 -16 13 -21 60
-6 60 5 0 12 -7 15 -16z m-196 -14 c-7 -10 -14 -18 -15 -16 -6 6 9 36 18 36 5
0 4 -9 -3 -20z m5588 -245 c18 -26 18 -41 -1 -25 -8 7 -15 16 -15 20 0 5 -27
35 -60 67 -33 32 -60 64 -60 71 0 13 107 -91 136 -133z m599 63 c9 -96 3 -200
-11 -205 -7 -2 -14 8 -18 22 -4 14 -11 25 -16 25 -5 0 -7 7 -4 15 4 8 0 25 -8
38 -8 12 -18 44 -22 70 -7 47 -7 48 17 42 20 -5 27 -2 33 17 4 12 7 29 6 36
-2 6 1 12 7 12 5 0 12 -33 16 -72z m-6109 37 c8 -21 -6 -41 -17 -24 -12 19
-11 39 1 39 6 0 13 -7 16 -15z m4479 5 c7 -12 -2 -12 -30 0 -19 8 -19 9 2 9
12 1 25 -3 28 -9z m-95 -25 c-7 -8 -22 -14 -34 -14 -17 1 -18 2 -3 6 9 2 15 9
12 14 -4 5 4 9 16 9 18 0 19 -2 9 -15z m52 8 c-6 -2 -10 -9 -6 -14 3 -5 1 -9
-5 -9 -13 0 -22 15 -14 24 3 3 13 6 22 5 11 0 12 -2 3 -6z m113 -41 c-7 -8
-35 7 -35 18 0 6 7 6 20 -2 10 -7 17 -14 15 -16z m-32 -7 c20 -10 37 -22 37
-27 0 -9 -32 7 -70 36 -28 21 -23 19 33 -9z m82 -34 c-2 -2 -11 3 -19 12 -8 8
-12 17 -9 21 3 3 12 -2 19 -12 7 -9 11 -19 9 -21z m995 -38 c34 -32 70 -58 78
-58 16 0 24 -13 56 -87 14 -33 14 -38 1 -38 -8 0 -15 5 -15 11 0 5 -4 8 -8 5
-11 -7 -74 58 -66 67 4 4 2 7 -4 7 -7 0 -12 6 -12 13 0 7 -11 24 -25 39 -14
15 -25 30 -25 33 0 3 -13 19 -30 35 -28 28 -40 47 -21 36 5 -3 37 -32 71 -63z
m-5840 19 c0 -11 -55 -42 -90 -52 -56 -16 -29 27 32 50 42 16 58 17 58 2z
m4870 -2 c-8 -5 -19 -10 -25 -10 -5 0 -3 5 5 10 8 5 20 10 25 10 6 0 3 -5 -5
-10z m55 -48 c-3 -3 -11 0 -18 7 -9 10 -8 11 6 5 10 -3 15 -9 12 -12z m35 4
c0 -3 -4 -8 -10 -11 -5 -3 -10 -1 -10 4 0 6 5 11 10 11 6 0 10 -2 10 -4z m38
-42 c-4 -3 -12 5 -18 18 -12 22 -12 22 6 6 10 -10 15 -20 12 -24z m823 -1 c13
-16 12 -17 -3 -4 -10 7 -18 15 -18 17 0 8 8 3 21 -13z m-1279 -39 c5 -3 1 -12
-9 -20 -17 -13 -17 -13 3 -14 11 0 25 5 32 12 9 9 12 9 12 0 0 -19 -32 -31
-57 -21 -15 5 -23 5 -23 -2 0 -10 -65 -7 -77 4 -3 4 -1 7 5 7 6 0 13 8 16 18
4 13 17 18 48 19 23 1 45 0 50 -3z m303 -184 c3 -5 1 -10 -4 -10 -6 0 -11 5
-11 10 0 6 2 10 4 10 3 0 8 -4 11 -10z m-5920 -49 c-4 -17 -11 -31 -17 -31 -6
0 -7 8 -3 18 4 9 10 25 12 35 9 29 15 11 8 -22z m595 -220 c0 -22 -17 -37 -28
-26 -4 4 -2 10 5 12 7 2 9 11 6 19 -3 8 0 14 6 14 6 0 11 -9 11 -19z"/>
<path d="M3135 9530 c3 -5 13 -10 21 -10 8 0 14 5 14 10 0 6 -9 10 -21 10 -11
0 -17 -4 -14 -10z"/>
<path d="M5261 8834 c0 -11 3 -14 6 -6 3 7 2 16 -1 19 -3 4 -6 -2 -5 -13z"/>
<path d="M6090 5470 c0 -8 5 -22 10 -30 9 -13 10 -13 10 0 0 8 -5 22 -10 30
-9 13 -10 13 -10 0z"/>
<path d="M6097 5066 c-4 -10 -1 -13 9 -9 7 3 14 9 14 14 0 14 -17 10 -23 -5z"/>
<path d="M6477 746 c-68 -39 -88 -56 -66 -56 8 0 31 11 51 25 20 14 42 25 47
25 6 0 11 4 11 9 0 5 12 14 28 19 21 8 22 11 7 11 -11 0 -46 -15 -78 -33z"/>
<path d="M6331 665 c-23 -14 -48 -25 -55 -25 -6 0 -23 -8 -36 -17 -14 -10 -32
-16 -40 -15 -9 1 -25 -5 -36 -15 -10 -10 -44 -30 -73 -45 -45 -22 -54 -31 -56
-55 -1 -15 -5 -37 -9 -48 -5 -15 -4 -15 5 2 6 12 26 29 43 38 17 9 51 29 76
45 25 16 54 34 65 40 11 6 36 21 56 33 20 12 55 33 78 46 22 14 41 28 41 33 0
13 -12 9 -59 -17z"/>
<path d="M1380 7432 c0 -5 -10 -14 -22 -20 -13 -6 -18 -11 -12 -11 7 -1 22 8
35 19 13 10 18 19 12 20 -7 0 -13 -4 -13 -8z"/>
<path d="M2876 6574 c-9 -23 -2 -28 13 -10 7 8 8 17 3 20 -6 3 -13 -1 -16 -10z"/>
<path d="M2600 6480 l-25 -8 28 -1 c15 -1 27 4 27 9 0 6 -1 10 -2 9 -2 -1 -14
-5 -28 -9z"/>
<path d="M5078 6347 c-9 -7 -18 -25 -21 -40 -6 -39 21 -32 38 10 15 35 7 49
-17 30z"/>
<path d="M4956 5854 c-18 -26 -18 -26 3 -15 11 7 21 18 21 26 0 20 -2 19 -24
-11z"/>
<path d="M3310 6090 c0 -5 5 -10 10 -10 6 0 10 5 10 10 0 6 -4 10 -10 10 -5 0
-10 -4 -10 -10z"/>
<path d="M3560 6015 c-7 -9 -10 -18 -7 -21 10 -11 54 5 61 21 7 20 -37 20 -54
0z"/>
<path d="M3490 5990 c-13 -9 -13 -10 0 -10 8 0 22 5 30 10 13 9 13 10 0 10 -8
0 -22 -5 -30 -10z"/>
<path d="M3330 5926 c0 -8 5 -18 10 -21 6 -3 10 3 10 14 0 12 -4 21 -10 21 -5
0 -10 -6 -10 -14z"/>
<path d="M3513 5823 c-23 -3 -30 -8 -26 -19 3 -8 9 -14 15 -14 5 0 6 5 3 10
-4 7 3 9 19 6 18 -3 26 0 26 10 0 8 -1 13 -2 12 -2 0 -17 -3 -35 -5z"/>
<path d="M3387 5800 c-13 -16 -14 -20 -3 -20 25 0 46 12 46 26 0 20 -23 17
-43 -6z"/>
<path d="M3298 5703 c7 -3 16 -2 19 1 4 3 -2 6 -13 5 -11 0 -14 -3 -6 -6z"/>
<path d="M3325 5680 c3 -5 8 -10 11 -10 2 0 4 5 4 10 0 6 -5 10 -11 10 -5 0
-7 -4 -4 -10z"/>
<path d="M2607 5299 c7 -7 15 -10 18 -7 3 3 -2 9 -12 12 -14 6 -15 5 -6 -5z"/>
<path d="M7250 5195 c0 -3 5 -11 10 -18 6 -7 19 -23 30 -37 10 -14 19 -19 20
-12 0 6 -4 12 -9 12 -5 0 -14 14 -21 30 -11 26 -30 42 -30 25z"/>
<path d="M6645 5090 c-3 -5 -2 -10 4 -10 5 0 13 5 16 10 3 6 2 10 -4 10 -5 0
-13 -4 -16 -10z"/>
<path d="M7078 4693 c7 -3 16 -2 19 1 4 3 -2 6 -13 5 -11 0 -14 -3 -6 -6z"/>
<path d="M1980 4950 c0 -5 5 -10 11 -10 5 0 7 5 4 10 -3 6 -8 10 -11 10 -2 0
-4 -4 -4 -10z"/>
<path d="M2086 2331 c-4 -7 -16 -9 -28 -5 -14 4 -19 2 -16 -7 4 -13 69 -32 67
-20 0 3 -4 15 -8 25 -5 14 -10 16 -15 7z"/>
<path d="M11500 1455 c0 -8 4 -15 9 -15 5 0 11 7 15 15 3 9 0 15 -9 15 -8 0
-15 -7 -15 -15z"/>
<path d="M11960 1099 c0 -5 5 -7 10 -4 6 3 10 8 10 11 0 2 -4 4 -10 4 -5 0
-10 -5 -10 -11z"/>
<path d="M11925 930 c-3 -5 -1 -10 4 -10 6 0 11 5 11 10 0 6 -2 10 -4 10 -3 0
-8 -4 -11 -10z"/>
<path d="M10441 1293 c-11 -23 -10 -25 3 -14 12 10 16 9 25 -6 9 -16 10 -16
11 -1 0 22 -10 48 -19 48 -4 0 -13 -12 -20 -27z"/>
<path d="M10451 1234 c0 -11 3 -14 6 -6 3 7 2 16 -1 19 -3 4 -6 -2 -5 -13z"/>
<path d="M10431 1184 c0 -11 3 -14 6 -6 3 7 2 16 -1 19 -3 4 -6 -2 -5 -13z"/>
<path d="M10400 1180 c0 -5 5 -10 10 -10 6 0 10 5 10 10 0 6 -4 10 -10 10 -5
0 -10 -4 -10 -10z"/>
<path d="M10570 12250 c0 -11 5 -20 10 -20 6 0 10 9 10 20 0 11 -4 20 -10 20
-5 0 -10 -9 -10 -20z"/>
<path d="M5070 12240 c0 -5 5 -10 11 -10 5 0 7 5 4 10 -3 6 -8 10 -11 10 -2 0
-4 -4 -4 -10z"/>
<path d="M3720 12120 c0 -5 9 -10 20 -10 11 0 20 5 20 10 0 6 -9 10 -20 10
-11 0 -20 -4 -20 -10z"/>
<path d="M10180 12081 c0 -6 4 -13 10 -16 6 -3 7 1 4 9 -7 18 -14 21 -14 7z"/>
<path d="M10310 11900 c6 -11 13 -20 16 -20 2 0 0 9 -6 20 -6 11 -13 20 -16
20 -2 0 0 -9 6 -20z"/>
<path d="M3275 11840 c3 -5 10 -10 16 -10 5 0 9 5 9 10 0 6 -7 10 -16 10 -8 0
-12 -4 -9 -10z"/>
<path d="M10060 11800 c17 -11 47 -14 36 -3 -3 4 -17 8 -29 10 -17 2 -19 1 -7
-7z"/>
<path d="M10210 11800 c0 -5 7 -10 15 -10 8 0 15 5 15 10 0 6 -7 10 -15 10 -8
0 -15 -4 -15 -10z"/>
<path d="M3840 11720 c0 -11 4 -20 9 -20 5 0 11 9 14 20 3 13 0 20 -9 20 -8 0
-14 -9 -14 -20z"/>
<path d="M5370 11701 c0 -5 -3 -16 -6 -25 -3 -9 -1 -16 6 -16 6 0 18 -7 27
-15 8 -9 18 -14 20 -11 3 3 -2 12 -11 21 -9 9 -16 23 -16 30 0 8 -4 17 -10 20
-5 3 -10 2 -10 -4z"/>
<path d="M3885 11690 c3 -5 10 -10 16 -10 5 0 9 5 9 10 0 6 -7 10 -16 10 -8 0
-12 -4 -9 -10z"/>
<path d="M3935 11683 c11 -3 28 -12 37 -20 9 -8 23 -13 30 -11 17 6 -45 38
-69 37 -15 -1 -15 -2 2 -6z"/>
<path d="M12019 11509 c-13 -4 -55 -7 -92 -8 -45 -1 -66 -5 -62 -11 4 -7 31
-9 68 -6 34 3 101 6 150 8 48 1 87 6 87 11 0 4 -8 7 -17 6 -10 -1 -22 0 -28 1
-22 6 -83 5 -106 -1z"/>
<path d="M11718 11488 c-13 -3 -44 -6 -70 -7 -26 -1 -49 -5 -52 -10 -3 -5 -23
-9 -43 -10 -21 0 -51 -5 -68 -10 l-30 -9 30 -1 c17 -1 68 6 115 14 46 8 121
18 165 21 44 3 81 7 83 9 7 7 -109 10 -130 3z"/>
<path d="M11404 11435 c-16 -12 -16 -14 -3 -15 9 0 22 7 29 15 16 19 0 19 -26
0z"/>
<path d="M11365 11420 c-3 -5 -1 -10 4 -10 6 0 11 5 11 10 0 6 -2 10 -4 10 -3
0 -8 -4 -11 -10z"/>
<path d="M11325 11410 c3 -5 8 -10 11 -10 2 0 4 5 4 10 0 6 -5 10 -11 10 -5 0
-7 -4 -4 -10z"/>
<path d="M11258 11403 c-10 -2 -18 -9 -18 -14 0 -14 26 -11 40 6 13 15 9 16
-22 8z"/>
<path d="M11200 11380 c0 -5 5 -10 11 -10 5 0 7 5 4 10 -3 6 -8 10 -11 10 -2
0 -4 -4 -4 -10z"/>
<path d="M3230 11250 c0 -5 4 -10 9 -10 5 0 18 -3 28 -6 16 -5 16 -4 -1 10
-23 18 -36 20 -36 6z"/>
<path d="M3360 11180 c0 -5 5 -10 11 -10 5 0 7 5 4 10 -3 6 -8 10 -11 10 -2 0
-4 -4 -4 -10z"/>
<path d="M10738 11123 c7 -3 16 -2 19 1 4 3 -2 6 -13 5 -11 0 -14 -3 -6 -6z"/>
<path d="M12165 11080 c-3 -5 -1 -10 4 -10 6 0 11 5 11 10 0 6 -2 10 -4 10 -3
0 -8 -4 -11 -10z"/>
<path d="M4510 10861 c0 -9 24 -21 42 -21 6 0 6 6 -2 15 -14 16 -40 20 -40 6z"/>
<path d="M4575 10830 c3 -5 8 -10 11 -10 2 0 4 5 4 10 0 6 -5 10 -11 10 -5 0
-7 -4 -4 -10z"/>
<path d="M6006 10635 c9 -14 20 -25 26 -25 13 0 -9 37 -27 44 -13 5 -13 2 1
-19z"/>
<path d="M5980 10541 c0 -9 30 -24 36 -18 2 1 -6 8 -16 15 -11 7 -20 8 -20 3z"/>
<path d="M12273 10495 c4 -8 2 -17 -3 -20 -21 -13 -10 -35 15 -33 14 1 25 6
25 10 0 19 -21 58 -31 58 -6 0 -9 -7 -6 -15z"/>
<path d="M6079 10213 c-13 -16 -12 -17 4 -4 9 7 17 15 17 17 0 8 -8 3 -21 -13z"/>
<path d="M6000 10190 c0 -5 7 -10 15 -10 8 0 15 5 15 10 0 6 -7 10 -15 10 -8
0 -15 -4 -15 -10z"/>
<path d="M6035 10151 c-7 -12 35 -52 46 -45 5 2 3 16 -3 29 -11 25 -32 33 -43
16z"/>
<path d="M6125 10140 c3 -5 13 -10 21 -10 8 0 14 5 14 10 0 6 -9 10 -21 10
-11 0 -17 -4 -14 -10z"/>
<path d="M746 10095 c4 -8 10 -15 15 -15 5 0 9 7 9 15 0 8 -7 15 -15 15 -9 0
-12 -6 -9 -15z"/>
<path d="M5857 9973 c-4 -3 -7 -11 -7 -17 0 -6 5 -5 12 2 6 6 9 14 7 17 -3 3
-9 2 -12 -2z"/>
<path d="M6560 9930 c0 -5 5 -10 10 -10 6 0 10 5 10 10 0 6 -4 10 -10 10 -5 0
-10 -4 -10 -10z"/>
<path d="M1500 9868 c0 -11 12 -10 30 2 12 7 10 9 -8 7 -12 0 -22 -5 -22 -9z"/>
<path d="M1980 9722 c0 -10 41 -24 49 -17 6 7 0 11 -26 19 -13 4 -23 3 -23 -2z"/>
<path d="M2075 9700 c-3 -5 -1 -10 4 -10 6 0 11 5 11 10 0 6 -2 10 -4 10 -3 0
-8 -4 -11 -10z"/>
<path d="M2182 9668 c2 -6 10 -14 16 -16 7 -2 10 2 6 12 -7 18 -28 22 -22 4z"/>
<path d="M2235 9670 c12 -4 27 -15 34 -24 7 -9 23 -16 35 -16 19 0 18 2 -9 25
-16 13 -41 24 -55 24 -23 0 -23 -1 -5 -9z"/>
<path d="M2403 9578 c2 -8 22 -13 48 -13 24 -1 49 -4 56 -8 16 -10 74 3 67 15
-4 6 -21 8 -39 5 -17 -3 -38 -1 -45 3 -8 5 -22 4 -31 -1 -11 -6 -20 -5 -24 1
-9 14 -37 12 -32 -2z"/>
<path d="M2660 9570 c0 -5 5 -10 10 -10 6 0 10 5 10 10 0 6 -4 10 -10 10 -5 0
-10 -4 -10 -10z"/>
<path d="M3045 9471 c-2 -5 4 -11 15 -14 11 -3 20 -2 20 3 0 12 -28 21 -35 11z"/>
<path d="M2493 8985 c-7 -8 -13 -24 -13 -36 l0 -22 19 21 c10 12 23 22 29 22
5 0 12 7 16 15 7 20 -34 20 -51 0z"/>
<path d="M1665 8980 c-3 -5 1 -10 9 -10 9 0 16 5 16 10 0 6 -4 10 -9 10 -6 0
-13 -4 -16 -10z"/>
<path d="M7920 8881 c0 -6 4 -13 10 -16 6 -3 7 1 4 9 -7 18 -14 21 -14 7z"/>
<path d="M1877 8613 c-12 -11 -8 -21 13 -26 22 -6 23 -5 14 17 -7 17 -16 20
-27 9z"/>
<path d="M1669 8533 c4 -15 20 -35 37 -45 16 -9 37 -22 47 -28 13 -8 17 -7 17
4 0 9 -11 18 -25 22 -14 3 -25 11 -25 16 0 6 11 8 24 4 18 -4 25 -1 29 14 3
11 1 20 -4 20 -5 0 -9 -5 -9 -11 0 -6 -15 -1 -34 10 -48 30 -66 28 -57 -6z"/>
<path d="M2336 8545 c-10 -8 -24 -16 -30 -18 -7 -3 -8 -8 -1 -14 6 -6 21 1 40
19 31 29 24 38 -9 13z"/>
<path d="M1354 8541 c6 -9 -2 -11 -31 -6 -28 5 -34 4 -23 -4 19 -13 57 -14 65
-2 3 5 0 13 -6 17 -8 5 -9 3 -5 -5z"/>
<path d="M1398 8523 c7 -3 16 -2 19 1 4 3 -2 6 -13 5 -11 0 -14 -3 -6 -6z"/>
<path d="M12178 8393 c2 -32 1 -55 -3 -52 -3 4 -7 21 -7 38 -1 18 -4 34 -8 36
-4 3 -6 -14 -4 -36 5 -55 -17 -62 -62 -18 -19 18 -34 28 -34 22 0 -7 5 -15 10
-18 19 -12 10 -26 -11 -20 -14 5 -19 3 -15 -3 8 -14 -6 -22 -62 -36 -59 -15
-63 -30 -12 -45 62 -18 53 -41 -17 -41 -32 0 -65 -5 -73 -10 -10 -7 14 -10 80
-10 57 1 114 -5 142 -14 25 -8 49 -12 53 -8 3 3 3 -1 0 -9 -7 -19 34 -34 49
-19 14 14 43 12 50 -2 5 -10 7 -10 12 0 3 6 12 12 19 12 8 0 22 11 32 24 12
15 35 26 61 31 l42 7 0 54 c0 43 -3 54 -16 54 -12 0 -14 5 -9 18 7 15 9 52 6
90 -2 20 -26 14 -49 -13 -12 -14 -22 -29 -22 -33 0 -4 -13 -13 -29 -19 -22 -8
-33 -21 -42 -52 -7 -22 -15 -41 -19 -41 -10 0 -20 38 -20 78 0 31 -27 92 -40
92 -3 0 -3 -26 -2 -57z m-154 -102 c4 -5 -3 -7 -14 -4 -23 6 -26 13 -6 13 8 0
17 -4 20 -9z"/>
<path d="M8980 8232 c0 -5 7 -13 16 -16 10 -4 14 -1 12 6 -5 15 -28 23 -28 10z"/>
<path d="M3230 8166 c0 -29 20 -34 40 -11 15 18 13 20 -17 29 -20 6 -23 4 -23
-18z"/>
<path d="M1772 8130 c0 -14 2 -19 5 -12 2 6 2 18 0 25 -3 6 -5 1 -5 -13z"/>
<path d="M1141 8083 c-1 -17 16 -25 25 -12 4 7 3 9 -4 5 -5 -3 -13 0 -15 6 -4
9 -6 10 -6 1z"/>
<path d="M2960 8066 c0 -9 5 -16 10 -16 6 0 10 4 10 9 0 6 -4 13 -10 16 -5 3
-10 -1 -10 -9z"/>
<path d="M2980 8033 c0 -5 9 -19 20 -33 11 -14 20 -31 20 -37 0 -7 7 -13 16
-13 8 0 12 -4 9 -10 -3 -5 1 -10 9 -10 25 0 19 18 -19 51 -19 17 -35 37 -35
45 0 8 -4 14 -10 14 -5 0 -10 -3 -10 -7z"/>
<path d="M968 7803 c7 -3 16 -2 19 1 4 3 -2 6 -13 5 -11 0 -14 -3 -6 -6z"/>
<path d="M290 7510 c0 -5 5 -10 10 -10 6 0 10 5 10 10 0 6 -4 10 -10 10 -5 0
-10 -4 -10 -10z"/>
<path d="M10725 7071 c-3 -5 -1 -12 4 -15 5 -3 11 1 15 9 6 16 -9 21 -19 6z"/>
<path d="M10730 6845 c0 -8 5 -15 10 -15 6 0 10 7 10 15 0 8 -4 15 -10 15 -5
0 -10 -7 -10 -15z"/>
<path d="M844 6753 c-35 -36 -62 -68 -59 -71 2 -2 11 3 20 12 9 9 21 16 26 16
5 0 9 6 9 13 0 7 13 20 29 30 33 19 45 22 36 7 -3 -5 -1 -10 5 -10 7 0 9 8 5
19 -3 11 -1 22 5 26 5 3 10 10 10 16 0 22 -25 5 -86 -58z"/>
<path d="M820 6795 c0 -16 16 -20 24 -6 3 5 -1 11 -9 15 -9 3 -15 0 -15 -9z"/>
<path d="M10721 6794 c0 -11 3 -14 6 -6 3 7 2 16 -1 19 -3 4 -6 -2 -5 -13z"/>
<path d="M239 6710 c-24 -21 -39 -39 -32 -40 11 0 83 64 83 75 0 10 -8 5 -51
-35z"/>
<path d="M330 6735 c0 -8 -7 -15 -16 -15 -9 0 -18 -9 -21 -19 -3 -11 -15 -22
-28 -25 -13 -3 -30 -21 -39 -41 -10 -21 -26 -37 -41 -41 -32 -8 -21 -26 13
-22 19 2 27 -2 27 -12 1 -8 6 -14 13 -12 7 1 12 -5 12 -13 0 -25 25 -17 48 15
12 16 22 33 22 39 0 5 5 11 11 13 7 2 13 19 16 38 l3 34 -20 -22 c-21 -22 -50
-30 -50 -13 0 5 3 11 8 13 4 2 15 17 24 33 12 20 24 29 38 28 18 -2 19 0 8 17
-15 24 -28 26 -28 5z"/>
<path d="M12412 6715 c-2 -16 -9 -39 -17 -49 -8 -11 -15 -27 -15 -37 0 -9 -7
-19 -15 -23 -8 -3 -15 -13 -15 -21 0 -9 -9 -35 -19 -59 -11 -23 -25 -63 -32
-89 -6 -26 -15 -47 -20 -47 -5 0 -9 -8 -9 -18 0 -10 -9 -35 -20 -56 -10 -21
-22 -58 -26 -82 -4 -26 -15 -51 -30 -65 -16 -15 -22 -29 -18 -41 3 -11 -1 -30
-10 -43 -18 -28 -21 -55 -6 -55 6 0 13 7 16 15 5 13 9 13 22 3 13 -11 15 -10
9 4 -3 10 -2 20 3 23 6 4 10 19 10 36 0 26 32 74 42 63 3 -2 5 9 6 24 1 40 12
70 64 180 11 23 18 49 15 56 -3 8 0 22 7 32 7 11 25 51 40 89 22 55 26 83 23
130 -2 33 -4 47 -5 30z"/>
<path d="M117 6513 c-4 -3 -7 -11 -7 -17 0 -6 5 -5 12 2 6 6 9 14 7 17 -3 3
-9 2 -12 -2z"/>
<path d="M135 6480 c4 -6 11 -8 16 -5 14 9 11 15 -7 15 -8 0 -12 -5 -9 -10z"/>
<path d="M6 6388 c-3 -13 -6 -28 -6 -34 0 -15 106 -71 116 -62 10 11 -14 36
-52 54 -18 9 -35 22 -38 31 -5 12 0 13 27 8 l32 -6 -25 15 c-35 21 -47 20 -54
-6z"/>
<path d="M127 6296 c-6 -14 0 -26 14 -26 8 0 6 26 -3 35 -3 3 -8 -1 -11 -9z"/>
<path d="M12195 5970 c-3 -5 -1 -10 4 -10 6 0 11 5 11 10 0 6 -2 10 -4 10 -3
0 -8 -4 -11 -10z"/>
<path d="M12080 5684 c0 -8 -4 -12 -10 -9 -5 3 -10 2 -10 -3 0 -6 7 -12 15
-16 11 -4 15 1 15 19 0 14 -2 25 -5 25 -3 0 -5 -7 -5 -16z"/>
<path d="M11993 5452 c-6 -4 -14 -21 -17 -37 -3 -17 -3 -24 0 -17 3 6 10 10
15 7 5 -4 6 1 2 10 -3 10 0 21 8 25 7 5 11 11 8 14 -2 3 -10 2 -16 -2z"/>
<path d="M11951 5371 c-12 -8 -12 -12 2 -26 16 -15 17 -15 17 9 0 29 0 29 -19
17z"/>
<path d="M11827 5363 c-10 -9 -8 -41 2 -47 5 -4 7 3 4 14 -3 11 0 20 6 20 6 0
11 5 11 10 0 11 -13 13 -23 3z"/>
<path d="M11933 5315 c-6 -6 -8 -17 -4 -23 4 -7 11 -5 19 8 13 22 3 34 -15 15z"/>
<path d="M7181 5305 c9 -11 19 -27 22 -35 5 -13 6 -13 6 1 1 9 -9 24 -21 35
-23 19 -23 19 -7 -1z"/>
<path d="M11871 5164 c-12 -27 -11 -28 4 -12 10 9 16 21 13 28 -2 7 -10 -1
-17 -16z"/>
<path d="M7910 4726 c0 -2 9 -6 20 -9 11 -3 18 -1 14 4 -5 9 -34 13 -34 5z"/>
<path d="M8133 4643 c15 -2 37 -2 50 0 12 2 0 4 -28 4 -27 0 -38 -2 -22 -4z"/>
<path d="M12255 4540 c3 -5 8 -10 11 -10 2 0 4 5 4 10 0 6 -5 10 -11 10 -5 0
-7 -4 -4 -10z"/>
<path d="M12314 4477 c-12 -13 12 -47 33 -47 18 0 16 18 -4 39 -13 14 -21 16
-29 8z"/>
<path d="M12375 4460 c-3 -5 1 -10 9 -10 19 0 21 -11 5 -27 -9 -9 -7 -10 10
-6 25 6 28 38 5 47 -21 8 -22 8 -29 -4z"/>
<path d="M12390 4390 c0 -5 7 -10 15 -10 8 0 15 5 15 10 0 6 -7 10 -15 10 -8
0 -15 -4 -15 -10z"/>
<path d="M2165 4380 c-13 -6 -15 -9 -5 -9 8 0 22 4 30 9 18 12 2 12 -25 0z"/>
<path d="M9300 4136 c0 -2 7 -7 16 -10 8 -3 12 -2 9 4 -6 10 -25 14 -25 6z"/>
<path d="M1830 4046 c0 -19 4 -37 9 -40 5 -4 15 -29 22 -56 7 -28 20 -56 28
-63 12 -10 13 -5 8 37 -4 27 -11 54 -15 60 -5 6 -14 30 -22 54 -16 51 -30 55
-30 8z"/>
<path d="M2280 3945 c-7 -9 -8 -15 -2 -15 5 0 12 7 16 15 3 8 4 15 2 15 -2 0
-9 -7 -16 -15z"/>
<path d="M10260 2700 c0 -5 5 -10 11 -10 5 0 7 5 4 10 -3 6 -8 10 -11 10 -2 0
-4 -4 -4 -10z"/>
<path d="M1497 2639 c-4 -16 -3 -18 9 -8 7 6 11 15 8 20 -8 13 -11 11 -17 -12z"/>
<path d="M430 2061 c0 -5 5 -13 10 -16 6 -3 10 -2 10 4 0 5 -4 13 -10 16 -5 3
-10 2 -10 -4z"/>
<path d="M10370 1828 c0 -9 5 -20 10 -23 13 -8 13 5 0 25 -8 13 -10 13 -10 -2z"/>
<path d="M10330 1810 c0 -5 5 -10 10 -10 6 0 10 5 10 10 0 6 -4 10 -10 10 -5
0 -10 -4 -10 -10z"/>
<path d="M10425 1678 c-14 -43 -15 -57 -5 -63 6 -3 10 5 10 19 0 14 5 28 10
31 12 8 13 35 1 35 -5 0 -12 -10 -16 -22z"/>
<path d="M10437 1553 c-4 -3 -7 -13 -7 -22 1 -13 3 -13 11 2 11 19 8 33 -4 20z"/>
<path d="M10367 1406 c-4 -10 -5 -21 -2 -24 9 -9 17 6 13 25 -3 17 -4 17 -11
-1z"/>
<path d="M9900 810 c0 -5 5 -10 10 -10 6 0 10 5 10 10 0 6 -4 10 -10 10 -5 0
-10 -4 -10 -10z"/>
<path d="M0 406 c0 -8 18 -23 40 -35 45 -23 52 -19 18 10 -39 33 -58 42 -58
25z"/>
<path d="M0 185 l0 -186 190 1 c118 1 190 5 190 11 0 6 -4 7 -10 4 -9 -5 -14
16 -13 53 1 6 -5 12 -13 12 -8 0 -14 5 -14 11 0 11 -139 149 -150 149 -4 0
-38 25 -76 56 -114 92 -104 103 -104 -111z"/>
<path d="M9554 339 c-9 -15 18 -21 32 -7 12 12 11 14 -7 14 -11 0 -22 -4 -25
-7z"/>
<path d="M9438 333 c7 -3 16 -2 19 1 4 3 -2 6 -13 5 -11 0 -14 -3 -6 -6z"/>
<path d="M9400 320 c0 -5 5 -10 11 -10 5 0 7 5 4 10 -3 6 -8 10 -11 10 -2 0
-4 -4 -4 -10z"/>
<path d="M9520 276 c0 -2 7 -7 16 -10 8 -3 12 -2 9 4 -6 10 -25 14 -25 6z"/>
<path d="M2045 250 c3 -5 13 -10 21 -10 8 0 12 5 9 10 -3 6 -13 10 -21 10 -8
0 -12 -4 -9 -10z"/>
<path d="M9480 249 c0 -5 5 -7 10 -4 6 3 10 8 10 11 0 2 -4 4 -10 4 -5 0 -10
-5 -10 -11z"/>
<path d="M9588 253 c7 -3 16 -2 19 1 4 3 -2 6 -13 5 -11 0 -14 -3 -6 -6z"/>
<path d="M9290 240 c0 -5 5 -10 10 -10 6 0 10 5 10 10 0 6 -4 10 -10 10 -5 0
-10 -4 -10 -10z"/>
<path d="M9385 240 c3 -5 8 -10 11 -10 2 0 4 5 4 10 0 6 -5 10 -11 10 -5 0 -7
-4 -4 -10z"/>
<path d="M9330 220 c0 -5 5 -10 10 -10 6 0 10 5 10 10 0 6 -4 10 -10 10 -5 0
-10 -4 -10 -10z"/>
<path d="M9765 200 c3 -5 10 -10 16 -10 5 0 9 5 9 10 0 6 -7 10 -16 10 -8 0
-12 -4 -9 -10z"/>
</g>
</svg>
